<svg id="create_add" xmlns="http://www.w3.org/2000/svg" width="61.8" height="74.4" viewBox="0 0 61.8 74.4">
  <path id="Path_24533" d="M1.6,5.6H60.4v9.5H1.6Z" fill="#fad02c"/>
  <path id="Path_24534" d="M4.2,15.2H57.8V51.6H4.2Z" fill="#fad02c" opacity="0.1"/>
  <path id="Path_24535" d="M28.4,51.6h7.4V73H28.4Z" fill="#b3b0b5"/>
  <g id="Group_5113">
    <path id="Path_24536" d="M26.3,1.5h9.6V9.3H26.3V1.5Z" fill="#f9f9f9"/>
    <path id="Path_24537" d="M9.5,1.5h9.6V9.3H9.5Z" fill="#f9f9f9"/>
    <path id="Path_24538" d="M43.1,1.5h9.6V9.3H43.1Z" fill="#f9f9f9"/>
  </g>
  <path id="Path_24539" d="M14.3,24.8V21H47.9V44.2H14.3V36.6" fill="#fa6e53"/>
  <path id="Path_24540" d="M43.1,74.4a1.453,1.453,0,0,0,1.4-1.5,1.367,1.367,0,0,0-1.4-1.4h-6V60.6H51.7a1.453,1.453,0,0,0,1.4-1.5,1.367,1.367,0,0,0-1.4-1.4H46.4V53.2H57.6a1.538,1.538,0,0,0,1.5-1.5h0V16.6h1.2a1.538,1.538,0,0,0,1.5-1.5V5.6a1.538,1.538,0,0,0-1.5-1.5H54V1.5A1.538,1.538,0,0,0,52.5,0H42.9a1.538,1.538,0,0,0-1.5,1.5V4.2H37V1.5A1.316,1.316,0,0,0,35.7,0H26.1a1.538,1.538,0,0,0-1.5,1.5h0V4.2H20.3V1.5A1.391,1.391,0,0,0,18.9,0H9.3A1.538,1.538,0,0,0,7.8,1.5h0V4.2H1.5A1.453,1.453,0,0,0,0,5.6H0v9.5a1.538,1.538,0,0,0,1.5,1.5H2.7v35a1.538,1.538,0,0,0,1.5,1.5H17.5v4.5H4.1a1.453,1.453,0,0,0-1.4,1.5,1.367,1.367,0,0,0,1.4,1.4H26.8V71.4h-6a1.453,1.453,0,0,0-1.4,1.5,1.367,1.367,0,0,0,1.4,1.4H43.1ZM44.5,2.9h6.6V7.7H44.5Zm-16.9,0h6.6V7.7H27.6Zm-16.8,0h6.6V7.7H10.8V2.9ZM2.9,13.7V7.1H7.8V9.2a1.538,1.538,0,0,0,1.5,1.5h9.6a1.538,1.538,0,0,0,1.5-1.5h0V7.1h4.3V9.2a1.538,1.538,0,0,0,1.5,1.5h9.6a1.538,1.538,0,0,0,1.5-1.5V7.1h4.4V9.2a1.538,1.538,0,0,0,1.5,1.5h9.6a1.538,1.538,0,0,0,1.5-1.5V7.1h4.8v6.6ZM20.4,57.6V53.1h6.4v4.5ZM34.2,71.5H29.7V53.1h4.5Zm9.4-13.9H37.2V53.1h6.4Zm-38-7.5V16.6H56.2V50.1Z"/>
  <path id="Path_24541" d="M14.1,26.3a1.538,1.538,0,0,0,1.5-1.5V22.5H46.3V42.8H15.6V36.7a1.453,1.453,0,0,0-1.5-1.4,1.367,1.367,0,0,0-1.4,1.4v7.6a1.538,1.538,0,0,0,1.5,1.5H47.8a1.538,1.538,0,0,0,1.5-1.5h0V21.1a1.538,1.538,0,0,0-1.5-1.5H14.1a1.538,1.538,0,0,0-1.5,1.5h0v3.8a1.538,1.538,0,0,0,1.5,1.5h0Z"/>
  <path id="Path_24542" d="M23.2,38.1a.871.871,0,0,0,.8-.6c0-.2.5-1.8.5-1.8h3.3l.5,1.9c.3,1,2.6.3,2.3-.7l-2.9-9.5c-.4-1.1-2.8-1.1-3.2,0-.9,2.9-1.7,5.7-2.6,8.6-.2.7-.6,1.4.3,1.9a1.486,1.486,0,0,0,.9.2Zm3-8.4,1.1,4.2H25l1.1-4.2Z"/>
  <path id="Path_24543" d="M33.4,38.1h2.7a4.678,4.678,0,0,0,2.8-.9,3.785,3.785,0,0,0,1-3.2V30.9a5.073,5.073,0,0,0-.4-2.4,3.618,3.618,0,0,0-3.4-1.8H33.4c-.4,0-1.1.2-1.1.7v9.9c0,.5.6.7,1.1.7Zm1.4-9.3c1.3,0,2.8-.2,2.8,1.6v4c0,1.7-1.5,1.6-2.8,1.6Z"/>
  <path id="Path_24544" d="M12.8,31.2a1.458,1.458,0,1,0,.8-1.9A1.517,1.517,0,0,0,12.8,31.2Z"/>
  <path id="Path_24545" d="M57.4,57.6a1.471,1.471,0,1,0,1.7,1.2.756.756,0,0,0-.1-.4,1.545,1.545,0,0,0-1.6-.8Z"/>
</svg>
