<svg id="location_access" xmlns="http://www.w3.org/2000/svg" width="339" height="248" viewBox="0 0 339 248">
  <rect id="back" width="339" height="248" fill="none"/>
  <g id="map_design">
    <rect id="Rectangle_18038" width="32.5" height="62.6" transform="translate(238.2 56.6)" fill="#f4f5f9"/>
    <path id="Path_25482" d="M108.8,113.9V17.5L230.4,49.2,108.8,113.9Z" fill="#f4f5f9"/>
    <path id="Path_25483" d="M104,0,56.7,49.6V121H104Z" fill="#f4f5f9"/>
    <path id="Path_25484" d="M101,203,70.5,180.9v-50H101Z" fill="#f4f5f9"/>
    <path id="Path_25485" d="M109.7,130.5v96.4L231.3,244V130.5H109.7Z" fill="#f4f5f9"/>
  </g>
  <g id="char">
    <path id="Path_25486" d="M121.9,222.7h-4.1a1.5,1.5,0,0,1-.2-1c0-.6.2-1.1.5-1.1h3.7c.3,0,.5.4.5,1a1.19,1.19,0,0,1-.4,1.1" fill="#f4caba"/>
    <path id="Path_25487" d="M230.4,121H108.8L230.4,56.7Z" fill="#f4f5f9"/>
    <path id="Path_25488" d="M117.5,221.5l5,.4s13.1-41.8,15.2-76c0,0-1.8,41.1,3.7,75.5h6a602.459,602.459,0,0,0,7.4-93.9H121.4c-2.7,26.9-5.7,62.2-3.8,94.1" fill="#05293c"/>
    <path id="Path_25489" d="M137.7,145.8s-1.8,41.1,3.7,75.5h5.8a578.339,578.339,0,0,0,7.6-93.9s-35.9,6.2-37.2,94.1h4.2s13.8-41.5,15.9-75.7" fill="#011721"/>
    <path id="Path_25490" d="M117.7,222.5l-7,3.4a.992.992,0,0,0,.5,1.3H122a1,1,0,0,0,1-1V226l-.9-3.5Z" fill="#fad02c"/>
    <path id="Path_25491" d="M142,222.5l-1.5,3.4a.992.992,0,0,0,.5,1.3h6.9a1,1,0,0,0,1-1V226l-2.5-3.5Z" fill="#fad02c"/>
    <path id="Path_25492" d="M146.4,222.6H142a3.73,3.73,0,0,0-.2-1.2h5.3c0,.9-.6,1-.7,1.3" fill="#f4caba"/>
    <path id="Path_25493" d="M230.4,163.2a44.2,44.2,0,0,0-88.4,0,44.675,44.675,0,0,0,7.7,25c2.3,3.3,18.4,23.1,28.4,35.3a10.459,10.459,0,0,0,14.7,1.5,10.606,10.606,0,0,0,1.5-1.5c10.1-12.3,26.3-32.1,28.6-35.5a43.941,43.941,0,0,0,7.6-24.8" fill="#011721"/>
    <path id="Path_25494" d="M230.4,163.2a44.2,44.2,0,0,0-88.4,0,44.675,44.675,0,0,0,7.7,25c2.3,3.3,18.4,23.1,28.4,35.3a10.459,10.459,0,0,0,14.7,1.5,10.606,10.606,0,0,0,1.5-1.5c10.1-12.3,26.3-32.1,28.6-35.5a43.941,43.941,0,0,0,7.6-24.8" fill="#fad02c" opacity="0.9"/>
    <path id="Path_25495" d="M92,61.9h0a1.268,1.268,0,0,1-.9-.4,22.385,22.385,0,0,1-1.9-2.4,3.528,3.528,0,0,1,.9-4.9,3.606,3.606,0,0,1,2-.6h0a3.543,3.543,0,0,1,3.5,3.5,3.606,3.606,0,0,1-.6,2c-.2.2-1.2,1.5-2,2.4a1.086,1.086,0,0,1-.9.4M92,54.6h0a2.476,2.476,0,0,0-2.5,2.5,3.255,3.255,0,0,0,.4,1.4c.1.2.8,1,1.9,2.4,0,0,.2.1.3,0h0A26.793,26.793,0,0,0,94,58.5a2.48,2.48,0,0,0-.7-3.5,2.3,2.3,0,0,0-1.4-.4" fill="#f4f5f9"/>
    <path id="Path_25496" d="M152.7,74l-23.4,1.2a2.765,2.765,0,0,0-2.5,2.4c-1.4,7.1-5.4,29.4-4.4,45.2,0,0,.1,4.8,3.8,4.8l30.7-1.5s1.7,0,1.7-3.1L156,77.4a3.329,3.329,0,0,0-3.3-3.3" fill="#011721"/>
    <path id="Path_25497" d="M147.5,74.2l-.7-1.1H136.3l-1.5,1.8,13.2.5-.4-1.2Z" fill="#011721"/>
    <path id="Path_25498" d="M90.2,64.9l-1.9-.2h-.1c0,.1,4,8.4,4,8.4l1.7-.6-3.6-7.7Z" fill="#011721"/>
    <path id="Path_25499" d="M92.1,72.9l-3.8-8.1,1.8.2,3.5,7.4Z" fill="#f4f5f9"/>
    <path id="Path_25500" d="M141.4,73.9h0V74h0v.1s0,.2-.1.2v.1l-.2.2a.1.1,0,0,1-.1.1h-.1s-.2,0-.2.1h-3.1s-.2,0-.2-.1h-.1c0-.1.1-.3.1-.4a.9.9,0,0,0-.9-.9h0l-1.6.5a1.033,1.033,0,0,1-1.4-.6l-1.1-2.5a1.262,1.262,0,0,1,.1-1.2l2.2-2.9,4.9.6,1.4,4.8a5.482,5.482,0,0,0,.8,1.5" fill="#edb29f"/>
    <path id="Path_25501" d="M192.8,117.2l-3.5,2.6c-10.6-11.9-26.9-23-33.3-27.2a1.538,1.538,0,0,0-2.2.5,1.689,1.689,0,0,0-.3,1c.8,11.3,1.2,33.4,1.2,33.4-16.7,7.7-33.4,0-33.4,0,0-.6,4.1-35.1,4.1-35.1a47.375,47.375,0,0,1-18.1,11.8c-9.6-5.5-16-26.4-16-26.4L95,75.6l13.5,17.7S115.4,87.2,122,82a32.37,32.37,0,0,1,14.2-6.5.55.55,0,0,0,.5-.3v-.1h.1a.31.31,0,0,1,.2.1h3.1s.2,0,.2-.1h.1a.1.1,0,0,0,.1-.1l.2-.2v-.1s0-.2.1-.2v-.1h0v-.1h0a4.637,4.637,0,0,0,2.3,1.2,13.124,13.124,0,0,1,3.4.9c23.9,8.8,45.8,41.2,45.8,41.2" fill="#fad02c"/>
    <path id="Path_25502" d="M133.2,63.3s-2.7,3.1,1.2,4.9c0,0-.3,2.5,3,1.6,0,0,1.9-.8,1.8.8,0,0,.6,3.1,2.1,3.1a3.566,3.566,0,0,0,1.6-4S145,66,141.8,65c0,0,0-2.9-4.2-1.8,0,0-1.6-2.8-4.3,0" fill="#011721"/>
    <path id="Path_25503" d="M91.4,77.7l-2.5-3.2a2.845,2.845,0,0,1-.5-2.5l1.3-4L92,71.8l.3-.6a.806.806,0,0,1,.9-.3.446.446,0,0,1,.3.4L95,75.6l-3.7,2.2Z" fill="#edb29f"/>
    <path id="Path_25504" d="M121.3,127.5s16.7,7.7,33.4,0c0,0-.2-12.7-.6-23.7-18.9,2.6-32.8,23.7-32.8,23.7" fill="#011721"/>
    <path id="Path_25505" d="M121.3,127.5s16.7,7.7,33.4,0c0,0-.2-12.7-.6-23.7-18.9,2.6-32.8,23.7-32.8,23.7" fill="#fad02c" opacity="0.9"/>
    <path id="Path_25506" d="M123.5,108.5s-1,1.1-1.1-1.9c0-4.8,1.3-16.3,6.5-31.5h2.6c0-.1-6.1,17.3-8,33.4" fill="#05293c"/>
    <path id="Path_25507" d="M148.3,74.2h0" fill="#05293c"/>
    <path id="Path_25508" d="M157.9,112.1c-6.4-13-5-33.4-5.7-36.5h0a1.878,1.878,0,0,0-1.1-1.6h-2.5a1.7,1.7,0,0,1,1.4,1.6s-1,31.6,8.1,40.3l-.2-3.9Z" fill="#05293c"/>
    <path id="Path_25509" d="M156.9,97h1.4l.7,11.7h-1.8L156.9,97Z" fill="#011721"/>
    <path id="Path_25510" d="M155.6,109.8s-25.2,18.8-32,.4l-1-2.3V111c-.1,0,4.6,20,33.8,1.5Z" fill="#05293c"/>
    <path id="Path_25511" d="M132.4,118.3a2.814,2.814,0,0,1,.1-.8c.4-.4,1.8,0,1.8,0a.684.684,0,0,1,.7.7v1.7c0,.4-.2.8-.6.8h-1.2a.849.849,0,0,1-.7-.8v-1.5Z" fill="#05293c"/>
    <path id="Path_25512" d="M160.8,202.3A53.155,53.155,0,0,1,214,149.2a52.237,52.237,0,0,1,14.7,2.1A44.266,44.266,0,0,0,143.4,175a44.78,44.78,0,0,0,6.1,13.1c1.9,2.8,13.5,17.1,23.1,28.8-3.9-4.8-8.1-10-11.9-14.7" fill="#fad02c"/>
    <path id="Path_25513" d="M210.8,163.2a24.6,24.6,0,1,1-24.6-24.6,24.582,24.582,0,0,1,24.6,24.6h0" fill="#fa6e53"/>
    <path id="Path_25514" d="M166.6,178.2a24.616,24.616,0,0,0,40.1-28.5,53.229,53.229,0,0,0-40.1,28.5" fill="#011721"/>
    <path id="Path_25515" d="M166.6,178.2a24.616,24.616,0,0,0,40.1-28.5,53.229,53.229,0,0,0-40.1,28.5" fill="#fa6e53" opacity="0.9"/>
    <path id="Path_25516" d="M247.8,108.1a27.111,27.111,0,0,1-12.4-3.1,33.176,33.176,0,0,1-14.5-14.9c-7.9.5-15.8.7-23.5.9-6.6.1-13.4.3-20.2.7,0,0-.2,0-.2-.1h0a.2.2,0,0,1,.2-.2c6.8-.4,13.6-.5,20.2-.7,7.7-.2,15.5-.3,23.4-.9a25.423,25.423,0,0,1-1.7-4.6c-3-10.4,1.4-23.7,10.2-30.3,6.7-5.1,14.5-5.2,22-.5A18.457,18.457,0,0,1,259.7,71a17.076,17.076,0,0,1-7,12.6c-3.6,2.5-7.9,3.4-12.1,4.2a174.642,174.642,0,0,1-19.1,2.3,33.307,33.307,0,0,0,14.3,14.7,25.977,25.977,0,0,0,20.6,1.6A45.266,45.266,0,0,0,280.5,85c5.8-11,5.8-21.4,0-32.8-11-21.7-30.8-33.8-59-35.8-28.9-2.1-57.5,7.1-71.9,12.7-7.2,2.8-17.5,5.8-23.7-.4-2.5-2.5-3.8-6.5-3.7-10.9.1-4,1.3-7.8,2.5-11.6l.3-.8a.349.349,0,0,1,.2-.1.349.349,0,0,1,.1.2l-.3.8c-1.2,3.7-2.4,7.6-2.5,11.5-.1,4.3,1.2,8.2,3.6,10.7,6,6.1,16.2,3.1,23.3.3,14.5-5.6,43-14.8,72-12.7,13.1.9,24.6,4.2,34.2,9.5a61.532,61.532,0,0,1,25,26.5c5.8,11.5,5.8,22,0,33.1-5.4,10.1-14.2,18-24.2,21.6a24.548,24.548,0,0,1-8.5,1.5m-7.5-57a17.311,17.311,0,0,0-10.9,3.9c-8.7,6.5-13.1,19.7-10.1,29.9a37.983,37.983,0,0,0,1.8,4.7,179.462,179.462,0,0,0,19.2-2.3c4.2-.7,8.5-1.7,12-4.1A16.89,16.89,0,0,0,259.3,71a18.114,18.114,0,0,0-8.2-16.3,20.516,20.516,0,0,0-10.7-3.4" fill="#432d29"/>
    <path id="Path_25517" d="M72.4,217.6a10.966,10.966,0,0,1-3.6-.7c-3.5-1.3-6.3-4.1-8.2-6.4a33.471,33.471,0,0,1-6.8-11.3,19.63,19.63,0,0,1,0-13.1,18.722,18.722,0,0,1,8.9-9.5,32.227,32.227,0,0,1,15.9-3.2,80.917,80.917,0,0,1,2.1-18.3,68.092,68.092,0,0,1,23.9-37.8,111.573,111.573,0,0,1,10.6-7.4h.2v.2a110.616,110.616,0,0,0-10.6,7.3A66.9,66.9,0,0,0,81,155a80.052,80.052,0,0,0-2.1,18.2c13.7.5,28.8,6.9,39.9,11.6l1.1.4c5,2.1,10,4.6,14.9,6.9,18.4,8.9,37.5,18.2,58.3,13.4,12.7-2.9,25.5-11.3,31.1-20.4h.2v.2c-5.6,9.1-18.5,17.6-31.3,20.5-20.9,4.8-40-4.4-58.5-13.4-4.9-2.4-10-4.8-14.9-6.9l-1.1-.4c-11.1-4.7-26.1-11.1-39.8-11.6,0,6.1.3,12.3.6,18.3.3,4.8.6,9.9.6,14.7,0,4.2-1.4,7.8-3.8,9.5a6.894,6.894,0,0,1-3.9,1.2m5-43.4A32.365,32.365,0,0,0,62.7,177a18.152,18.152,0,0,0-8.8,9.3,18.766,18.766,0,0,0,0,12.8,34.032,34.032,0,0,0,6.8,11.2,20.1,20.1,0,0,0,8.1,6.3c2.8,1,5.3.9,7.2-.4,2.3-1.7,3.7-5.1,3.7-9.2,0-4.9-.3-9.9-.6-14.7-.4-6.1-.7-12.2-.6-18.4H77.3" fill="#432d29"/>
    <path id="Path_25518" d="M125,6s.8.1.9,0c.2-.2,0-.9-.2-1.3,0-.2-.3-.3-.5-.2-.5.2-1.2.5-1.1.8,0,.3,1,.7,1,.7" fill="#f4f5f9"/>
    <path id="Path_25519" d="M108.7,181l-.3,1c0,.2-.3.3-.5.3a.31.31,0,0,1-.2-.1l-.7-.8-.7-.8c-.2-.2-.1-.4,0-.6h.2l1-.2,1-.2c.2,0,.5.1.5.3v.2l-.3,1Z" fill="#011721"/>
    <path id="Path_25520" d="M79.6,213.3v1.1a.366.366,0,0,1-.4.4H79l-.9-.5-.9-.5a.481.481,0,0,1-.2-.6s0-.1.2-.2l.9-.6.9-.6a.614.614,0,0,1,.6.1v1.4Z" fill="#011721"/>
    <path id="Path_25521" d="M102.2,120.7l-.2,1a.382.382,0,0,1-.5.3h-.2l-.8-.7-.8-.7a.375.375,0,0,1,0-.6.31.31,0,0,0,.2-.1l1-.3,1-.3c.2,0,.5,0,.5.3v.2l-.2,1Z" fill="#011721"/>
    <path id="Path_25522" d="M253.3,83.9l-.4,1c0,.2-.4.3-.6.2a.31.31,0,0,1-.2-.1l-.6-.9-.6-.9a.614.614,0,0,1,.1-.6h1.3l1.1-.2a.664.664,0,0,1,.5.4V83l-.5,1Z" fill="#011721"/>
    <path id="Path_25523" d="M285.7,66.7l.6.9a.629.629,0,0,1,0,.6H285c0,.1-1.1.2-1.1.2a.51.51,0,0,1-.5-.4v-.2l.4-1,.4-1c0-.2.3-.3.6-.2a.31.31,0,0,1,.2.1l.6.9Z" fill="#011721"/>
    <path id="Path_25524" d="M208.3,16.1v1.1a.43.43,0,0,1-.4.4h-.2l-.9-.5-.9-.5a.377.377,0,0,1-.1-.6s0-.1.2-.2l.9-.5.9-.5a.481.481,0,0,1,.6.2v1.3Z" fill="#011721"/>
    <path id="Path_25525" d="M279.9,164.9l-41.6,8.2V130.9h32.5Z" fill="#f4f5f9"/>
    <path id="Path_25526" d="M189.4,119.8l.5,1.4,1.3,3.4a1.675,1.675,0,0,0,2.1,1c.1,0,.2-.1.3-.2l1-.7a3.031,3.031,0,0,0,.8-4.2.31.31,0,0,0-.1-.2l-2.4-3.1-3.5,2.6Z" fill="#edb29f"/>
    <path id="Path_25527" d="M238.2,227.5H92.5a.2.2,0,0,1,0-.4H238.2a.2.2,0,1,1,0,.4h0" fill="#011721"/>
  </g>
</svg>
