<svg xmlns="http://www.w3.org/2000/svg" xmlns:xlink="http://www.w3.org/1999/xlink" width="186" height="186" viewBox="0 0 186 186">
  <defs>
    <clipPath id="clip-path">
      <rect id="Rectangle_11" data-name="Rectangle 11" width="186" height="186" fill="none"/>
    </clipPath>
    <linearGradient id="linear-gradient" x1="-136.419" y1="6.397" x2="-136.29" y2="6.408" gradientUnits="objectBoundingBox">
      <stop offset="0" stop-color="#f4f5f9"/>
      <stop offset="1" stop-color="#d2d4e0"/>
    </linearGradient>
    <linearGradient id="linear-gradient-2" x1="-8.925" y1="21.116" x2="-8.907" y2="21.116" xlink:href="#linear-gradient"/>
    <linearGradient id="linear-gradient-3" x1="-20.557" y1="33.796" x2="-20.518" y2="33.796" xlink:href="#linear-gradient"/>
    <linearGradient id="linear-gradient-4" x1="-20.867" y1="32.333" x2="-20.867" y2="32.243" xlink:href="#linear-gradient"/>
    <linearGradient id="linear-gradient-5" x1="-15.784" y1="12.484" x2="-15.749" y2="12.484" xlink:href="#linear-gradient"/>
    <linearGradient id="linear-gradient-6" x1="-8.694" y1="157.647" x2="-8.677" y2="157.647" xlink:href="#linear-gradient"/>
    <linearGradient id="linear-gradient-7" x1="-39.135" y1="40.151" x2="-39.103" y2="40.04" xlink:href="#linear-gradient"/>
    <linearGradient id="linear-gradient-8" x1="-25.42" y1="13.234" x2="-25.368" y2="13.234" xlink:href="#linear-gradient"/>
    <linearGradient id="linear-gradient-9" x1="-147.625" y1="155.958" x2="-147.209" y2="155.958" xlink:href="#linear-gradient"/>
    <linearGradient id="linear-gradient-10" x1="-126.097" y1="168.236" x2="-125.774" y2="168.236" gradientUnits="objectBoundingBox">
      <stop offset="0" stop-color="#edac80"/>
      <stop offset="0.3" stop-color="#e6a579"/>
      <stop offset="0.7" stop-color="#d39367"/>
      <stop offset="1" stop-color="#bd7e52"/>
    </linearGradient>
    <linearGradient id="linear-gradient-11" x1="-187.715" y1="173.647" x2="-186.287" y2="173.647" xlink:href="#linear-gradient-10"/>
    <linearGradient id="linear-gradient-12" x1="-167.901" y1="231.818" x2="-167.401" y2="231.818" xlink:href="#linear-gradient-10"/>
    <linearGradient id="linear-gradient-13" x1="-155.176" y1="145.8" x2="-154.588" y2="145.8" xlink:href="#linear-gradient-10"/>
    <linearGradient id="linear-gradient-14" x1="-141.643" y1="-360.4" x2="-140.929" y2="-360.4" xlink:href="#linear-gradient-10"/>
    <linearGradient id="linear-gradient-15" x1="-142.462" y1="-508" x2="-141.693" y2="-508" xlink:href="#linear-gradient-10"/>
    <linearGradient id="linear-gradient-16" x1="45.875" y1="-2995.636" x2="47.125" y2="-2995.636" xlink:href="#linear-gradient-10"/>
    <linearGradient id="linear-gradient-17" x1="-22" y1="107.472" x2="-11" y2="106.694" xlink:href="#linear-gradient"/>
    <linearGradient id="linear-gradient-18" x1="-162.16" y1="138.875" x2="-161.08" y2="137.167" xlink:href="#linear-gradient"/>
    <linearGradient id="linear-gradient-19" x1="-127.306" y1="132.72" x2="-126.779" y2="131.04" xlink:href="#linear-gradient"/>
    <linearGradient id="linear-gradient-20" x1="-127.25" y1="106.778" x2="-126.722" y2="106" xlink:href="#linear-gradient"/>
    <linearGradient id="linear-gradient-21" x1="-173.183" y1="136.875" x2="-171.729" y2="135.125" xlink:href="#linear-gradient"/>
    <linearGradient id="linear-gradient-22" x1="-45.626" y1="115.5" x2="-34.876" y2="114.5" xlink:href="#linear-gradient"/>
    <linearGradient id="linear-gradient-23" x1="-210.572" y1="118.871" x2="-207.287" y2="117.838" xlink:href="#linear-gradient"/>
  </defs>
  <g id="logout_illustrator" clip-path="url(#clip-path)">
    <g id="logout_illustrator-2">
      <g id="Logout">
        <path id="Path_14967" d="M185.9,93h0a92.929,92.929,0,0,1-5.3,30.9c-.3.8-.6,1.7-.9,2.5-.7,1.9-1.5,3.7-2.3,5.5q-1.35,3-3,6a77.308,77.308,0,0,1-5.4,8.6h0a1.007,1.007,0,0,1-.1.3h0v.1c-.1.2-.3.4-.4.6a108.091,108.091,0,0,1-9.8,11.5l-.6.6h0A92.392,92.392,0,0,1,93.3,186h0a92.931,92.931,0,0,1-60.4-22.3c-1.5-1.3-3-2.7-4.5-4.1h0l-.6-.6A88.945,88.945,0,0,1,18,147.5c-.1-.2-.2-.3-.3-.5h0A90.578,90.578,0,0,1,.1,93h0A92.909,92.909,0,0,1,93,.1h0A92.909,92.909,0,0,1,185.9,93Z" fill="#fad02c" opacity="0.1"/>
        <path id="Path_14968" d="M168.7,146.6h-.1v.2a92.641,92.641,0,0,1-75.8,39.1h0A92.892,92.892,0,0,1,17.2,147l151.5-.4h0Z" fill="#fad02c" opacity="0.2"/>
        <g id="illustrator">
          <g id="illustrator-2">
            <path id="Path_14969" d="M19.8,145.9H166.2s3,1.1-1.2,3-40.6-4.2-49.6.7,12.8,16-9.4,12.1S63.1,151,57.4,156s-18.9,3.2-25.9-1.8c-6.4-4.6-11.7-5.6-12.1-7.6h0a7.763,7.763,0,0,1,.4-.7h0Z" fill="#fff"/>
            <g id="tree">
              <path id="Path_14970" d="M174.9,66.8a14.582,14.582,0,0,0-13.7-25.6,19.794,19.794,0,0,0-20.3-19,19.519,19.519,0,0,0-18.4,15,13.462,13.462,0,0,0-6.6,26.1,27.426,27.426,0,0,0,22.6,31.6,27.826,27.826,0,0,0,22-5.9,13.435,13.435,0,0,0,14.4-22.2Z" fill="#fa6e53"/>
              <path id="Path_14971" d="M139.8,143.8h9.7v-63l12.4-8.2h6.9v-.7l-5.6-.7,4.7-8.4-.6-.4-7.2,8.1-14.2,7.4-9.4-4.7-.8.9,7.1,7.5-3.1,62.3Z" fill="#2a454d"/>
              <path id="Path_14972" d="M156.3,37.9c.9,2.1-.7,6.2-2.2,7,0,0,3,1.6,4.2-2.1a3.7,3.7,0,0,0-2-4.9Z" fill="#e3f0f0"/>
              <path id="Path_14973" d="M174.6,48.2c.6,1.5-.5,4.4-1.6,5,0,0,2.1,1.1,3-1.5a2.674,2.674,0,0,0-1.3-3.5h0Z" fill="#e3f0f0"/>
              <path id="Path_14974" d="M176.8,55.8c-.5,1.7-3.4,3.4-4.8,3.1,0,0,1,2.4,3.6.8a2.844,2.844,0,0,0,1.3-3.8h0Z" fill="#e3f0f0"/>
              <path id="Path_14975" d="M168.8,54.2c-1.6,1.4-5.6,1.4-6.8.3,0,0-.5,3.1,3.2,3s3.6-3.2,3.6-3.2Z" fill="#e3f0f0"/>
              <path id="Path_14976" d="M138.1,146.4a3.577,3.577,0,0,1,2.2-1.1,4.446,4.446,0,0,1,4.7-4.1c4.4.1,4.4,2.7,4.4,2.7s2.2-6.9,7.1-6.5a5.6,5.6,0,0,1,5.5,4.9s6.2-.1,6.8,4.1H138.1Z" fill="#05293c"/>
              <path id="Path_14977" d="M111.4,146.4a4.2,4.2,0,0,1,3.6-2.1s.5-6.2,7-6,6.4,4.1,6.4,4.1,3.3-10,10.5-9.4a8.425,8.425,0,0,1,7.9,7.2s9.3,0,10,6.2H111.4Z" fill="#05293c"/>
              <path id="Path_14978" d="M165.8,121.3a5.517,5.517,0,0,0,1.6-7.7,5.665,5.665,0,0,0-6.8-2.1,7.558,7.558,0,0,0-7.7-7.3,7.457,7.457,0,0,0-7.1,5.8,5.224,5.224,0,0,0-6.2,3.9,5.14,5.14,0,0,0,3.6,6.1,10.585,10.585,0,0,0,8.6,12.1,10.226,10.226,0,0,0,8.4-2.3,5.105,5.105,0,0,0,6.7-2.7,5.229,5.229,0,0,0-1.2-5.8h0Z" fill="#fa6e53"/>
              <path id="Path_14979" d="M152.4,146.9h3.7V126.3l4.7-3.1h2.7v-.3l-2.1-.3,1.8-3.2-.2-.2-2.7,3.1-5.4,2.8-3.6-1.8-.3.4,2.7,2.9-1.2,20.3Z" fill="#2a454d"/>
              <path id="Path_14980" d="M158.7,110.2a2.585,2.585,0,0,1-.9,2.7s1.1.6,1.6-.8a1.506,1.506,0,0,0-.7-1.9h0Z" fill="#e3f0f0"/>
              <path id="Path_14981" d="M165.7,114.2a1.762,1.762,0,0,1-.6,1.9s.8.4,1.1-.6a.992.992,0,0,0-.5-1.3Z" fill="#e3f0f0"/>
              <path id="Path_14982" d="M166.5,117.1a1.975,1.975,0,0,1-1.8,1.2,1,1,0,0,0,1.1.5.355.355,0,0,0,.3-.2,1.136,1.136,0,0,0,.5-1.5h-.1Z" fill="#e3f0f0"/>
              <path id="Path_14983" d="M163.5,116.4a2.678,2.678,0,0,1-2.6.1s-.2,1.2,1.2,1.1a1.4,1.4,0,0,0,1.4-1.2h0Z" fill="#e3f0f0"/>
              <path id="Path_14984" d="M17,107.4a7.545,7.545,0,0,1,7-13.3,10.246,10.246,0,0,1,10.5-9.9A10.354,10.354,0,0,1,44.1,92a7.011,7.011,0,0,1,3.4,13.6A14.267,14.267,0,0,1,35.8,122a13.887,13.887,0,0,1-11.4-3.1,7.061,7.061,0,0,1-9.2-3.7,6.93,6.93,0,0,1,1.7-7.8H17Z" fill="#fa6e53"/>
              <path id="Path_14985" d="M35.3,142.7h-5v-28l-6.4-4.3H20.3V110l2.9-.4-2.5-4.3.3-.2,3.7,4.2,7.4,3.8,4.9-2.5.4.5L33.7,115l1.6,27.6Z" fill="#2a454d"/>
              <path id="Path_14986" d="M26.7,92.4a3.806,3.806,0,0,0,1.2,3.7s-1.5.8-2.2-1.1a1.916,1.916,0,0,1,.9-2.5h0Z" fill="#e3f0f0"/>
              <path id="Path_14987" d="M17.2,97.8a2.5,2.5,0,0,0,.8,2.6s-1.1.6-1.6-.8a1.356,1.356,0,0,1,.7-1.8h.1Z" fill="#e3f0f0"/>
              <path id="Path_14988" d="M16,101.7a2.738,2.738,0,0,0,2.5,1.6,1.068,1.068,0,0,1-1.5.6.758.758,0,0,1-.4-.2,1.592,1.592,0,0,1-.7-2h0Z" fill="#e3f0f0"/>
              <path id="Path_14989" d="M20.2,100.8a3.388,3.388,0,0,0,3.5.1,1.335,1.335,0,0,1-1.6,1.5,1.781,1.781,0,0,1-1.9-1.6Z" fill="#e3f0f0"/>
              <path id="Path_14990" d="M45.6,146.6H19.4a2.378,2.378,0,0,1,2.2-1.6,3.785,3.785,0,0,1,4-3.5c3.7,0,3.7,2.3,3.7,2.3s1.8-5.8,6-5.5a4.8,4.8,0,0,1,4.6,4.1s6,0,5.8,4.2h-.1Z" fill="#05293c"/>
            </g>
            <g id="stand">
              <path id="Path_14991" d="M147.2,146.4h-1.1V102.9a8.6,8.6,0,0,1,8.6-8.6h15.8v1.1H154.7a7.555,7.555,0,0,0-7.5,7.5v43.5Z" fill="#fff"/>
              <rect id="Rectangle_1548" width="0.3" height="2.8" transform="translate(154.1 94)" fill="#fff"/>
              <rect id="Rectangle_1549" width="0.3" height="2.8" transform="translate(169.7 94)" fill="#fff"/>
              <rect id="Rectangle_1550" width="17.2" height="15.9" transform="translate(153.2 96.3)" fill="#fff"/>
            </g>
            <g id="house">
              <rect id="Rectangle_1551" width="66.4" height="61.5" transform="translate(39.3 83.4)" fill="#f4f5f9"/>
              <path id="Path_14992" d="M143.3,145H87.5V44.6l55.8,17.2Z" fill="#f4f5f9"/>
              <path id="Path_14993" d="M140.2,60.8V145h3.1V61.7l-3.1-1Z" fill="url(#linear-gradient)"/>
              <path id="Path_14994" d="M143.3,61.7v8.6L87.5,53.1V44.5Z" fill="url(#linear-gradient-2)"/>
              <path id="Path_14995" d="M152.8,145H38.3c-2.1,0-3.9-.2-3.9,1.9H156.6c0-2.1-1.7-1.9-3.9-1.9Z" fill="#fff"/>
              <rect id="Rectangle_1552" width="15.8" height="26.9" transform="translate(117.8 126.8) rotate(-90)" fill="#fff"/>
              <path id="Path_14996" d="M143.9,112v13.7H118.6V112Z" fill="url(#linear-gradient-3)"/>
              <path id="Path_14997" d="M133.5,112l10.2,14h-3.1l-5.2-6.4,2,6.2-8-.2-10.6-14,6.9.2,4.7,7-2.5-6.9h5.7Z" fill="url(#linear-gradient-4)"/>
              <path id="Path_14998" d="M131.6,111.2v15.2h-.7V111.2Z" fill="#fff"/>
              <path id="Path_14999" d="M79.5,140.3H48.3v-42H79.5Z" fill="#fff"/>
              <rect id="Rectangle_1553" width="28.7" height="39.7" transform="translate(49.6 99.4)" fill="url(#linear-gradient-5)"/>
              <path id="Path_15000" d="M64.3,139.1h-.8V98.5h.8Z" fill="#fff"/>
              <path id="Path_15001" d="M62.9,94.5h3.8V96H62.9V94.5Z" fill="#fff"/>
              <rect id="Rectangle_1554" width="1.5" height="3.8" transform="translate(59.1 92.9) rotate(-90)" fill="#fff"/>
              <path id="Path_15002" d="M62.9,91.4h3.8v1.5H62.9V91.4Z" fill="#f6f6f6"/>
              <rect id="Rectangle_1555" width="3.8" height="1.5" transform="translate(130.5 137.3)" fill="#fff"/>
              <rect id="Rectangle_1556" width="3.8" height="1.5" transform="translate(128.7 135.8)" fill="#fff"/>
              <path id="Path_15003" d="M132.5,135.8h3.8v1.5h-3.8Z" fill="#fff"/>
              <rect id="Rectangle_1557" width="3.8" height="1.5" transform="translate(121.8 98.9)" fill="#fff"/>
              <rect id="Rectangle_1558" width="3.8" height="1.5" transform="translate(123.5 100.4)" fill="#fff"/>
              <rect id="Rectangle_1559" width="3.8" height="1.5" transform="translate(119.7 100.4)" fill="#fff"/>
              <rect id="Rectangle_1560" width="57.2" height="1.7" transform="translate(86.6 89.9)" fill="url(#linear-gradient-6)"/>
              <path id="Path_15004" d="M47.7,83.4H46.6V74.8h1.1Z" fill="#e3f0f0"/>
              <rect id="Rectangle_1561" width="1.1" height="8.6" transform="translate(54.3 74.8)" fill="#e3f0f0"/>
              <rect id="Rectangle_1562" width="1.1" height="8.6" transform="translate(62.1 74.8)" fill="#e3f0f0"/>
              <rect id="Rectangle_1563" width="1.1" height="8.6" transform="translate(69.9 74.8)" fill="#e3f0f0"/>
              <rect id="Rectangle_1564" width="1.1" height="8.6" transform="translate(77.7 74.8)" fill="#e3f0f0"/>
              <rect id="Rectangle_1565" width="1.1" height="8.6" transform="translate(85.4 74.8)" fill="#e1d7db"/>
              <path id="Path_15005" d="M86.6,79.4l-1.1-3.3V74.8h1.1v4.6Z" fill="#e3f0f0"/>
              <path id="Path_15006" d="M87.8,75.3H45.5v-1H87.8Z" fill="#e3f0f0"/>
              <path id="Path_15007" d="M149.6,67.5,80,46l1.5-4.9,69.6,21.5Z" fill="#fff"/>
              <path id="Path_15008" d="M122.4,73.1a7.3,7.3,0,1,1-7.3-7.3,7.341,7.341,0,0,1,7.3,7.3Z" fill="#fff"/>
              <path id="Path_15009" d="M121.4,73.1a6.3,6.3,0,1,1-6.3-6.3h0a6.274,6.274,0,0,1,6.3,6.3Z" fill="url(#linear-gradient-7)"/>
              <rect id="Rectangle_1566" width="0.8" height="14.6" transform="translate(114.7 65.8)" fill="#fff"/>
              <path id="Path_15010" d="M122.4,72.7v.8H107.8v-.8Z" fill="#fff"/>
              <rect id="Rectangle_1567" width="21.6" height="37.7" transform="translate(93.2 107.3)" fill="#fff"/>
              <rect id="Rectangle_1568" width="19.3" height="36.7" transform="translate(94.3 108.4)" fill="url(#linear-gradient-8)"/>
              <path id="Path_15011" d="M98.8,126.7H95.5v-.5h3.3Z" fill="#fff"/>
            </g>
            <g id="stars">
              <path id="Path_15012" d="M104.4,67.7a2.069,2.069,0,0,0-.8-.2c0-.5,0-.8-.2-.8s-.2.4-.2.8c-.5,0-.8,0-.8.2s.4.2.8.2c0,.5,0,.8.2.8s.2-.4.2-.8C104.1,67.9,104.4,67.9,104.4,67.7Z" fill="#e3f0f0"/>
              <path id="Path_15013" d="M102.1,59.1c0-.1-.5-.2-1.2-.2,0-.7-.1-1.2-.2-1.2s-.2.5-.2,1.2c-.7,0-1.2.1-1.2.2s.5.2,1.2.2c0,.7.1,1.2.2,1.2s.2-.5.2-1.2C101.6,59.3,102.1,59.2,102.1,59.1Z" fill="#e3f0f0"/>
              <path id="Path_15014" d="M108.7,62.3a2.427,2.427,0,0,0-1-.2c0-.6-.1-1-.2-1s-.2.4-.2,1c-.6,0-1,0-1,.2s.4.2,1,.2c0,.6.1,1,.2,1s.2-.4.2-1C108.3,62.5,108.7,62.5,108.7,62.3Z" fill="url(#linear-gradient-9)"/>
            </g>
            <path id="Path_15015" d="M38.8,34.9H73.3s1.2-10.4-6.5-10.4-6.9,7.3-6.9,7.3-.6-4.5-6.3-4.2c-4.6.2-5,3.5-5,3.5s-8.7-.7-9.9,3.8Z" fill="#fad02c"/>
            <path id="Path_15016" d="M119,24.4H96.8s-.8-6.7,4.2-6.7a4.053,4.053,0,0,1,4.4,3.7v1s.4-2.9,4.1-2.7c3,.1,3.2,2.3,3.2,2.3s5.6-.5,6.4,2.4h0Z" fill="#fad02c"/>
            <g id="man">
              <g id="Foot">
                <path id="Path_15017" d="M93.5,144.6c0,.2.6,3.2,1,3.5s2.2-.1,2.3-.5c0-1.2-.2-2.4-.3-3.6l-3,.7Z" fill="#ffd2b3"/>
                <path id="Path_15018" d="M94,147.4c-.3-.2-.3,3.7,0,3.8s7.4.3,8,0a.984.984,0,0,0,.3-1.4,1.794,1.794,0,0,0-.7-.5c-1.1-.2-3.4-.6-4.1-1.5-.2-.6-.4-1.1-.6-1.6-.2-.1-.2,1.1-.2,1.1s-1.8.6-2.6,0h0Z" fill="#d1553d"/>
                <path id="Path_15019" d="M93.7,150.6c0,.1,0,.8.2.8s8.2.1,8.3,0a1.268,1.268,0,0,1,.1-.6l-8.6-.2Z" fill="#ae3b2a"/>
                <path id="Path_15020" d="M98.1,149.1c-.2-.2.2-.7.4-.7S98.3,149.3,98.1,149.1Z" fill="#fff"/>
                <path id="Path_15021" d="M98.7,149.3c-.2-.2.2-.7.4-.7S98.9,149.5,98.7,149.3Z" fill="#fff"/>
                <path id="Path_15022" d="M99.6,149.5c-.2-.2.2-.7.4-.7S99.8,149.7,99.6,149.5Z" fill="#fff"/>
                <path id="Path_15023" d="M96.5,149.3a.7.7,0,1,1-.7-.7.684.684,0,0,1,.7.7Z" fill="#ae3b2a"/>
              </g>
              <g id="Leg">
                <path id="Path_15024" d="M94.2,99.6c.7,9.1,3.4,40.9,3.8,44.9-.7.3-4.2,1.3-5,.5S83,102.5,82.4,99.7H94.2Z" fill="#2a454d"/>
                <path id="Path_15025" d="M88.4,100.1l-.3,10.2.4,8.3s5,27.9,4.5,26.4c-2.3-8.4-10.5-43.4-11-45.3l6.3.5h0Z" fill="#1b2e36"/>
              </g>
              <g id="Foot-2">
                <path id="Path_15026" d="M79.9,147.1c-1,0-1.9,0-1.9.4a23.6,23.6,0,0,0,.2,3.9c.2.1,6.8,0,7.4,0s.4-2.3-1.6-2.3l-2.4-2H79.9v0Z" fill="#d1553d"/>
                <path id="Path_15027" d="M78.1,150.9s2.8.1,4.4.1a3.2,3.2,0,0,1,1.9-.5,2.026,2.026,0,0,1,1.5.4s.2.8,0,.8-7.5.1-7.6,0c-.2-.2-.2-.8-.2-.8Z" fill="#ae3b2a"/>
                <path id="Path_15028" d="M78.1,143.7c0,.2.2,3.2.2,4,.4.4,2.7.5,2.9.1,0-.7.3-4.1.3-4.1Z" fill="#ffd2b3"/>
                <path id="Path_15029" d="M79.2,148.2c-.2-.2-.3-1.6.3-2s1.6-.4,1.8,0a6.529,6.529,0,0,1,.5,2c0,.3-2.2.7-2.7,0h0Z" fill="#d1553d"/>
                <path id="Path_15030" d="M81,150.2a3.906,3.906,0,0,1,3.1-1,2.161,2.161,0,0,0-2.2-.1C80.8,149.5,81,150.2,81,150.2Z" fill="#ae3b2a"/>
                <ellipse id="Ellipse_246" cx="0.5" cy="0.7" rx="0.5" ry="0.7" transform="translate(78.3 148.5)" fill="#ae3b2a"/>
                <path id="Path_15031" d="M81.3,148.8c.3-.2,1.7-.2,1.4-.4s-1.4,0-1.4.3v.1Z" fill="#fff"/>
                <path id="Path_15032" d="M80.9,148.4c.3-.2,1.7-.2,1.4-.4s-1.4,0-1.4.3v.1Z" fill="#fff"/>
                <path id="Path_15033" d="M80.5,147.9c.3-.2,1.7-.2,1.4-.4s-1.4,0-1.4.3v.1Z" fill="#fff"/>
              </g>
              <g id="Leg-2">
                <path id="Path_15034" d="M88.2,100.8c-.4,1.4-1.5,6.5-1.5,6.5s-3.8,37.1-4.1,37.4c-.4.5-2.9.8-4.6,0-.6-1.4-1.1-40.6-1.2-44.6l11.4.7h0Z" fill="#2a454d"/>
              </g>
              <g id="Line">
                <path id="Path_15035" d="M78.5,105c0-.3,1.1-.4,2.2-1.1,1.2-.6,2-1.3,2.2-1.2a1.463,1.463,0,0,1-.3.8,4.428,4.428,0,0,1-1.5,1.2,4.075,4.075,0,0,1-1.8.5c-.5,0-.8,0-.8-.2h0Z" fill="#1b2e36"/>
              </g>
              <path id="Path_15036" d="M103.8,82.7a5.715,5.715,0,0,1,1.6-1.1c.4,0,2.1-.6,2.2-.5s.1.5-.4.7-1.2.2-1,.5,1.1.5,1.1.5a12.09,12.09,0,0,1,1.8-.5.349.349,0,0,1,.1.2c.3-.2.6-.2.7,0,0,0-.5.5-1,.9a2.925,2.925,0,0,1-1.2.7H107l-.4.4h-1.2l-1,.8-1.4-2,.7-.5h0Z" fill="#ffd2b3"/>
              <path id="Path_15037" d="M105.1,83.1h.4a.551.551,0,0,1,.5.2.494.494,0,0,1,.3.1h.2l.3-.2.3-.2c.2,0,.4-.2.6-.3a.494.494,0,0,0,.3-.1h.1v.2s0,.1-.2.2c-.2.2-.4.5-.6.7l-.4.4-.2.2a.31.31,0,0,0,.2-.1c.1,0,.3-.2.5-.4a4.349,4.349,0,0,0,.6-.7l.2-.2v-.3h-.1a.494.494,0,0,0-.3.1c-.2,0-.4.2-.6.3l-.3.2h-.2v.1h0a.31.31,0,0,1-.2-.1.367.367,0,0,1-.3-.1c-.2,0-.3-.1-.5-.1h-.3Z" fill="url(#linear-gradient-10)"/>
              <path id="Path_15038" d="M105.5,84.5h0a.31.31,0,0,1-.2-.1h0a.1.1,0,0,1-.1-.1,1.381,1.381,0,0,1-.3-.4v-.2h0v.2c0,.1.2.3.3.4a.31.31,0,0,1,.2.1h0l.2.1h0Z" fill="url(#linear-gradient-11)"/>
              <path id="Path_15039" d="M107.9,83.3h.1c.1,0,.2-.1.3-.2l.2-.2.2-.2h.5l-.2.2-.6.6-.3.3h.1l.3-.3.6-.6.2-.2h-.2a.367.367,0,0,0-.3.1s-.2.1-.2.2l-.2.2s-.2.2-.3.2H108Z" fill="url(#linear-gradient-12)"/>
              <path id="Path_15040" d="M87.9,77.7l1.8.4,5.6,8,8.3-3.4,1.7,2.4s-7.1,7.1-10,7.7c-1.4.3-5.3-2.4-5.3-2.4L88,77.6h0Z" fill="#fad02c"/>
              <path id="Path_15041" d="M95.3,86.3c-.2-.6-1,2.7-.9,3S95.5,86.7,95.3,86.3Z" fill="#05293c"/>
              <path id="Path_15042" d="M87.9,77.7H81.8S77.1,92.5,75.7,100c2.6,2.1,11.8,3.5,18.9.5C94.5,97.3,88,77.7,88,77.7Z" fill="#fad02c"/>
              <path id="Path_15043" d="M84,78.8l2.8,15.9-3.7-9.9.6-.8-1.8-2.5L84,78.9Z" fill="#05293c"/>
              <path id="Path_15044" d="M86.7,78.6l.2,16.1,1.6-10.2-.9-1,1.3-2.3-2.2-2.5Z" fill="#05293c"/>
              <path id="Path_15045" d="M83.9,77.8h3s.3,16.1,0,17.2c0,0-3.6-14.6-3-17.2Z" fill="#e3f0f0"/>
              <g id="head">
                <path id="Path_15046" d="M82.5,69.2a2.131,2.131,0,0,1,1.5-2,3.092,3.092,0,0,1,2.7,1c0-.4.2-.8.6-.8h.3c1,0,.8,1.2.8,1.2a.829.829,0,0,1,1.1.3h0a2.147,2.147,0,0,1-.6,2.5,1.116,1.116,0,0,1-.1,1.6,1.136,1.136,0,0,1-.8.3,1.1,1.1,0,0,1-1.3,1h-.2a2.1,2.1,0,0,1-.4,1.1c-.6.6-3.5-.1-3.2-1v-.3a1.3,1.3,0,0,1-1.1-1.3v-.1c-2.7-3.1.6-3.5.6-3.5h0Z" fill="#1b2e36"/>
                <path id="Path_15047" d="M83.4,71.4c-.7.4-.3,3.1.9,3.2a8.805,8.805,0,0,0,1.1-2.4s-1.5-1.1-2-.9h0Z" fill="#1b2e36"/>
                <path id="Path_15048" d="M83.9,73.1l2.3,1.5a7.433,7.433,0,0,0,.3,2.6.758.758,0,0,1,0,1,1.439,1.439,0,0,0-.3.2c-1.1.4-1.9-.2-2.6-1.1.6,0,.4-4.2.4-4.2Z" fill="#ffd2b3"/>
                <path id="Path_15049" d="M86.6,77.3c-1.6-.5-1.7-2.5-1.7-2.5l1.4.9a3.049,3.049,0,0,0,.3,1.6h0Z" fill="url(#linear-gradient-13)"/>
                <path id="Path_15050" d="M88.5,70.2a4.3,4.3,0,0,1,0,1.6c-.2.9-1.1-1.3-1.1-1.3l1.1-.3h0Z" fill="#1b2e36"/>
                <path id="Path_15051" d="M86.8,76.1c-1.4.2-2.4-.8-2.7-2.5a.684.684,0,0,1-.7-.7h0c0-.6.2-.6.4-.6H85a1.012,1.012,0,0,0,.7-.4c.3-.4.6-.6,1.8-.6a.829.829,0,0,0,.8-.3,8.51,8.51,0,0,0,.6,1.7A2.5,2.5,0,0,1,87.6,76c-.2,0-.3.1-.5.2h0Z" fill="#ffd2b3"/>
                <path id="Path_15052" d="M86.4,72.3h0a.548.548,0,0,0-.6.4h0a.55.55,0,0,1,.5-.3h0Z" fill="#1b2e36"/>
                <path id="Path_15053" d="M87.5,74.1h0a.483.483,0,0,0,0-.7h0V74h0Z" fill="#1b2e36"/>
                <path id="Path_15054" d="M83.7,72.6h0c0,.1-.1.3-.1.4h0v-.3h0a.215.215,0,0,1,.2-.2h0Z" fill="#1b2e36"/>
                <path id="Path_15055" d="M86.2,73a.215.215,0,0,0,.2.2c.1,0,.1-.2,0-.3a.215.215,0,0,0-.2-.2C86.1,72.7,86.1,72.9,86.2,73Z" fill="#1b2e36"/>
                <path id="Path_15056" d="M88.4,72.1h0a.446.446,0,0,0-.5,0h0c.1,0,.3-.1.5,0Z" fill="#1b2e36"/>
                <path id="Path_15057" d="M87.9,72.7c0,.1,0,.2.1.2s.2,0,.2-.2,0-.2-.1-.2S87.9,72.5,87.9,72.7Z" fill="#1b2e36"/>
                <path id="Path_15058" d="M86.6,74.6a4.3,4.3,0,0,0,1.6,0S87.5,76,86.6,74.6Z" fill="#fff"/>
              </g>
              <path id="Path_15059" d="M83.2,77.7l.5-.9a4.468,4.468,0,0,0,2.8,0,1.612,1.612,0,0,1,.4.7c0,.1,1,1.4-.3,1.8-.5.2-.9-.6-.9-.6a.961.961,0,0,1-.9.7,1.58,1.58,0,0,1-1.6-1.6h0Z" fill="#05293c"/>
              <path id="Path_15060" d="M86.8,94.9s.4,7,.4,6.9A17.778,17.778,0,0,1,86.8,94.9Z" fill="#05293c"/>
              <g id="Hand">
                <path id="Path_15061" d="M91.2,77.5A3.738,3.738,0,0,1,92.5,76,10.886,10.886,0,0,1,95,75c0,.1.1.2.1.4s-.3.4-.6.6a2.913,2.913,0,0,0,.8-.2v.4a1.205,1.205,0,0,1-.5.5,2.034,2.034,0,0,0,.5-.1v.5a2.177,2.177,0,0,1-.8.5h.7v.5c-.2.4-1.4.9-1.4.9a2.855,2.855,0,0,1-.8,2.3,19.581,19.581,0,0,1-2.1-1.8,4.711,4.711,0,0,1,.4-1.7h0Z" fill="#ffd2b3"/>
                <path id="Path_15062" d="M93.2,76.5h.2a1.689,1.689,0,0,0,.5-.2,2.117,2.117,0,0,0,.7-.3,1.854,1.854,0,0,0-.7.2c-.2,0-.3.1-.5.2a.349.349,0,0,0-.2.1h0Z" fill="url(#linear-gradient-14)"/>
                <path id="Path_15063" d="M93.5,77.2h.2l.5-.2c.2,0,.4-.2.6-.3a1.854,1.854,0,0,0-.7.2.52.52,0,0,0-.4.2.349.349,0,0,0-.2.1h0Z" fill="url(#linear-gradient-15)"/>
                <path id="Path_15064" d="M93.9,77.9a1.33,1.33,0,0,0,.8-.3A1.33,1.33,0,0,0,93.9,77.9Z" fill="url(#linear-gradient-16)"/>
              </g>
              <path id="Path_15065" d="M79.1,78.4s-2.7,3.9-3,5.4c-.6,2.7.9,9.3,4.7,9.9,2.6.4,13.3-13,13.3-13l-3.3-2.1-9.5,8.1.6-9-2.6.6h0Z" fill="#fad02c"/>
              <path id="Path_15066" d="M81.2,86.7c-.2.3-1.1,2.2-.6,2.6S81.2,86.7,81.2,86.7Z" fill="#05293c"/>
            </g>
            <g id="bag">
              <path id="Path_15067" d="M76.3,134.7h-2a2.775,2.775,0,0,0-2.8,2.7h0v3.8a.9.9,0,0,0,.9.9h0v-5c0-.6.4-1.2.7-1.2h4.3c.4,0,.7.6.7,1.2v5h0a.9.9,0,0,0,.9-.9h0v-3.8a2.775,2.775,0,0,0-2.7-2.8h0Z" fill="#1b2e36"/>
              <path id="Path_15068" d="M86.3,139.2v4.4l-22.1-.2V139a2.165,2.165,0,0,1,2-2.1l18.2.2a2.011,2.011,0,0,1,1.9,2.1h0Z" fill="#395b64"/>
              <path id="Path_15069" d="M86.2,143.5v6.4a2.006,2.006,0,0,1-2,2L66,151.7a2.011,2.011,0,0,1-1.9-2.1v-6.4l22,.2h0Z" fill="#395b64"/>
              <path id="Path_15070" d="M86.2,144.6l-22-.5v-1l22,.3v1.1Z" fill="#2a454d"/>
              <path id="Path_15071" d="M74.9,145h.7a.9.9,0,0,0,.9-.9h0v-1.2a.265.265,0,0,0-.3-.3h0v1.7c0,.2-.1.4-.2.4H74.6c-.1,0-.2-.2-.2-.4v-1.7h0a.265.265,0,0,0-.3.3h0v1.2a.9.9,0,0,0,.9.9h0Z" fill="#1b2e36"/>
            </g>
          </g>
          <g id="board">
            <path id="Path_15072" d="M157.2,103.3a.43.43,0,0,1-.4-.4v-2.8a.4.4,0,1,1,.8,0v2.8A.43.43,0,0,1,157.2,103.3Z" fill="url(#linear-gradient-17)"/>
            <path id="Path_15073" d="M161.7,101.3V103a.43.43,0,0,1-.4.4.494.494,0,0,1-.3-.1c-.2,0-.4.2-.6.2a1.2,1.2,0,0,1,0-2.4h0a.735.735,0,0,1,.6.2,1.007,1.007,0,0,1,.3-.1.43.43,0,0,1,.4.4h0Zm-.8.8a.5.5,0,1,0-.5.5.472.472,0,0,0,.5-.5Z" fill="url(#linear-gradient-18)"/>
            <path id="Path_15074" d="M165.5,101.9v1a.4.4,0,1,1-.8,0v-1a.3.3,0,0,0-.6,0v1a.4.4,0,1,1-.8,0v-1a.3.3,0,0,0-.6,0v1a.4.4,0,1,1-.8,0h0v-1.6a.43.43,0,0,1,.4-.4h.2a4.332,4.332,0,0,1,.5-.1,1.051,1.051,0,0,0,1.3,0,1,1,0,0,1,1,1h0Z" fill="url(#linear-gradient-19)"/>
            <path id="Path_15075" d="M160.1,108.4a.354.354,0,0,1-.5.5h-.1c-.3,0-.6.1-.9.1a1.8,1.8,0,1,1,1.8-1.8,1.5,1.5,0,0,1-.4,1.1h.1v.1Zm-1.1-.2h0a.637.637,0,0,1,0-.6.446.446,0,0,1,.5,0h.1a1.034,1.034,0,0,0,.1-.4,1,1,0,1,0-1,1h.3Z" fill="url(#linear-gradient-20)"/>
            <path id="Path_15076" d="M161.7,109a1,1,0,0,1-1-1h0v-1a.43.43,0,0,1,.4-.4h0a.43.43,0,0,1,.4.4h0v1a.3.3,0,0,0,.6,0h0v-1a.4.4,0,1,1,.8,0v1a1,1,0,0,1-1,1h-.2Z" fill="url(#linear-gradient-21)"/>
            <path id="Path_15077" d="M163.5,109a.43.43,0,0,1-.4-.4V107a.4.4,0,1,1,.8,0v1.6A.43.43,0,0,1,163.5,109Zm.3-2.9a.3.3,0,1,1-.3-.3.265.265,0,0,1,.3.3Z" fill="url(#linear-gradient-22)"/>
            <path id="Path_15078" d="M165.6,108.6a.43.43,0,0,1-.4.4h0a.987.987,0,0,1-1-.9h0v-1.8a.4.4,0,1,1,.8,0v.4h.3a.265.265,0,0,1,.3.3h0a.265.265,0,0,1-.3.3H165v.7c0,.1,0,.2.2.2h0a.43.43,0,0,1,.4.4Z" fill="url(#linear-gradient-23)"/>
          </g>
        </g>
      </g>
    </g>
  </g>
</svg>
