<svg id="no_chat_found" xmlns="http://www.w3.org/2000/svg" xmlns:xlink="http://www.w3.org/1999/xlink" width="255" height="255" viewBox="0 0 255 255">
  <defs>
    <clipPath id="clip-path">
      <rect id="Rectangle_12" data-name="Rectangle 12" width="255" height="255" fill="none"/>
    </clipPath>
    <linearGradient id="linear-gradient" x1="-7.111" y1="9.131" x2="-7.111" y2="9.113" gradientUnits="objectBoundingBox">
      <stop offset="0" stop-color="#f4f5f9"/>
      <stop offset="1" stop-color="#d2d4e0"/>
    </linearGradient>
  </defs>
  <g id="Group_11" data-name="Group 11" clip-path="url(#clip-path)">
    <g id="no_chat_found-2">
      <g id="no_chat_found-3">
        <path id="back-2" d="M254.9,127.4h0a126.451,126.451,0,0,1-7.2,42.2c-.4,1.1-.8,2.3-1.2,3.4a124.726,124.726,0,0,1-14.7,27.4h-.1a1.007,1.007,0,0,1-.1.3h0a126.621,126.621,0,0,1-103.3,53.4h0A126.646,126.646,0,0,1,1.6,127.5h0A126.6,126.6,0,0,1,128.2.7h0A126.667,126.667,0,0,1,254.9,127.4h0Z" fill="#fad02c" opacity="0.1"/>
        <g id="illustrator">
          <g id="line_design">
            <path id="Path_14585" d="M66.1,161.4a33.535,33.535,0,0,1-17.2-4.8A31.028,31.028,0,0,1,37,141.3c-.1-.4-.3-.7-.4-1.1a14.658,14.658,0,0,1-4-1.4c-.8-.4-1.6-.9-2.4-1.4a15.386,15.386,0,0,1-6.1-11c-1.1-9.2,3.9-20.5,9.4-26.9C40,91.9,48.3,86.8,58.9,83.8c10.4-2.9,21.5-3.3,30.1-3.4,22.4,0,42.6-.6,63.1-6.5A143.073,143.073,0,0,0,205,45.8h.2c.1,0,0,.1,0,.2h0a144.4,144.4,0,0,1-53,28.2c-20.5,5.9-40.7,6.4-63.2,6.5-19.4,0-41.2,2.4-55.3,19-5.4,6.4-10.4,17.6-9.4,26.7a14.723,14.723,0,0,0,6,10.8,13.77,13.77,0,0,0,2.4,1.4,17.062,17.062,0,0,0,3.8,1.3,35.479,35.479,0,0,1-1.1-18c1.6-7.3,6.5-13.6,12.7-16.3,7.3-3.2,18.1-1.2,22,6.7,2.9,5.8-.7,11.8-3.1,14.8-6,7.6-19,15.3-30,13.2,2.3,6.8,6.6,12.7,12.1,16.2a33.247,33.247,0,0,0,18.1,4.8h0a.1.1,0,0,1,.1.1c0,.1,0,.1-.1.1H66.1ZM36.8,140c11,2.2,23.9-5.6,29.9-13.1,2.4-3,5.9-8.8,3.1-14.5-3.9-7.8-14.5-9.8-21.6-6.6-6.1,2.7-10.9,8.9-12.5,16.2a33.409,33.409,0,0,0,1.1,18Z" fill="#011721"/>
          </g>
          <g id="message">
            <path id="Path_14586" d="M215,108.7H167.7a2.724,2.724,0,0,0-2.1.9l-5.7,6.2a2.845,2.845,0,0,1-4,.2,2.723,2.723,0,0,1-.9-2.1v-2.3a2.818,2.818,0,0,0-2.8-2.9h-.5a5.164,5.164,0,0,1-5.2-5.2V58.3a5.164,5.164,0,0,1,5.2-5.2h63.4a5.164,5.164,0,0,1,5.2,5.2h0v45.2a5.164,5.164,0,0,1-5.2,5.2H215Z" fill="url(#linear-gradient)"/>
            <path id="Path_16292" d="M213.5,59.3a2.355,2.355,0,0,0-2.1.8,2.355,2.355,0,0,0-2.1-.8,2.292,2.292,0,0,0-1.5,2.4c.1,1.1.9,2.6,3.5,3.6,2.6-1,3.4-2.5,3.5-3.6a2.122,2.122,0,0,0-1.5-2.4Z" fill="#fad02c"/>
            <g id="not_found">
              <circle id="Ellipse_236" cx="9.4" cy="9.4" r="9.4" transform="translate(174.4 71.7)" fill="#fa6e53" opacity="0.2"/>
              <path id="Path_14628" d="M186.1,85.9,179,78.8a1.751,1.751,0,0,1,0-2.5h0a1.751,1.751,0,0,1,2.5,0l7.1,7.1a1.751,1.751,0,0,1,0,2.5h0A1.751,1.751,0,0,1,186.1,85.9Z" fill="#fff"/>
              <path id="Path_14629" d="M188.6,78.8l-7.1,7.1a1.751,1.751,0,0,1-2.5,0h0a1.751,1.751,0,0,1,0-2.5l7.1-7.1a1.751,1.751,0,0,1,2.5,0h0A1.751,1.751,0,0,1,188.6,78.8Z" fill="#fff"/>
              <path id="Path_14630" d="M173.6,61.9A22.171,22.171,0,0,0,169.3,98l2.8-2.7A18.293,18.293,0,0,1,196,67.6a15.84,15.84,0,0,1,2.2,2.3l2.8-2.7a22.2,22.2,0,0,0-27.4-5.3h0Z"/>
              <path id="Path_25461" d="M173.6,61.9A22.171,22.171,0,0,0,169.3,98l2.8-2.7A18.293,18.293,0,0,1,196,67.6a15.84,15.84,0,0,1,2.2,2.3l2.8-2.7a22.2,22.2,0,0,0-27.4-5.3h0Z" fill="#fad02c" opacity="0.7"/>
              <path id="Path_14631" d="M200.7,72.5a18.991,18.991,0,1,0-7.8,25.7h0A18.876,18.876,0,0,0,200.7,72.5Zm-8.1,25.1a18.341,18.341,0,1,1,7.6-24.8h0a18.278,18.278,0,0,1-7.6,24.8Z" fill="#fad02c"/>
              <circle id="Ellipse_237" cx="18.3" cy="18.3" r="18.3" transform="translate(165.7 63.2)" fill="#fa6e53" opacity="0.1"/>
            </g>
          </g>
          <g id="message_box">
            <path id="Path_14587" d="M110.6,109.9A27.786,27.786,0,1,0,79,140.2a2.965,2.965,0,0,1,2.2,1.4l2.3,3.4a3.194,3.194,0,0,0,4.3.9,2.586,2.586,0,0,0,1.1-1.4l1.6-3.8a3.087,3.087,0,0,1,1.9-1.8,27.792,27.792,0,0,0,18.3-29Z" fill="#fa6e53" opacity="0.1"/>
            <circle id="Ellipse_232" cx="3.2" cy="3.2" r="3.2" transform="translate(70.8 110.2)" fill="#fa6e53"/>
            <circle id="Ellipse_233" cx="3.2" cy="3.2" r="3.2" transform="translate(79.1 109.7)" fill="#fa6e53"/>
            <circle id="Ellipse_234" cx="3.2" cy="3.2" r="3.2" transform="translate(87.3 109.2)" fill="#fa6e53"/>
          </g>
          <g id="peoples">
            <path id="Path_14589" d="M249.9,200.4H.8a.792.792,0,0,1-.8-.5.792.792,0,0,1,.5-.8H249.8a.667.667,0,1,1,.3,1.3h-.2Z" fill="#011721"/>
            <g id="mobile">
              <path id="Path_14590" d="M96.2,121.5l2.5.2v12.2l-2.7.4.2-12.7Z" fill="#011721"/>
              <path id="Path_14591" d="M98.3,122.2l-1.8-.2v11.7c-.1,0,1.7-.2,1.7-.2V122.2Z" fill="#fff"/>
            </g>
            <g id="mobile-2">
              <path id="Path_14592" d="M188.7,123.3h-2.5c0-.1-1.2,12-1.2,12l2.5.7Z" fill="#011721"/>
              <path id="Path_14593" d="M186.5,123.6h1.8l-1.1,11.6-1.8-.4,1.1-11.3Z" fill="#fff"/>
            </g>
            <g id="guys">
              <g id="Girl">
                <path id="Path_14601" d="M99.6,184.1,20.1,194.9a2.021,2.021,0,0,0-1.7,2.3,1.96,1.96,0,0,0,2,1.7l97.9,1.4,9.4-3.8-28-12.4Z" fill="#011721"/>
                <path id="Path_14602" d="M27.5,194l-7.4,1a2.021,2.021,0,0,0-1.7,2.3,1.96,1.96,0,0,0,2,1.7h9.7c0,.1-2.5-5-2.5-5h0Z" fill="#ffd2b3"/>
                <path id="Path_14603" d="M99.6,184.1l-72.1,9.8,1,2.1,77.8-5.6,4.5-1.5L99.7,184Z" fill="#05293c"/>
                <path id="Path_14604" d="M138.3,129.5a7.277,7.277,0,0,1-7.3,7.3c-4.1,0-1.2-2.5-2.4-3.3-1.9-1.3-4.9-1.5-4.9-4a7.3,7.3,0,1,1,14.6,0Z" fill="#011721"/>
                <circle id="Ellipse_235" cx="3.1" cy="3.1" r="3.1" transform="translate(132.1 119.2)" fill="#011721"/>
                <path id="Path_14605" d="M128.3,136.8v-1.3h-3.2l-2.7-3.4,3.4-3.8s.3,4.2,3.5,4.3l1.5-2.1s2.1,1.6,0,3.1a2.885,2.885,0,0,0,.5,3.4l-1.7.9-1.3-1.1Z" fill="#ffd2b3"/>
                <path id="Path_14606" d="M123.6,200.9c9.5-1.6,11.5-13.8,11.8-17.5-3,4.1-18.7-10-18.7-10-15.2-14-24.2-20.3-24.2-20.3-12.5,14.2-26.4,35.8-33,46.6A1.725,1.725,0,0,0,60,202a1.672,1.672,0,0,0,1.8,0C76.1,191.5,93,175.2,93,175.2l12.4,17.1c8.1,9.8,18.1,8.8,18.1,8.8Z" fill="#05293c"/>
                <path id="Path_14607" d="M135.4,142.7c-.6-6-6.6-7.9-11.4-4.4l-17.4,11L95.8,127.7a1.15,1.15,0,0,0-1.4-.5.967.967,0,0,0-.5,1.2l9,32.7,14.2-6.3-.2,18.5s15.7,14.1,18.7,10V151.4c0-1,0-8-.1-8.9h0Z" fill="#fad02c"/>
                <path id="Path_14608" d="M116.9,154.9l10.7-4-8.2,24.8-2.6-2.2L117,155Z"/>
                <path id="Path_25457" d="M116.9,154.9l10.7-4-8.2,24.8-2.6-2.2L117,155Z" fill="#fad02c" opacity="0.8"/>
                <path id="Path_14609" d="M64.2,192.2c-1.8,2.8-3.4,5.4-4.7,7.5A1.725,1.725,0,0,0,60,202a1.672,1.672,0,0,0,1.8,0c1.9-1.4,3.8-2.8,5.6-4.3l-3.3-5.3h0Z" fill="#ffd2b3"/>
                <path id="Path_14610" d="M98.7,133.7l-3-6a1.15,1.15,0,0,0-1.4-.5.967.967,0,0,0-.5,1.2l1.3,4.6,3.7.6Z" fill="#ffd2b3"/>
                <path id="Path_14611" d="M123.6,200.9c4.6-.8,7.4-4.1,9.2-7.6,0,0-11.8,4.3-25.3-12.2L93.2,166.3,67.6,197.6c12.8-10.1,25.6-22.4,25.6-22.4l12.4,17.1c8.1,9.8,18.1,8.8,18.1,8.8h0Z" fill="#011721"/>
              </g>
              <g id="man">
                <path id="Path_14594" d="M148.7,132.1l44-31.5a1.057,1.057,0,0,1,1.6.3,1.36,1.36,0,0,1,0,1.5l-35.5,38-8.8-.8-1.3-7.5Z" fill="#fad02c"/>
                <path id="Path_14595" d="M188.3,103.8h0l-39.6,28.3.4,2.6,4.1-2.4,35-28.5Z"/>
                <path id="Path_25458" d="M188.3,103.8h0l-39.6,28.3.4,2.6,4.1-2.4,35-28.5Z" fill="#fad02c" opacity="0.8"/>
                <path id="Path_14596" d="M151.6,121.4l-.3-7a85.245,85.245,0,0,0-9.6,4.7,5.165,5.165,0,0,0-2.6,5.6c.4,1.8,1.7,4,4.8,6.1l2,2.2,1.4-3.5,3.6-3.8.7-4.4Z" fill="#011721"/>
                <path id="Path_14597" d="M148.7,130.8l-.2-1.5,3.8-.5,2.7-4.5-4.7-4s.3,5.1-3.4,5.6l-2.1-2.2s-2.2,2.3.5,3.7a3.45,3.45,0,0,1,0,4.1l2.1.8,1.4-1.5h-.1Z" fill="#ffd2b3"/>
                <path id="Path_14598" d="M173.9,185.3,189,172.4,227.5,198a1.717,1.717,0,0,0,2.5-.5,1.8,1.8,0,0,0-.1-2.2c-9.6-11.2-25.8-29.2-37.6-38.6l-18.4,10.7v17.8h0Z" fill="#011721"/>
                <path id="Path_14599" d="M192.3,156.8l-9.1,5.3,3.6,1.1,5-2.6,30.8,31.6,5.1.6c-9.7-11.2-24.4-27.4-35.4-36h0Z" fill="#05293c"/>
                <path id="Path_14600" d="M227.5,198.1a1.717,1.717,0,0,0,2.5-.5,1.8,1.8,0,0,0-.1-2.2c-1.2-1.4-2.6-3-4-4.7l-3.2,1.5-2.1,1.2,7,4.7h0Z" fill="#ffd2b3"/>
                <path id="Path_14612" d="M218.1,198.4c-8-12.2-22.1-30.5-36.4-43.2a133.88,133.88,0,0,0-21.8,15.4s-10.8,12.4-24.5,12.8v.5s2.5,17.9,17.4,17a18.9,18.9,0,0,0,5.2-1.3,29.081,29.081,0,0,0,12.9-9.5l11.9-15.3L215,201a2,2,0,0,0,2.9-2.7h0Z" fill="#05293c"/>
                <path id="Path_14613" d="M160,170.6l-1.6-21,11.4,9.3a4.451,4.451,0,0,0,6.3-.6l.6-.9,12.9-26.5a.955.955,0,0,0-.4-1.3,1.063,1.063,0,0,0-1.2.2l-16,19.1-13-13.4a14.973,14.973,0,0,0-4.2-3.3c-7.4-4.1-15.9-1.4-18.5,6.8a23.276,23.276,0,0,0-.8,3.8v40.7c13.7-.4,24.5-12.8,24.5-12.8h0Z"/>
                <path id="Path_25460" d="M160,170.6l-1.6-21,11.4,9.3a4.451,4.451,0,0,0,6.3-.6l.6-.9,12.9-26.5a.955.955,0,0,0-.4-1.3,1.063,1.063,0,0,0-1.2.2l-16,19.1-13-13.4a14.973,14.973,0,0,0-4.2-3.3c-7.4-4.1-15.9-1.4-18.5,6.8a23.276,23.276,0,0,0-.8,3.8v40.7c13.7-.4,24.5-12.8,24.5-12.8h0Z" fill="#fad02c" opacity="0.8"/>
                <path id="Path_14614" d="M209.4,196.3l5.8,4.7a2,2,0,0,0,2.9-2.7c-1-1.6-2.2-3.2-3.4-5l-5.4,2.9h0Z" fill="#ffd2b3"/>
                <path id="Path_14615" d="M160,170.6l-1.6-21-6.5-5s-1.7,28.2-16.3,38.8c13.7-.4,24.5-12.8,24.5-12.8h0Z"/>
                <path id="Path_25459" d="M160,170.6l-1.6-21-6.5-5s-1.7,28.2-16.3,38.8c13.7-.4,24.5-12.8,24.5-12.8h0Z" fill="#fad02c"/>
                <path id="Path_14616" d="M152.9,200.9a18.9,18.9,0,0,0,5.2-1.3,29.081,29.081,0,0,0,12.9-9.5l11.9-15.3,26.5,21.5-27.1-31-22.4,20.3c-16.9,11-24.5-2.3-24.5-2.3v.5s2.5,17.9,17.4,17h0Z" fill="#011721"/>
                <path id="Path_14617" d="M192.6,100.7l-3.7,2.7,1.2,3.4,4.1-4.3a1.354,1.354,0,0,0,0-1.7,1.086,1.086,0,0,0-1.5,0h0Z" fill="#ffd2b3"/>
                <path id="Path_14618" d="M188,129.7l-3.4,4,2.4,2.4,2.6-5.3a.955.955,0,0,0-.4-1.3,1.063,1.063,0,0,0-1.2.2Z" fill="#ffd2b3"/>
              </g>
            </g>
          </g>
          <g id="lines">
            <path id="Path_14625" d="M230.4,112.5h-32a.1.1,0,0,1-.1-.1c0-.1,0-.1.1-.1h32a.1.1,0,0,1,.1.1C230.5,112.5,230.5,112.5,230.4,112.5Z" fill="#011721"/>
            <path id="Path_14626" d="M230.4,189h0l-22.5-22.6v-.2h.2l22.5,22.6v.2h-.2Z" fill="#011721"/>
            <path id="Path_14627" d="M66.4,198.5a.1.1,0,0,1-.1-.1h0l22.4-19.3h.2v.2L66.5,198.6h0Z" fill="#fff"/>
          </g>
          <g id="close">
            <path id="Path_14619" d="M105.7,66.4a11.75,11.75,0,1,0,0-.1Zm0-22.8a11.1,11.1,0,1,0,11.1,11.1A11.139,11.139,0,0,0,105.7,43.6Z"/>
            <path id="Union_1" d="M108,59.4l-2.3-2.3-2.3,2.3a1.768,1.768,0,0,1-2.5-2.5l2.3-2.3-2.3-2.3a1.768,1.768,0,0,1,2.5-2.5h0l2.3,2.3,2.3-2.3a1.768,1.768,0,0,1,2.5,2.5l-2.3,2.3,2.3,2.3a1.846,1.846,0,0,1,0,2.5,1.825,1.825,0,0,1-2.4,0Z" fill="#fad02c" opacity="0.3"/>
          </g>
        </g>
      </g>
    </g>
  </g>
</svg>
