<svg id="no_data_found_illustrator" xmlns="http://www.w3.org/2000/svg" xmlns:xlink="http://www.w3.org/1999/xlink" width="255" height="255" viewBox="0 0 255 255">
  <defs>
    <clipPath id="clip-path">
      <rect id="Rectangle_13" data-name="Rectangle 13" width="255" height="255" fill="none"/>
    </clipPath>
  </defs>
  <g id="Group_12" data-name="Group 12" clip-path="url(#clip-path)">
    <g id="no_data_found_illustrator-2">
      <g id="no_data_found">
        <path id="Path_15401" d="M254.9,127.4h0a127.61,127.61,0,0,1-7.2,42.4c-.4,1.1-.8,2.3-1.2,3.4-1,2.6-2.1,5.1-3.2,7.6-1.3,2.8-2.7,5.5-4.2,8.2a111.033,111.033,0,0,1-7.4,11.8v.2c-.1,0-.2.2-.2.2h0l-.1.1c-.2.3-.4.5-.6.8a135.639,135.639,0,0,1-13.5,15.8l-.8.8h0a126.519,126.519,0,0,1-88.9,36.2h0a127.04,127.04,0,0,1-82.8-30.6c-2.1-1.8-4.1-3.7-6.1-5.6h0l-.8-.8a135.637,135.637,0,0,1-13.5-15.8c-.1-.2-.3-.4-.4-.6h-.1A126.3,126.3,0,0,1,.1,127.4h0A127.414,127.414,0,0,1,127.5,0h0A127.414,127.414,0,0,1,254.9,127.4Z" fill="#fad02c" opacity="0.1"/>
        <g id="illustrator">
          <path id="Path_15403" d="M197.4,209.1c2.2,0,18.4-8.7,23.3-12.5,14.5-11.2,23.5-27.4,23.5-45.9,0-23.2-12-47.6-36-53.9-8.3-2.2-16.1,3.7-23.9,5.4-4.7,1.1-10,1.1-14.2-1.3-3.6-2-6.2-6.1-5.7-10.1.5-4.1,3.9-7.4,7.7-9.2s7.9-2.5,11.9-3.8c5.2-1.7,10.1-5.1,11.1-10.8a34.325,34.325,0,0,0-3-20.2c-11.6-23.3-40.7-21.3-62.3-17.1-9.8,1.9-18.7,8.2-25.9,15a62.393,62.393,0,0,0-18.7,55.9c.9,5.4,3.2,10.6,0,15.8-5.1,8.1-15.9,11-25,10.6A38.742,38.742,0,0,0,28,142c-8.4,11.1-7.9,24.3-2.6,36.6.1.3.3.6.4.9a91.67,91.67,0,0,0,8.1,13.9c1.9,2.6,3.8,5.2,5.9,7.7,1.1,1.3,5.7,8.2,7.2,8.2H197.3Z" fill="#fad02c" opacity="0.2"/>
          <path id="Path_15404" d="M250.1,209.1H15.7s-.2,0-.2-.1,0-.2.1-.2H249.9s.2,0,.2.1,0,.2-.1.2h.1Z" fill="#011721"/>
          <g id="person">
            <path id="Path_15405" d="M242.6,48.9a1.507,1.507,0,0,0-.8-2,1.7,1.7,0,0,0-1.8.4C225.9,64.6,212.7,76,202.7,78.8a1.284,1.284,0,0,1-1.6-.9v-.5l.3-2.3a1.353,1.353,0,0,0-.6-1.7l-.9,1.2c-1.9.3-3.4-2.6-3.4-2.6l-2.1,3.5,1.8,2.2,1.4.2a.652.652,0,1,1-.1,1.3h0a24.579,24.579,0,0,1-8.2-3,58.434,58.434,0,0,1-7.4-4.8c-2-7.2-4-17.9-6.2-24.9a1.391,1.391,0,0,0-1.7-.9,1.187,1.187,0,0,0-.9,1.3c.6,16.9,1.5,25.4,2,28.2a4.372,4.372,0,0,0,1.3,2.4c5.2,4.6,7,6.8,10.4,9.3a9.863,9.863,0,0,1,4,6.9l2.3,22s5.1,7.7,24.1-.5c-.2-1.2-.3-1.9-.3-1.9-1.7-7.9-2.4-18.8-2.7-23.9a5.157,5.157,0,0,1,1.7-4.1,115.485,115.485,0,0,0,26.9-36.4h-.2Z" fill="#fad02c"/>
            <path id="Path_16627" d="M174.7,53.3s-.7-.6-1.4-1.1c.6,13.2,1.4,20.5,1.8,23a4.372,4.372,0,0,0,1.3,2.4c5.2,4.6,7,6.8,10.4,9.3l-9.2-11a5.988,5.988,0,0,1-1.8-4.2l-1-18.3h0Z"/>
            <path id="Path_15406" d="M174.7,53.3s-.7-.6-1.4-1.1c.6,13.2,1.4,20.5,1.8,23a4.372,4.372,0,0,0,1.3,2.4c5.2,4.6,7,6.8,10.4,9.3l-9.2-11a5.988,5.988,0,0,1-1.8-4.2l-1-18.3h0Z" fill="#fad02c" opacity="0.8"/>
            <path id="Path_15407" d="M196,72.9l-1-3.1s6.2-.7,9.1.3c0,0,1.4,4.5-2.8,9l-.3,1.1-1.2-1.3-3.1-3.7-.7-2.3Z" fill="#011721"/>
            <path id="Path_15408" d="M201.1,77.4l.3-2.3a1.353,1.353,0,0,0-.6-1.7l-.9,1.2c-1.9.3-3.4-2.6-3.4-2.6l-2.1,3.5,1.8,2.2,1.4.2a.652.652,0,1,1-.1,1.3h0c0,1.8,2.2,3.3,2.2,3.3a9.831,9.831,0,0,0,3-3.7,1.284,1.284,0,0,1-1.6-.9v-.5h0Z" fill="#ffd2b3"/>
            <path id="Path_15409" d="M193.1,115.8A126.077,126.077,0,0,0,182.5,133a67.367,67.367,0,0,0-5.7,14.9c2.5,10.4,10.8,35,16.5,47.7a2.048,2.048,0,0,0,3.9-1c-1.3-19.4-4.3-46.1-4.3-46.1,3.9-5.1,10.8-16.4,10.8-16.4-.4,7.5,8.6,53.6,12.1,75.2a2.066,2.066,0,0,0,2.4,1.7,1.915,1.915,0,0,0,1.7-1.7c6-35.1-1.2-82.2-2.8-92.1-19,8.2-24.1.5-24.1.5h0Z" fill="#05293c"/>
            <path id="Path_15410" d="M240.1,47.3c-1.2,1.4-2.3,2.8-3.4,4.1a3.185,3.185,0,0,0,3.5,2.6c1-1.8,1.8-3.6,2.5-5.1a1.507,1.507,0,0,0-.8-2,1.7,1.7,0,0,0-1.8.4Z" fill="#ffd2b3"/>
            <path id="Path_15411" d="M214.9,201.6q.45,3.15.9,5.7a2.066,2.066,0,0,0,2.4,1.7,1.915,1.915,0,0,0,1.7-1.7,61.666,61.666,0,0,0,.9-6.2,5.143,5.143,0,0,1-5.9.5h0Z" fill="#ffd2b3"/>
            <path id="Path_15412" d="M194.1,195.2l.2-4.4-17.5-42.9c2.5,10.2,10.5,34.4,16.3,47.2h1Z" fill="#011721"/>
            <path id="Path_15413" d="M197.3,194.6c-.1-2-.3-4-.5-6a4.731,4.731,0,0,1-5.6,2.2q1.2,2.55,2.1,4.8a2.048,2.048,0,0,0,3.9-1Z" fill="#d39266"/>
            <path id="Path_15414" d="M192.9,147.7v.8c4-5.1,10.8-16.4,10.8-16.4-.3,6.9,7.4,46.1,11.2,69.5h0L204.3,125l-11.4,22.7h0Z" fill="#011721"/>
            <path id="Path_15415" d="M240.2,54s-.4-1.7-1.6-.1c-4.3,5.8-15.9,22.9-24.2,29.1a12.507,12.507,0,0,0-4.9,9.3,84.247,84.247,0,0,0,2.3,25h0c1.6-.5,3.4-1.2,5.4-2-.2-1.2-.3-1.9-.3-1.9a162.782,162.782,0,0,1-2.7-23.9,5.157,5.157,0,0,1,1.7-4.1,115.973,115.973,0,0,0,24.4-31.3Z"/>
            <path id="Path_16626" d="M240.2,54s-.4-1.7-1.6-.1c-4.3,5.8-15.9,22.9-24.2,29.1a12.507,12.507,0,0,0-4.9,9.3,84.247,84.247,0,0,0,2.3,25h0c1.6-.5,3.4-1.2,5.4-2-.2-1.2-.3-1.9-.3-1.9a162.782,162.782,0,0,1-2.7-23.9,5.157,5.157,0,0,1,1.7-4.1,115.973,115.973,0,0,0,24.4-31.3Z" fill="#fad02c" opacity="0.8"/>
            <path id="Path_15416" d="M199.3,82.4S197,107,218.6,112.6l4-1.9-2.7-3.4s-19.4-5.2-20-24.8h-.5Z" fill="#fa6e53"/>
            <path id="Path_15417" d="M199.7,78.9a1.742,1.742,0,0,0-1.2-.8h-.9a.466.466,0,0,1,.5.6c-.1.4-.4.6-.7.5h0c0,1.8,2.2,3.3,2.2,3.3a6.886,6.886,0,0,0,1.3-1.1l-1.3-2.5h0Z" fill="#d39266"/>
            <path id="Path_15418" d="M197.5,78" fill="#d39266"/>
            <path id="Path_15419" d="M242.7,47.7l-4.1,6.2a2.856,2.856,0,0,0,1.6.1c1-1.8,1.8-3.6,2.5-5.1A1.275,1.275,0,0,0,242.7,47.7Z" fill="#d39266"/>
            <path id="Path_15420" d="M194.3,190.8h0l2.7,5a2.663,2.663,0,0,0,.3-1.2c-.1-2-.3-4-.5-6a4.027,4.027,0,0,1-2.5,2.1h0Z" fill="#ffd2b3"/>
            <path id="Path_15421" d="M217.5,202.4a5.94,5.94,0,0,1-2.6-.7q.45,3.15.9,5.7a1.863,1.863,0,0,0,1.9,1.7l-.3-6.7Z" fill="#d39266"/>
            <path id="Path_15422" d="M177.4,52.5c-.6-2.1-1.1-4.2-1.7-6.1a1.262,1.262,0,0,0-1.7-.8,1.291,1.291,0,0,0-.9,1.3c0,2.2.2,4.3.3,6.2,0,0,3.1.9,4.1-.6h-.1Z" fill="#ffd2b3"/>
            <path id="Path_15423" d="M173.8,45.7c-.8.4-.7,1-.7,1.6,0,2.1.2,4,.2,5.8a5.9,5.9,0,0,0,1.4.2l-.9-7.7h0Z" fill="#d39266"/>
          </g>
          <g id="search_files">
            <g id="file">
              <path id="Path_15424" d="M167.1,198.9l6-62.9h-76v73.1h62.7c6.7,0,7-6.5,7.4-10.2h0Z" fill="#fff"/>
              <path id="Path_16628" d="M167.1,198.9l6-62.9h-76v73.1h62.7c6.7,0,7-6.5,7.4-10.2h0Z" fill="#fad02c" opacity="0.7"/>
              <g id="error">
                <path id="Path_15425" d="M166.8,153.6l-35.7-2.4,3.3-50.1,29.5,2,5.7,7-2.9,43.5Z" fill="#fa6e53"/>
                <path id="Path_15426" d="M147.7,131.6v-1.3c.4-4.8,6.6-4.6,6.8-8.5.1-1.8-1.2-3.1-3.3-3.3-2.2-.1-3.7,1.1-3.8,2.9v.6a.472.472,0,0,1-.5.5h-.1l-3-.3a.56.56,0,0,1-.5-.6v-.5c.3-4.1,3.7-6.7,8.3-6.4s7.4,3.2,7.1,7.2c-.4,5.9-6.6,5.6-6.8,8.9v1.1a.56.56,0,0,1-.6.5h0l-3-.2a.472.472,0,0,1-.5-.5h0Zm-.8,5.6a2.689,2.689,0,0,1,2.9-2.4h0a2.55,2.55,0,0,1-.1,5.1h-.3a2.652,2.652,0,0,1-2.5-2.7h0Z" fill="#fff"/>
                <path id="Path_15427" d="M163.9,103.1l-.4,6.6,6.1.5-5.7-7Z" fill="#05293c"/>
                <path id="Path_15427-2" d="M163.9,103.1l-.4,6.6,6.1.5-5.7-7Z" fill="#fa6e53" opacity="0.8"/>
              </g>
              <path id="Path_15428" d="M159.7,209.1H43.4a8.585,8.585,0,0,1-8.6-7.7l-6.6-64.8a2.446,2.446,0,0,1,2.1-2.7H96.9a2.509,2.509,0,0,0,2.2-1.2l2.3-4a2.4,2.4,0,0,1,2.2-1.2h38.8a3.108,3.108,0,0,1,3,2.7l7,68.8c.4,3.7.7,10.2,7.4,10.2h0Z" fill="#fad02c"/>
              <path id="Path_15429" d="M146.7,143.9l-1.4-13.8a3.108,3.108,0,0,0-3-2.7H103.5a2.509,2.509,0,0,0-2.2,1.2l-2.3,4a2.4,2.4,0,0,1-2.2,1.2H30.7a2.519,2.519,0,0,0-2.5,2.4v.4L33,183.9c42.5-40.6,113.7-40,113.7-40Z" fill="#fff"/>
              <path id="Path_16629" d="M146.7,143.9l-1.4-13.8a3.108,3.108,0,0,0-3-2.7H103.5a2.509,2.509,0,0,0-2.2,1.2l-2.3,4a2.4,2.4,0,0,1-2.2,1.2H30.7a2.519,2.519,0,0,0-2.5,2.4v.4L33,183.9c42.5-40.6,113.7-40,113.7-40Z" fill="#fad02c" opacity="0.4"/>
              <path id="Path_15430" d="M43.4,209.1H159.7c-4.9,0-6.4-3.5-7-6.8H35A8.561,8.561,0,0,0,43.4,209.1Z" fill="#fff"/>
              <path id="Path_16630" d="M43.4,209.1H159.7c-4.9,0-6.4-3.5-7-6.8H35A8.561,8.561,0,0,0,43.4,209.1Z" fill="#fad02c" opacity="0.8"/>
              <path id="Path_15431" d="M107.7,208.6h0A5.693,5.693,0,0,0,110,201L81,146.6a1.489,1.489,0,0,0-2-.6l-.6.3-2.8-5.2a35.065,35.065,0,0,0,7.7-7.2h-52a.31.31,0,0,0,.1.2,1.439,1.439,0,0,0,.2.3,8.746,8.746,0,0,1,.8,1,.1.1,0,0,0,.1.1c.3.3.6.7.9,1h0a4.741,4.741,0,0,0,1,1h0l1,1h0a32.714,32.714,0,0,0,34.1,5.9l2.8,5.2-.6.3a1.489,1.489,0,0,0-.6,2h0l29,54.4a5.775,5.775,0,0,0,1.8,2c.2,0,.3.2.5.3a6.944,6.944,0,0,0,1.3.5h2.6a5.024,5.024,0,0,0,1.3-.5h0Z" opacity="0.5"/>
              <path id="Path_16631" d="M107.7,208.6h0A5.693,5.693,0,0,0,110,201L81,146.6a1.489,1.489,0,0,0-2-.6l-.6.3-2.8-5.2a35.065,35.065,0,0,0,7.7-7.2h-52a.31.31,0,0,0,.1.2,1.439,1.439,0,0,0,.2.3,8.746,8.746,0,0,1,.8,1,.1.1,0,0,0,.1.1c.3.3.6.7.9,1h0a4.741,4.741,0,0,0,1,1h0l1,1h0a32.714,32.714,0,0,0,34.1,5.9l2.8,5.2-.6.3a1.489,1.489,0,0,0-.6,2h0l29,54.4a5.775,5.775,0,0,0,1.8,2c.2,0,.3.2.5.3a6.944,6.944,0,0,0,1.3.5h2.6a5.024,5.024,0,0,0,1.3-.5h0Z" fill="#fad02c" opacity="0.7"/>
            </g>
            <g id="notfound">
              <circle id="Ellipse_256" cx="13.9" cy="13.9" r="13.9" transform="translate(50.4 96.8)" fill="#fff"/>
              <circle id="Ellipse_280" cx="13.9" cy="13.9" r="13.9" transform="translate(50.4 96.8)" fill="#fa6e53"/>
              <path id="Path_15432" d="M67.7,117.8,57.3,107.4a2.656,2.656,0,0,1,0-3.7h0a2.656,2.656,0,0,1,3.7,0l10.4,10.4a2.656,2.656,0,0,1,0,3.7h0a2.656,2.656,0,0,1-3.7,0Z" fill="#fff"/>
              <path id="Path_15433" d="M71.4,107.3,61,117.7a2.656,2.656,0,0,1-3.7,0h0a2.656,2.656,0,0,1,0-3.7l10.4-10.4a2.656,2.656,0,0,1,3.7,0h0a2.656,2.656,0,0,1,0,3.7Z" fill="#fff"/>
            </g>
            <g id="magnifire">
              <path id="Path_15434" d="M93.5,95.8a32.747,32.747,0,1,0-16.6,45.8l4.1,7.8,6-3.2-4.1-7.8A32.787,32.787,0,0,0,93.5,95.8ZM77.3,135.1A27.065,27.065,0,1,1,88.5,98.5h0A27.073,27.073,0,0,1,77.3,135.1Z" fill="#fad02c"/>
              <path id="Path_15435" d="M49.2,82.3a32.864,32.864,0,0,0-6.4,53.4l4.1-4a27.084,27.084,0,0,1,35.4-41,26.513,26.513,0,0,1,3.3,3.4l4.1-4a32.668,32.668,0,0,0-40.5-7.9h0Z"/>
              <path id="Path_16632" d="M49.2,82.3a32.864,32.864,0,0,0-6.4,53.4l4.1-4a27.084,27.084,0,0,1,35.4-41,26.513,26.513,0,0,1,3.3,3.4l4.1-4a32.668,32.668,0,0,0-40.5-7.9h0Z" fill="#fad02c" opacity="0.7"/>
              <path id="Path_15436" d="M115,205.9h0a5.721,5.721,0,0,1-7.6-2.3l-29-54.4a1.489,1.489,0,0,1,.6-2l7.2-3.9a1.489,1.489,0,0,1,2,.6l29,54.4a5.721,5.721,0,0,1-2.3,7.6h.1Z" fill="#011721"/>
              <path id="Path_15437" d="M79.1,147.1a1.489,1.489,0,0,0-.6,2l29,54.4a5.693,5.693,0,0,0,7.6,2.3L82.8,145.1,79.2,147Z" fill="#05293c"/>
              <path id="Path_15438" d="M89.4,98a28.094,28.094,0,1,0-11.6,38h0A28.084,28.084,0,0,0,89.4,98ZM77.3,135.1A27.065,27.065,0,1,1,88.5,98.5h0A27.073,27.073,0,0,1,77.3,135.1Z"/>
              <path id="Path_16633" d="M89.4,98a28.094,28.094,0,1,0-11.6,38h0A28.084,28.084,0,0,0,89.4,98ZM77.3,135.1A27.065,27.065,0,1,1,88.5,98.5h0A27.073,27.073,0,0,1,77.3,135.1Z" fill="#fad02c" opacity="0.7"/>
              <circle id="Ellipse_257" cx="27.1" cy="27.1" r="27.1" transform="translate(37.5 84.1)" fill="#fff" opacity="0.3"/>
              <path id="Path_15439" d="M51.4,86.4a28.084,28.084,0,0,0-11.6,38,28.948,28.948,0,0,0,6.4,8l.7-.7a27.084,27.084,0,0,1,35.4-41,26.513,26.513,0,0,1,3.3,3.4l.7-.7A28,28,0,0,0,51.4,86.4Z" fill="#fad02c" opacity="0.7"/>
            </g>
          </g>
          <g id="shocked">
            <rect id="line" width="0.6" height="4.6" transform="translate(189.57 64.762) rotate(-40.3)" fill="#011721"/>
            <rect id="line-2" width="0.6" height="4.4" transform="matrix(0.994, -0.113, 0.113, 0.994, 196.341, 61.053)" fill="#011721"/>
            <rect id="line-3" width="3.2" height="0.6" transform="translate(207.299 67.961) rotate(-28.3)" fill="#011721"/>
          </g>
        </g>
        <g id="lines">
          <path id="Path_15440" d="M27.6,110.2h0c1.3-9.3,4.5-17,9.5-23.1A39.089,39.089,0,0,1,52.5,75.9a50.726,50.726,0,0,1,20.7-3.8h0a49.957,49.957,0,0,0-20.6,3.8c-9.7,4-21.9,13.2-24.8,34.2h0Z" fill="#011721"/>
          <path id="Path_15441" d="M116,201.2h0L97.1,168.3v-.1h.1l18.9,32.9v.1h0Z" fill="#fff2e6"/>
          <path id="Path_15442" d="M168.2,160h0l.9-16.3h0l-.9,16.3Z" fill="#011721"/>
          <path id="Path_15443" d="M212.5,203.4h0l-9.2-50.9h0l9.2,50.9Z" fill="#011721"/>
        </g>
      </g>
    </g>
  </g>
</svg>
