<svg id="no_internet_illustrator" xmlns="http://www.w3.org/2000/svg" xmlns:xlink="http://www.w3.org/1999/xlink" width="255" height="255" viewBox="0 0 255 255">
  <defs>
    <clipPath id="clip-path">
      <rect id="Rectangle_27" data-name="Rectangle 27" width="255" height="255" fill="none"/>
    </clipPath>
    <clipPath id="clip-path-2">
      <rect id="Rectangle_14" data-name="Rectangle 14" width="23.8" height="5.8" transform="translate(143.1 136.1)" fill="none"/>
    </clipPath>
    <clipPath id="clip-path-3">
      <rect id="Rectangle_15" data-name="Rectangle 15" width="41.8" height="25.4" transform="translate(160.3 130.4)" fill="none"/>
    </clipPath>
    <clipPath id="clip-path-4">
      <rect id="Rectangle_16" data-name="Rectangle 16" width="9.8" height="2" transform="translate(209.9 148.2)" fill="none"/>
    </clipPath>
    <clipPath id="clip-path-5">
      <rect id="Rectangle_17" data-name="Rectangle 17" width="27" height="13.2" transform="translate(114 47.5)" fill="none"/>
    </clipPath>
    <clipPath id="clip-path-6">
      <rect id="Rectangle_18" data-name="Rectangle 18" width="46.3" height="18.7" transform="translate(104.4 36.3)" fill="none"/>
    </clipPath>
    <clipPath id="clip-path-7">
      <rect id="Rectangle_19" data-name="Rectangle 19" width="66.7" height="24.5" transform="translate(94.2 24.3)" fill="none"/>
    </clipPath>
    <clipPath id="clip-path-8">
      <rect id="Rectangle_20" data-name="Rectangle 20" width="10.8" height="10.8" transform="translate(122.1 58.5)" fill="none"/>
    </clipPath>
    <clipPath id="clip-path-9">
      <rect id="Rectangle_21" data-name="Rectangle 21" width="49.6" height="11.3" transform="translate(68.3 198.6)" fill="none"/>
    </clipPath>
    <clipPath id="clip-path-10">
      <rect id="Rectangle_22" data-name="Rectangle 22" width="20.7" height="41.3" transform="translate(85.6 153.3)" fill="none"/>
    </clipPath>
    <clipPath id="clip-path-11">
      <rect id="Rectangle_23" data-name="Rectangle 23" width="34.3" height="25.5" transform="translate(86.8 173.1)" fill="none"/>
    </clipPath>
    <clipPath id="clip-path-12">
      <rect id="Rectangle_24" data-name="Rectangle 24" width="24.4" height="14.8" transform="translate(72.8 183.8)" fill="none"/>
    </clipPath>
    <clipPath id="clip-path-13">
      <rect id="Rectangle_25" data-name="Rectangle 25" width="22.7" height="18.8" transform="translate(49.5 69)" fill="none"/>
    </clipPath>
    <clipPath id="clip-path-14">
      <rect id="Rectangle_26" data-name="Rectangle 26" width="41.8" height="50.4" transform="translate(44.2 78.3)" fill="none"/>
    </clipPath>
  </defs>
  <path id="Path_16623" d="M254.9,127.4h0a127.61,127.61,0,0,1-7.2,42.4c-.4,1.1-.8,2.3-1.2,3.4-1,2.6-2.1,5.1-3.2,7.6-1.3,2.8-2.7,5.5-4.2,8.2a111.033,111.033,0,0,1-7.4,11.8v.2c-.1,0-.2.2-.2.2h0l-.1.1c-.2.3-.4.5-.6.8a135.639,135.639,0,0,1-13.5,15.8l-.8.8h0a126.519,126.519,0,0,1-88.9,36.2h0a127.04,127.04,0,0,1-82.8-30.6c-2.1-1.8-4.1-3.7-6.1-5.6h0l-.8-.8a135.637,135.637,0,0,1-13.5-15.8c-.1-.2-.3-.4-.4-.6h-.1A126.3,126.3,0,0,1,.1,127.4h0A127.414,127.414,0,0,1,127.5,0h0A127.414,127.414,0,0,1,254.9,127.4Z" fill="#fad02c" opacity="0.1"/>
  <path id="Path_16517" d="M85.9,213.7H181a88.845,88.845,0,1,0-95.1,0" fill="#fff" opacity="0.22"/>
  <path id="Path_16624" d="M83.4,175.4A88.513,88.513,0,0,0,92,213.6h89A88.872,88.872,0,0,0,211.2,95.5,88.929,88.929,0,0,0,83.4,175.4Z" fill="#fad02c" opacity="0.2"/>
  <g id="Group_4402">
    <g id="Group_26" data-name="Group 26" clip-path="url(#clip-path)">
      <g id="Group_4401">
        <path id="Path_16520" d="M234.2,213.7H24.8c-.1,0-.3,0-.3-.2s.1-.2.3-.2H234.2c.1,0,.3,0,.3.2s-.1.2-.3.2" fill="#011721"/>
        <path id="Path_16521" d="M158.4,136.1l-13.8,1.4a1.636,1.636,0,0,0-.2,3.2,84.616,84.616,0,0,0,15.9,1.3l6.7-1.6-8.6-4.2Z"/>
        <g id="Group_4364" opacity="0.8">
          <g id="Group_4363">
            <g id="Group_13" data-name="Group 13" clip-path="url(#clip-path-2)">
              <g id="Group_4362">
                <path id="Path_16522" d="M158.4,136.1l-13.8,1.4a1.636,1.636,0,0,0-.2,3.2,84.616,84.616,0,0,0,15.9,1.3l6.7-1.6-8.6-4.2Z" fill="#fad02c"/>
              </g>
            </g>
          </g>
        </g>
        <path id="Path_16523" d="M151.1,141.6c-2.2-1.4-1-4.6-1-4.6l-5.5.6a1.636,1.636,0,0,0-.2,3.2c2.2.4,4.5.7,6.8.9h0Z" fill="#ffd2b3"/>
        <path id="Path_16524" d="M143.2,139.7a1.549,1.549,0,0,0,1.2,1,84.616,84.616,0,0,0,15.9,1.3l6.5-1.6-.2-.2-1.7-.8-5.7.3c-3.7.5-13.7.1-16.1,0h.1Z" fill="#fad02c"/>
        <path id="Path_16525" d="M144.4,140.6c2.2.4,4.5.7,6.8.9a2.981,2.981,0,0,1-1.2-1.7c-2.9,0-5.6-.2-6.7-.2a1.549,1.549,0,0,0,1.2,1h-.1Z" fill="#d39266"/>
        <path id="Path_16526" d="M175.4,113.2l-1.9-3.1,7-3.8a2.581,2.581,0,0,1,3.3,1.4c.7,1.3,1.6,3.8,2,8.7l-7.1-.9-3.2-2.3h-.1Z" fill="#011721"/>
        <path id="Path_16527" d="M175.4,117.2l3.4,1.8,1.8-1.5a.744.744,0,0,1,.9.1.908.908,0,0,1,0,1s2.9-2.2,4.5-2.1a7.218,7.218,0,0,1-2-.9c-2.2-1-1-3.6-2.4-4-.4-.1-.6,1.6-1.9,1.5a38.969,38.969,0,0,1-4.2-1.1v5.3h0Z" fill="#ffd2b3"/>
        <path id="Path_16528" d="M181.4,118.6a17.408,17.408,0,0,1,1.4-1.2l-.8-.4a.908.908,0,0,0-1,0l-.5.4a.744.744,0,0,1,.9.1.908.908,0,0,1,0,1h0Z" fill="#d39266"/>
        <path id="Path_16529" d="M173.5,112.9c-3.9,3.6-10.1,11.1-15.6,24.5a3.2,3.2,0,0,0,1.8,4.3,2.2,2.2,0,0,0,1.4.2c5.9-.2,15.3-2.2,20.4-5.9l8.6,19.6s12.9,4.9,21.6-.8c0,0-7.5-22.6-15.9-34.6a9.456,9.456,0,0,0-11.2-3.5,12.184,12.184,0,0,0-4.1,2.7l-12.2,13.7s4.7-11.7,7.5-18.6a1.326,1.326,0,0,0-.8-1.8,1.384,1.384,0,0,0-1.4.3h0Z" fill="#fad02c"/>
        <path id="Path_16530" d="M168.1,133.1s4.7-11.7,7.5-18.6a1.555,1.555,0,0,0-.4-1.6s-7.2,17.1-7.1,20.2Z" fill="#606060"/>
        <path id="Path_16531" d="M173.9,119c.6-1.6,1.3-3.1,1.8-4.5a1.326,1.326,0,0,0-.8-1.8,1.384,1.384,0,0,0-1.4.3c-1.1,1-2.1,2.1-3.1,3.2C170.4,116.2,170.4,119.3,173.9,119Z" fill="#ffd2b3"/>
        <path id="Path_16532" d="M172.8,119h1.1l1.8-4.5a1.555,1.555,0,0,0-.4-1.6s-1.1,2.7-2.5,6.1h0Z" fill="#d39266"/>
        <path id="Path_16533" d="M181.7,130.4c-3.2,8.2-20.3,11.3-21.4,11.5h.7c5.9-.2,15.3-2.2,20.4-5.9l8.6,19.6a1.01,1.01,0,0,1,.5.2l11.6-4.6c-15.5-5-20.4-20.8-20.4-20.8h0Z"/>
        <g id="Group_4367" opacity="0.8">
          <g id="Group_4366">
            <g id="Group_14" data-name="Group 14" clip-path="url(#clip-path-3)">
              <g id="Group_4365">
                <path id="Path_16534" d="M181.7,130.4c-3.2,8.2-20.3,11.3-21.4,11.5h.7c5.9-.2,15.3-2.2,20.4-5.9l8.6,19.6a1.01,1.01,0,0,1,.5.2l11.6-4.6c-15.5-5-20.4-20.8-20.4-20.8h0Z" fill="#fad02c"/>
              </g>
            </g>
          </g>
        </g>
        <path id="Path_16535" d="M185.1,169.4h18.3v2.5a1.9,1.9,0,0,1-1.9,1.9H186.9a1.9,1.9,0,0,1-1.9-1.9v-2.5Z" fill="#fad02c"/>
        <path id="Path_16536" d="M203.4,169.4H194l.3.9v3.4h7a2.112,2.112,0,0,0,2.1-2.1v-2.2Z" fill="#fad02c"/>
        <path id="Path_16537" d="M214.9,208v.4a1,1,0,0,1-1,1H174.6a1,1,0,0,1-1-1h0V208a1,1,0,0,1,1-1h39.3a1,1,0,0,1,1,1h0" fill="#fad02c"/>
        <path id="Path_16538" d="M178,207.5a3.1,3.1,0,1,1-3.1,3.1h0a3.116,3.116,0,0,1,3.1-3.1" fill="#fad02c"/>
        <path id="Path_16539" d="M210.4,207.5a3.1,3.1,0,1,1-3.1,3.1h0a3.116,3.116,0,0,1,3.1-3.1" fill="#fad02c"/>
        <path id="Path_16540" d="M160.9,164.5s-16.3,22.3-33.1,46.3a1.731,1.731,0,0,0,.4,2.4,1.654,1.654,0,0,0,1.9,0c7.7-5.1,21.2-15.2,37.5-32l5.3-9.3-12.1-7.4h.1Z" fill="#05293c"/>
        <path id="Path_16541" d="M167.7,181.2l5.3-9.3-2.7-1.7-9.4-5.7-23.3,43.6a255.07,255.07,0,0,0,30.1-26.8h0Z" fill="#011721"/>
        <path id="Path_16542" d="M207.6,156.5c-3.4-6.9-15.9-9-15.9-9-6.4,3.7-15.4,8.1-22,11.7-5.1,2.8-8.8,5.2-8.8,5.2,5.5,20,21.9,40.4,29.2,48.8a1.3,1.3,0,0,0,1.9.1,1.249,1.249,0,0,0,.4-1.3c-4.2-16.3-12.9-42.4-12.9-42.4,12.4-3.2,19.8-6.5,24.2-9.4a14.111,14.111,0,0,0,3.9-3.8h0Z" fill="#05293c"/>
        <path id="Path_16543" d="M179.5,169.6c12.4-3.2,19.8-6.5,24.2-9.4,1.6-1,3.9-.3,5-1.8l-1.1-2a13.365,13.365,0,0,0-5.5-5.3s-20.5,8.5-32.9,16.2c2.9,16.8,10.3,33.1,17.4,41.8l.9-.2,3.4-2.6c-4.5-16.1-11.4-36.7-11.4-36.7h0Z" fill="#011721"/>
        <path id="Path_16544" d="M132.4,204.4c-1.5,2.1-3,4.3-4.5,6.5a1.731,1.731,0,0,0,.4,2.4,1.654,1.654,0,0,0,1.9,0c2.1-1.4,4.5-3.1,7.4-5.2a5.284,5.284,0,0,1-5.2-3.7" fill="#ffd2b3"/>
        <path id="Path_16545" d="M192.4,212.1c-.7-2.7-1.2-4.6-2.1-7.7a15.583,15.583,0,0,1-1.6,2,8.925,8.925,0,0,1-3.1,1.5q2.55,3.15,4.5,5.4a1.3,1.3,0,0,0,1.9.1,1.249,1.249,0,0,0,.4-1.3h0Z" fill="#ffd2b3"/>
        <path id="Path_16546" d="M134.3,207l-6.3,6a1.68,1.68,0,0,0,2.2.2c2.1-1.4,4.5-3.1,7.4-5.2a6.387,6.387,0,0,1-3.3-1" fill="#d39266"/>
        <path id="Path_16547" d="M188.5,206.6a8.368,8.368,0,0,1-2.9,1.3q2.55,3.15,4.5,5.4a1.227,1.227,0,0,0,1.6.3l-3.2-7Z" fill="#d39266"/>
        <path id="Path_16548" d="M220.4,111.5a4.776,4.776,0,1,1,2.9,6.1,4.751,4.751,0,0,1-2.9-6.1h0"/>
        <path id="Path_16549" d="M226,108.4l-2.5,9.1a4.713,4.713,0,1,0,2.8-9H226" fill="#fad02c"/>
        <path id="Path_16550" d="M199,170.3H177.6a4.5,4.5,0,0,1,0-9H199a10.264,10.264,0,0,0,9.9-7.6l9.7-35.1a4.421,4.421,0,0,1,5.5-3.1h0a4.421,4.421,0,0,1,3.1,5.5h0l-9.7,35A19.236,19.236,0,0,1,199,170.2h0Z" fill="#fad02c"/>
        <path id="Path_16551" d="M213.8,152.3l9.7-35a3.284,3.284,0,0,0,.1-1.7,4.421,4.421,0,0,0-5,3.2l-9.7,35.1a10.264,10.264,0,0,1-9.9,7.6H177.6a4.481,4.481,0,0,0-4.5,4.5h0v.5h22.1a19.061,19.061,0,0,0,18.5-14.2h0Z"/>
        <path id="Path_16552" d="M181.6,168.8a1.9,1.9,0,0,1-1.9-1.9v-.6l4.5-13.8a11.583,11.583,0,0,1,11.1-8h26.6a1.9,1.9,0,0,1,1.9,1.9,1.839,1.839,0,0,1-1.9,1.9H195.3a7.831,7.831,0,0,0-7.5,5.5l-4.5,13.8a1.922,1.922,0,0,1-1.8,1.3h0Z" fill="#fad02c"/>
        <rect id="Rectangle_1739" width="6.8" height="9.1" transform="translate(190.9 173.8)" fill="#fad02c"/>
        <rect id="Rectangle_1740" width="3.4" height="25.2" transform="translate(192.5 182.8)" fill="#fad02c"/>
        <rect id="Rectangle_1741" width="1.7" height="25.2" transform="translate(194.2 182.8)"/>
        <rect id="Rectangle_1742" width="3.4" height="9.1" transform="translate(194.2 173.8)"/>
        <path id="Path_16553" d="M213.8,207H194.3v1.2h20.6a1.135,1.135,0,0,0-1.1-1.2"/>
        <path id="Path_16554" d="M222.1,144.5H195.5a11.619,11.619,0,0,0-11.1,8l-.3.8a11.9,11.9,0,0,1,3.9-4.7,13.917,13.917,0,0,1,7.7-2.3H224a1.9,1.9,0,0,0-1.9-1.9h0Z"/>
        <g id="Group_4370" opacity="0.4">
          <g id="Group_4369">
            <g id="Group_15" data-name="Group 15" clip-path="url(#clip-path-4)">
              <g id="Group_4368">
                <path id="Path_16555" d="M219.7,148.2l-.4,1.4-9.5.7.6-2h9.3Z" fill="#011721"/>
              </g>
            </g>
          </g>
        </g>
        <rect id="Rectangle_1744" width="1.9" height="70.9" transform="translate(82.8 142.9)" fill="#fad02c"/>
        <rect id="Rectangle_1745" width="1.9" height="70.9" transform="translate(172.3 142.9)" fill="#fad02c"/>
        <path id="Path_16556" d="M69.8,142H185.2a.684.684,0,0,1,.7.7v.3a.684.684,0,0,1-.7.7H69.8a.684.684,0,0,1-.7-.7v-.3a.684.684,0,0,1,.7-.7" fill="#fad02c"/>
        <path id="Path_16557" d="M106.9,142h37.4a.789.789,0,0,0,.8-.8.736.736,0,0,0-.8-.8H106.9a.789.789,0,0,0-.8.8.736.736,0,0,0,.8.8Z" fill="#011721"/>
        <path id="Path_16558" d="M106.9,140.7h28.2l-7.8-20.6H99.1l7.8,20.6Z" fill="#fad02c"/>
        <path id="Path_16559" d="M117.3,129.9a1.735,1.735,0,0,1,1.9,1.6,1.767,1.767,0,0,1-1,2.3,1.735,1.735,0,0,1-1.9-1.6,1.691,1.691,0,0,1,1-2.3" fill="#05293c"/>
        <path id="Path_16560" d="M137.1,60.8a3.74,3.74,0,0,1-3.3-1.9,7.218,7.218,0,0,0-10-2.5,7.472,7.472,0,0,0-2.5,2.5,3.859,3.859,0,0,1-6.6-4h0a15.114,15.114,0,0,1,20.7-5.2,16.146,16.146,0,0,1,5.2,5.2,3.887,3.887,0,0,1-1.3,5.3,3.606,3.606,0,0,1-2,.6h-.2Z"/>
        <path id="Path_16561" d="M146.8,55a3.74,3.74,0,0,1-3.3-1.9A18.672,18.672,0,0,0,118,46.7a19.574,19.574,0,0,0-6.4,6.4,3.859,3.859,0,0,1-6.6-4h0a26.268,26.268,0,0,1,36.1-9,25.854,25.854,0,0,1,9,9,3.887,3.887,0,0,1-1.3,5.3,3.606,3.606,0,0,1-2,.6h0Z"/>
        <path id="Path_16562" d="M98,48.8a3.9,3.9,0,0,1-3.9-3.9,3.606,3.606,0,0,1,.6-2,38.265,38.265,0,0,1,52.5-13.1,37.355,37.355,0,0,1,13.1,13.1,3.859,3.859,0,0,1-6.6,4h0a30.573,30.573,0,0,0-41.8-10.5,31.023,31.023,0,0,0-10.5,10.5,3.859,3.859,0,0,1-3.3,1.9h0Z"/>
        <path id="Path_16563" d="M127.5,58.5a5.4,5.4,0,1,1-5.4,5.4,5.378,5.378,0,0,1,5.4-5.4h0"/>
        <g id="Group_4373" opacity="0.8">
          <g id="Group_4372">
            <g id="Group_16" data-name="Group 16" clip-path="url(#clip-path-5)">
              <g id="Group_4371">
                <path id="Path_16564" d="M137.1,60.8a3.74,3.74,0,0,1-3.3-1.9,7.218,7.218,0,0,0-10-2.5,7.472,7.472,0,0,0-2.5,2.5,3.859,3.859,0,0,1-6.6-4h0a15.114,15.114,0,0,1,20.7-5.2,16.146,16.146,0,0,1,5.2,5.2,3.887,3.887,0,0,1-1.3,5.3,3.606,3.606,0,0,1-2,.6h-.2Z" fill="#fad02c"/>
              </g>
            </g>
          </g>
        </g>
        <g id="Group_4376" opacity="0.8">
          <g id="Group_4375">
            <g id="Group_17" data-name="Group 17" clip-path="url(#clip-path-6)">
              <g id="Group_4374">
                <path id="Path_16565" d="M146.8,55a3.74,3.74,0,0,1-3.3-1.9A18.672,18.672,0,0,0,118,46.7a19.574,19.574,0,0,0-6.4,6.4,3.859,3.859,0,0,1-6.6-4h0a26.268,26.268,0,0,1,36.1-9,25.854,25.854,0,0,1,9,9,3.887,3.887,0,0,1-1.3,5.3,3.606,3.606,0,0,1-2,.6h0Z" fill="#fad02c"/>
              </g>
            </g>
          </g>
        </g>
        <g id="Group_4379" opacity="0.8">
          <g id="Group_4378">
            <g id="Group_18" data-name="Group 18" clip-path="url(#clip-path-7)">
              <g id="Group_4377">
                <path id="Path_16566" d="M98,48.8a3.9,3.9,0,0,1-3.9-3.9,3.606,3.606,0,0,1,.6-2,38.265,38.265,0,0,1,52.5-13.1,37.355,37.355,0,0,1,13.1,13.1,3.859,3.859,0,0,1-6.6,4h0a30.573,30.573,0,0,0-41.8-10.5,31.023,31.023,0,0,0-10.5,10.5,3.859,3.859,0,0,1-3.3,1.9h0Z" fill="#fad02c"/>
              </g>
            </g>
          </g>
        </g>
        <g id="Group_4382" opacity="0.8">
          <g id="Group_4381">
            <g id="Group_19" data-name="Group 19" clip-path="url(#clip-path-8)">
              <g id="Group_4380">
                <path id="Path_16567" d="M127.5,58.5a5.4,5.4,0,1,1-5.4,5.4,5.378,5.378,0,0,1,5.4-5.4h0" fill="#fad02c"/>
              </g>
            </g>
          </g>
        </g>
        <path id="Path_16568" d="M127.5,63.9l1.6-5.2a5.388,5.388,0,0,0-6.7,3.7,5.452,5.452,0,0,0,3.4,6.6l1.7-5.1h0Z" fill="#fad02c"/>
        <path id="Path_16569" d="M130,55.8l2.3-7.5a16.094,16.094,0,0,0-4.8-.8,15.066,15.066,0,0,0-12.9,7.3,3.859,3.859,0,0,0,6.6,4h0a7.342,7.342,0,0,1,8.8-3.1h0Z" fill="#fad02c"/>
        <path id="Path_16570" d="M133.3,45l2.3-7.4a24.972,24.972,0,0,0-8.1-1.3,26.563,26.563,0,0,0-22.6,12.8,3.859,3.859,0,0,0,6.6,4A18.673,18.673,0,0,1,133.2,45h0Z" fill="#fad02c"/>
        <path id="Path_16571" d="M136.9,33.6l2.3-7.4a42.011,42.011,0,0,0-11.6-1.9A38.354,38.354,0,0,0,94.8,42.9a3.912,3.912,0,1,0,6.6,4.2h0V47a30.368,30.368,0,0,1,35.5-13.3h0Z" fill="#fad02c"/>
        <path id="Path_16572" d="M123.6,110.1l-15-4.4a1.584,1.584,0,0,1-1.1-2,1.012,1.012,0,0,1,.4-.7l11.3-10.8,11.3-10.8a1.693,1.693,0,0,1,2.3,0,2.506,2.506,0,0,1,.4.7l3.7,15.2,3.7,15.2a1.636,1.636,0,0,1-1.2,2h-.9l-15-4.4h0Z" fill="#011721"/>
        <path id="Path_16572-2" d="M123.6,110.1l-15-4.4a1.584,1.584,0,0,1-1.1-2,1.012,1.012,0,0,1,.4-.7l11.3-10.8,11.3-10.8a1.693,1.693,0,0,1,2.3,0,2.506,2.506,0,0,1,.4.7l3.7,15.2,3.7,15.2a1.636,1.636,0,0,1-1.2,2h-.9l-15-4.4h0Z" fill="#fa6e53" opacity="0.8"/>
        <path id="Path_16573" d="M124,108.7l-14.2-4.2c-.3,0-.5-.4-.4-.7a.355.355,0,0,1,.2-.3l10.7-10.2L131,83.1a.608.608,0,0,1,.8,0,1.007,1.007,0,0,1,.1.3l3.5,14.4,3.5,14.4a.67.67,0,0,1-.4.7h-.3L124,108.7h0Z" fill="#fa6e53"/>
        <path id="Path_16574" d="M127.4,101.3l-2.2-.6,2.1-9.6,3.5,1Z" fill="#fff"/>
        <path id="Path_16575" d="M124.3,102.1a1.838,1.838,0,1,1,0,2.6,1.872,1.872,0,0,1,0-2.6h0" fill="#fff"/>
        <path id="Path_16576" d="M67.8,198.6h50.6v1.8a13.507,13.507,0,0,1-13.5,13.5H81.2a13.507,13.507,0,0,1-13.5-13.5v-1.8Z" fill="#fad02c"/>
        <path id="Path_16577" d="M83.1,209.9h20a15.3,15.3,0,0,0,14.8-11.3H68.3a15.3,15.3,0,0,0,14.8,11.3"/>
        <g id="Group_4385" opacity="0.8">
          <g id="Group_4384">
            <g id="Group_20" data-name="Group 20" clip-path="url(#clip-path-9)">
              <g id="Group_4383">
                <path id="Path_16578" d="M83.1,209.9h20a15.3,15.3,0,0,0,14.8-11.3H68.3a15.3,15.3,0,0,0,14.8,11.3" fill="#fad02c"/>
              </g>
            </g>
          </g>
        </g>
        <path id="Path_16579" d="M88.5,194.6s-11.6-24.8,11.4-41.3c0,0,16.3,12.9-3.3,41.3Z"/>
        <g id="Group_4388" opacity="0.8">
          <g id="Group_4387">
            <g id="Group_21" data-name="Group 21" clip-path="url(#clip-path-10)">
              <g id="Group_4386">
                <path id="Path_16580" d="M88.5,194.6s-11.6-24.8,11.4-41.3c0,0,16.3,12.9-3.3,41.3Z" fill="#fad02c"/>
              </g>
            </g>
          </g>
        </g>
        <path id="Path_16581" d="M99.9,153.3s4.3,31-8,41.3h4.7c19.6-28.4,3.3-41.3,3.3-41.3" fill="#fad02c"/>
        <path id="Path_16582" d="M105.9,173.3s-13.3,0-17.4,12.8l3.3,3.4Z" fill="#fad02c"/>
        <path id="Path_16583" d="M86.8,198.6s-.6-33.8,34.3-23.5c0,0-3.1,15.3-24.3,23.5Z"/>
        <g id="Group_4391" opacity="0.8">
          <g id="Group_4390">
            <g id="Group_22" data-name="Group 22" clip-path="url(#clip-path-11)">
              <g id="Group_4389">
                <path id="Path_16584" d="M86.8,198.6s-.6-33.8,34.3-23.5c0,0-3.1,15.3-24.3,23.5Z" fill="#fad02c"/>
              </g>
            </g>
          </g>
        </g>
        <path id="Path_16585" d="M121.1,175.1s-18.5,1.5-29.6,23.5h5.3c21.2-8.3,24.3-23.5,24.3-23.5" fill="#fad02c"/>
        <path id="Path_16586" d="M85.9,185.2v-.4s12.1,2,12.1,13.4l-.8.2L92.7,197l-7.2-9.7.4-2.1Z" fill="#fad02c"/>
        <path id="Path_16587" d="M97.2,198.6s2.4-15.5-24.4-14.8a18.424,18.424,0,0,0,8.8,14.8H97.1Z"/>
        <g id="Group_4394" opacity="0.8">
          <g id="Group_4393">
            <g id="Group_23" data-name="Group 23" clip-path="url(#clip-path-12)">
              <g id="Group_4392">
                <path id="Path_16588" d="M97.2,198.6s2.4-15.5-24.4-14.8a18.424,18.424,0,0,0,8.8,14.8H97.1Z" fill="#fad02c"/>
              </g>
            </g>
          </g>
        </g>
        <path id="Path_16589" d="M72.8,183.8a18.424,18.424,0,0,0,8.8,14.8h6.3c-8.8-4.8-15.1-14.8-15.1-14.8h0Z" fill="#fad02c"/>
        <path id="Path_16590" d="M95.6,191.9h0c0-.1,7.6-10.4,16.2-13.9h0c-8.6,3.5-16.1,13.7-16.1,13.8h0Z" fill="#fad02c"/>
        <path id="Path_16591" d="M100.1,174.8h0a91.6,91.6,0,0,0,.5-11.7h0a76.371,76.371,0,0,1-.5,11.7Z" fill="#fad02c"/>
        <path id="Path_16592" d="M87.9,198.7h0a28.059,28.059,0,0,1-6.5-4.8h0a29.9,29.9,0,0,0,6.5,4.7h0Z" fill="#fad02c"/>
        <path id="Path_16593" d="M83.8,83.1l-2.6-.5,1-7.8,2.7-.4-1.1,8.7Z" fill="#05293c"/>
        <path id="Path_16594" d="M84.8,74.3h.3c0,.1-1.1,8.7-1.1,8.7h-.3l1-8.7Z" fill="#011721"/>
        <path id="Path_16595" d="M82.3,75l2.2-.3-.9,8.1-2.1-.3.9-7.5Z" fill="#fad02c"/>
        <path id="Path_16596" d="M57.6,127,66,163.4,53.5,206.8a2.169,2.169,0,0,1-2.7,1.4,2.131,2.131,0,0,1-1.5-2l-.9-45.9L57.6,127Z" fill="#011721"/>
        <path id="Path_16597" d="M62,164l-7.9,34.8-2.5,9.5a2.041,2.041,0,0,0,2-1.5l12.5-43.4L57.7,127,62,164Z" fill="#05293c"/>
        <path id="Path_16598" d="M49.2,197.6l.2,8.6a2.151,2.151,0,0,0,4.2.6l2.4-8.3s-1.8.9-6.7-1h0Z" fill="#d39266"/>
        <path id="Path_16599" d="M57,87.8s12.2-5.4,15.2-12.3A41.122,41.122,0,0,0,50.6,69a1.135,1.135,0,0,0-1.1,1.2,1.05,1.05,0,0,0,.5.9c2.7,1.7,7.1,3.5,13.1,5.7l-13,4.3,6.8,6.7H57Z"/>
        <g id="Group_4397" opacity="0.8">
          <g id="Group_4396">
            <g id="Group_24" data-name="Group 24" clip-path="url(#clip-path-13)">
              <g id="Group_4395">
                <path id="Path_16600" d="M57,87.8s12.2-5.4,15.2-12.3A41.122,41.122,0,0,0,50.6,69a1.135,1.135,0,0,0-1.1,1.2,1.05,1.05,0,0,0,.5.9c2.7,1.7,7.1,3.5,13.1,5.7l-13,4.3,6.8,6.7H57Z" fill="#fad02c"/>
              </g>
            </g>
          </g>
        </g>
        <path id="Path_16601" d="M49.5,70.1a1.606,1.606,0,0,0,.5,1.1c2.7,1.7,7.1,3.5,13.1,5.7l1.6-.3-.4-.3c-3.7-2.8-12.8-5.6-14.9-6.2h.1Z" fill="#fad02c"/>
        <path id="Path_16602" d="M57,87.8s12.2-5.4,15.2-12.3a28.936,28.936,0,0,1-16.3,8.2L54.2,85l2.9,2.8h0Z" fill="#fad02c"/>
        <path id="Path_16603" d="M50,71.1a28.222,28.222,0,0,0,4.6,2.3,2.729,2.729,0,0,0,.9-3.6,2.651,2.651,0,0,0-.5-.6,32.53,32.53,0,0,0-4.4-.3,1.135,1.135,0,0,0-1.1,1.2,1.05,1.05,0,0,0,.5.9" fill="#ffd2b3"/>
        <path id="Path_16604" d="M49.5,70.1a1.606,1.606,0,0,0,.5,1.1,28.222,28.222,0,0,0,4.6,2.3,3.815,3.815,0,0,0,1.1-1.4c-2.7-1-5.2-1.7-6.2-2h0Z" fill="#d39266"/>
        <path id="Path_16605" d="M52.8,73.3l.5-3.1s-5.7.5-8.4,1c0,0-3.7,3.3,2.6,10.3l3.8-5,1.5-3.2h0Z" fill="#011721"/>
        <path id="Path_16606" d="M51.2,81.1V79.4h2.1l2-2.9-3.1-4s-1,3.1-3.8,3.5l-1-1.7s-1.3,1.3.2,3.5a4.359,4.359,0,0,1-.1,3.7l3.6-.4h0Z" fill="#ffd2b3"/>
        <path id="Path_16607" d="M85.9,79.8a1.165,1.165,0,0,0-.5-1.6,1.232,1.232,0,0,0-1.4.2c-5.7,5.1-14.6,13-16.9,13.9L53.4,81.9A5.478,5.478,0,0,0,45.6,83a10.93,10.93,0,0,0-.8,1.5c-2.5,7-5.8,19.8-7,40.2a19.407,19.407,0,0,0,19.8,2.4c.4-9.9.5-20.1.2-30.4l9.6,3.1s7.4,0,18.5-19.9h0Z" fill="#fad02c"/>
        <path id="Path_16608" d="M37.9,124.6c1-17.9,3.7-29.9,6-37.3-5,16.1-11.6,53.8,0,126.1a2.1,2.1,0,0,0,2.3,1.7,2.145,2.145,0,0,0,1.7-1.6A599.629,599.629,0,0,0,57.7,127a19.434,19.434,0,0,1-19.8-2.4h0Z" fill="#011721"/>
        <path id="Path_16609" d="M85.9,79.8a1.212,1.212,0,0,0-.2-1.5S78.3,91.2,68.2,97.7a114.492,114.492,0,0,1-12.8-3.3s2.1,21.6-11.1,33.5a19.353,19.353,0,0,0,13.4-.9c.4-9.9.5-20.1.2-30.4l9.6,3.1s7.4,0,18.5-19.9h-.1Z"/>
        <g id="Group_4400" opacity="0.8">
          <g id="Group_4399">
            <g id="Group_25" data-name="Group 25" clip-path="url(#clip-path-14)">
              <g id="Group_4398">
                <path id="Path_16610" d="M85.9,79.8a1.212,1.212,0,0,0-.2-1.5S78.3,91.2,68.2,97.7a114.492,114.492,0,0,1-12.8-3.3s2.1,21.6-11.1,33.5a19.353,19.353,0,0,0,13.4-.9c.4-9.9.5-20.1.2-30.4l9.6,3.1s7.4,0,18.5-19.9h-.1Z" fill="#fad02c"/>
              </g>
            </g>
          </g>
        </g>
        <path id="Path_16611" d="M84.1,78.3c-1,.9-2.1,1.8-3.2,2.8,0,0,.4,2.5,2.7,2.5.7-1.2,1.5-2.5,2.3-3.9a1.165,1.165,0,0,0-.5-1.6,1.232,1.232,0,0,0-1.4.2h0Z" fill="#ffd2b3"/>
        <path id="Path_16612" d="M82.3,83.4a2.768,2.768,0,0,0,1.3.3c.7-1.2,1.5-2.5,2.3-3.9a1.212,1.212,0,0,0-.2-1.5s-1.2,2.1-3.3,5" fill="#d39266"/>
        <path id="Path_16613" d="M47.8,213.6a599.628,599.628,0,0,0,9.8-86.5,21.36,21.36,0,0,1-6.5,1.6h0c1.9,27.4-4.5,81.8-5.1,86.5a1.831,1.831,0,0,0,1.8-1.6Z" fill="#05293c"/>
        <path id="Path_16614" d="M49.3,205a8.081,8.081,0,0,1-6.8,0c.4,2.8.8,5.6,1.3,8.5a2.1,2.1,0,0,0,2.3,1.7,2.145,2.145,0,0,0,1.7-1.6c.5-2.5,1-5.3,1.5-8.5h0Z" fill="#d39266"/>
        <path id="Path_16615" d="M47.8,213.6c.5-2.5,1-5.3,1.5-8.5h0a9.017,9.017,0,0,1-2.2.6c-.5,5-1,8.5-1.1,9.5a1.831,1.831,0,0,0,1.8-1.6Z" fill="#ffd2b3"/>
        <path id="Path_16616" d="M53.5,206.8l2.4-8.3a4,4,0,0,1-1.9.2l-2.5,9.5a2.041,2.041,0,0,0,2-1.5" fill="#ffd2b3"/>
        <path id="Path_16617" d="M89.5,67.8a6.576,6.576,0,1,1,0,9.3,6.519,6.519,0,0,1,0-9.3h0" fill="#fa6e53"/>
        <path id="Path_16618" d="M90.9,75.8h0a1.087,1.087,0,0,1,0-1.5L96,69.2a1.061,1.061,0,0,1,1.5,1.5h0l-5.1,5.1a1.087,1.087,0,0,1-1.5,0h0" fill="#fff"/>
        <path id="Path_16619" d="M97.4,75.8h0a1.087,1.087,0,0,1-1.5,0l-5.1-5.1a1.061,1.061,0,0,1,1.5-1.5h0l5.1,5.1a1.087,1.087,0,0,1,0,1.5" fill="#fff"/>
        <path id="Path_16620" d="M141.4,106.2h0l-5.3-21.9h0l5.3,21.9Z" fill="#fad02c"/>
        <path id="Path_16621" d="M114.6,110h0l-9.5-3.2h0l9.5,3.2Z" fill="#fad02c"/>
        <path id="Path_16622" d="M164.1,33.9h0a39.935,39.935,0,0,0-9.6-9.2A44.533,44.533,0,0,0,125.3,17h0a44.81,44.81,0,0,1,29.3,7.7,38.184,38.184,0,0,1,9.6,9.2V34h0Z" fill="#011721"/>
      </g>
    </g>
  </g>
</svg>
