<svg id="something_went_wrong" xmlns="http://www.w3.org/2000/svg" xmlns:xlink="http://www.w3.org/1999/xlink" width="255" height="255.001" viewBox="0 0 255 255.001">
  <defs>
    <linearGradient id="linear-gradient" x1="-67.997" y1="0.686" x2="-67.908" y2="0.686" gradientUnits="objectBoundingBox">
      <stop offset="0" stop-color="#fafaff"/>
      <stop offset="0.6" stop-color="#fafaff"/>
      <stop offset="1" stop-color="#e5f7f9"/>
    </linearGradient>
    <linearGradient id="linear-gradient-2" x1="-28.993" y1="-1.328" x2="-28.957" y2="-1.328" xlink:href="#linear-gradient"/>
    <linearGradient id="linear-gradient-3" x1="-35.74" y1="-1.322" x2="-35.695" y2="-1.322" xlink:href="#linear-gradient"/>
  </defs>
  <path id="back" d="M255,127.5h0a127.178,127.178,0,0,1-7.2,42.4c-.4,1.1-.8,2.3-1.3,3.4-1,2.6-2.1,5.1-3.2,7.6-1.3,2.8-2.7,5.5-4.2,8.2a129.878,129.878,0,0,1-7.4,11.8v.2c-.1,0-.2.2-.2.2h-.1a7.016,7.016,0,0,1-.6.9A135.639,135.639,0,0,1,217.3,218l-.8.8h0a126.579,126.579,0,0,1-89,36.2h0a127.3,127.3,0,0,1-82.9-30.6c-2.1-1.8-4.2-3.7-6.1-5.6h0l-.8-.8a135.637,135.637,0,0,1-13.5-15.8c-.1-.2-.3-.4-.4-.6h-.1A127.383,127.383,0,0,1,0,127.5H0A127.521,127.521,0,0,1,127.5,0h0A127.521,127.521,0,0,1,255,127.5Z" fill="#fad02c" opacity="0.1"/>
  <g id="illustrator">
    <path id="Path_14824" d="M55.1,156.4a117.178,117.178,0,0,0,11.4,50.4H183.9A117.184,117.184,0,0,0,223.7,51,117.144,117.144,0,0,0,55.1,156.3h0Z" fill="#fff"/>
    <path id="Path_16634" d="M55.1,156.4a117.178,117.178,0,0,0,11.4,50.4H183.9A117.184,117.184,0,0,0,223.7,51,117.144,117.144,0,0,0,55.1,156.3h0Z" fill="#fad02c" opacity="0.2"/>
    <path id="Path_14825" d="M236.9,206.9H10.3c-.1,0-.2,0-.3-.2s0-.2.2-.3H236.8c.1,0,.2,0,.3.2s0,.2-.2.3h-.1Z" fill="#011721"/>
    <g id="head">
      <path id="Path_14830" d="M176.5,74.3,174,70.2l9.3-5a3.451,3.451,0,0,1,4.3,1.8c.9,1.8,2.1,5,2.6,11.5l-9.4-1.2-4.2-3.1h-.1Z" fill="#011721"/>
      <path id="Path_14831" d="M176.5,79.5l4.4,2.4,2.3-2c.4-.2.9-.2,1.1.2a1.051,1.051,0,0,1,0,1.3s3.9-3,5.9-2.8a12.272,12.272,0,0,1-2.6-1.2c-3-1.3-1.3-4.7-3.2-5.3-.6-.2-.9,2.1-2.5,1.9-1.3-.2-5.6-1.5-5.6-1.5v7h.2Z" fill="#ffd2b3"/>
      <path id="Path_14832" d="M184.4,81.4a11.92,11.92,0,0,1,1.8-1.5h0l-1-.6a1.22,1.22,0,0,0-1.3,0l-.6.5c.4-.2.9-.2,1.1.2a1.051,1.051,0,0,1,0,1.3h0Z" fill="#d39266"/>
    </g>
    <g id="body">
      <path id="Path_14826" d="M154.1,104.5l-18.3,1.8a2.01,2.01,0,0,0-1.9,2.3,2.117,2.117,0,0,0,1.7,1.9,113.728,113.728,0,0,0,21,1.7l8.8-2.2-11.3-5.5h0Z" fill="#fad02c"/>
      <path id="Path_14827" d="M144.5,111.7c-3-1.9-1.4-6.1-1.4-6.1h0l-7.3.7a2.01,2.01,0,0,0-1.9,2.3,2.117,2.117,0,0,0,1.7,1.9,65.68,65.68,0,0,0,8.9,1.2Z" fill="#ffd2b3"/>
      <path id="Path_14828" d="M134.1,109.2a1.835,1.835,0,0,0,1.6,1.3,113.728,113.728,0,0,0,21,1.7l8.6-2.1-.3-.3-2.2-1.1-7.5.4c-4.9.7-18.1.2-21.2,0h0Z"/>
      <path id="Path_16640" d="M134.1,109.2a1.835,1.835,0,0,0,1.6,1.3,113.728,113.728,0,0,0,21,1.7l8.6-2.1-.3-.3-2.2-1.1-7.5.4c-4.9.7-18.1.2-21.2,0h0Z" fill="#fad02c" opacity="0.6"/>
      <path id="Path_14829" d="M135.6,110.5a65.68,65.68,0,0,0,8.9,1.2,3.558,3.558,0,0,1-1.6-2.2c-3.9,0-7.4-.2-8.8-.3a1.835,1.835,0,0,0,1.6,1.3h0Z" fill="#d39266"/>
      <path id="Path_14833" d="M174,73.9c-5.2,4.7-13.3,14.6-20.6,32.3a4.265,4.265,0,0,0,2.3,5.6,3.805,3.805,0,0,0,1.8.3c7.8-.3,20.2-2.9,26.9-7.8l11.3,25.9s17,6.5,28.5-1c0,0-9.9-29.9-20.9-45.7a12.628,12.628,0,0,0-14.8-4.7,13.885,13.885,0,0,0-5.3,3.6l-16.1,18S173.3,85,177,75.9a1.8,1.8,0,0,0-1-2.4,2.142,2.142,0,0,0-1.9.3h0Z" fill="#fad02c"/>
      <path id="Path_14834" d="M167,100.5s6.2-15.4,9.9-24.5a1.855,1.855,0,0,0-.6-2.1s-9.4,22.6-9.3,26.7h0Z"/>
      <path id="Path_16641" d="M167,100.5s6.2-15.4,9.9-24.5a1.855,1.855,0,0,0-.6-2.1s-9.4,22.6-9.3,26.7h0Z" fill="#fad02c" opacity="0.6"/>
      <path id="Path_14835" d="M174.5,81.9c.9-2.1,1.7-4.1,2.4-5.9a1.8,1.8,0,0,0-1-2.4,2.142,2.142,0,0,0-1.9.3,40.656,40.656,0,0,0-4.1,4.2s0,4.1,4.6,3.7h0Z" fill="#ffd2b3"/>
      <path id="Path_14836" d="M173.1,81.9h1.4c.9-2.1,1.7-4.1,2.4-5.9a1.855,1.855,0,0,0-.6-2.1s-1.5,3.5-3.2,8h0Z" fill="#d39266"/>
      <path id="Path_14837" d="M184.8,96.9c-4.2,10.8-26.7,14.9-28.2,15.2h.9c7.8-.3,20.2-2.9,26.9-7.8l11.3,25.9a2.255,2.255,0,0,1,.7.2l15.4-6.1c-20.4-6.5-26.9-27.5-26.9-27.5h0Z"/>
      <path id="Path_16639" d="M184.8,96.9c-4.2,10.8-26.7,14.9-28.2,15.2h.9c7.8-.3,20.2-2.9,26.9-7.8l11.3,25.9a2.255,2.255,0,0,1,.7.2l15.4-6.1c-20.4-6.5-26.9-27.5-26.9-27.5h0Z" fill="#fad02c" opacity="0.6"/>
    </g>
    <g id="weel">
      <rect id="Rectangle_1539" width="54.5" height="3.2" rx="1.1" transform="translate(174.2 198.1)" fill="#fad02c"/>
      <circle id="Ellipse_242" cx="4.1" cy="4.1" r="4.1" transform="translate(175.9 198.7)" fill="#fad02c"/>
      <circle id="Ellipse_243" cx="4.1" cy="4.1" r="4.1" transform="translate(218.7 198.7)" fill="#fad02c"/>
      <path id="Path_14852" d="M227.1,198.1H201.4v1.6h27.2a1.561,1.561,0,0,0-1.5-1.6Z"/>
    </g>
    <g id="leg">
      <path id="Path_14840" d="M157.4,141.9s-21.6,29.4-43.6,61.1a2.279,2.279,0,0,0,.6,3.2,2.441,2.441,0,0,0,2.6,0c10.2-6.8,28-20.1,49.5-42.2l7-12.3-16-9.8Z" fill="#05293c"/>
      <path id="Path_14841" d="M166.4,164l7-12.3-3.6-2.2-12.4-7.6-30.8,57.5h0A325.922,325.922,0,0,0,166.4,164Z" fill="#011721"/>
      <path id="Path_14842" d="M219,131.4c-4.5-9.1-20.9-11.8-20.9-11.8-8.5,4.9-20.3,10.7-29.1,15.4-6.7,3.6-11.6,6.9-11.6,6.9,7.2,26.3,28.9,53.3,38.5,64.4a1.853,1.853,0,0,0,2.5.2,1.681,1.681,0,0,0,.5-1.8c-5.6-21.5-17.1-56-17.1-56,16.4-4.2,26.2-8.6,32-12.4a18.34,18.34,0,0,0,5.1-4.9Z" fill="#05293c"/>
      <path id="Path_14843" d="M181.9,148.7c16.4-4.2,26.2-8.6,32-12.4,2.1-1.3,5.2-.4,6.5-2.3l-1.4-2.6a17.6,17.6,0,0,0-7.3-7s-27.1,11.2-43.4,21.3c3.8,22.2,13.6,43.7,23,55.1l1.2-.2,4.4-3.4c-5.9-21.2-15-48.4-15-48.4h0Z" fill="#011721"/>
      <path id="Path_14844" d="M119.7,194.5c-2,2.8-4,5.7-6,8.5a2.279,2.279,0,0,0,.6,3.2,2.441,2.441,0,0,0,2.6,0c2.7-1.8,6-4.1,9.7-6.9,0,0-2.9-.2-4.4-1.4a8.969,8.969,0,0,1-2.5-3.5h0Z" fill="#ffd2b3"/>
      <path id="Path_14845" d="M199,204.7c-.9-3.6-1.6-6-2.8-10.1a13.948,13.948,0,0,1-2.1,2.7,10.467,10.467,0,0,1-4.1,2c2.3,2.8,4.3,5.2,6,7.1a1.853,1.853,0,0,0,2.5.2,1.681,1.681,0,0,0,.5-1.8h0Z" fill="#ffd2b3"/>
      <path id="Path_14846" d="M122.3,198l-8.3,8a2.283,2.283,0,0,0,2.9.3c2.7-1.8,6-4.1,9.7-6.9a9.506,9.506,0,0,1-4.3-1.4h0Z" fill="#d39266"/>
      <path id="Path_14847" d="M193.8,197.5a11.706,11.706,0,0,1-3.8,1.7c2.3,2.8,4.3,5.2,6,7.1a1.551,1.551,0,0,0,2,.4l-4.2-9.3h0Z" fill="#d39266"/>
    </g>
    <g id="char">
      <g id="back-2">
        <circle id="Ellipse_244" cx="6.3" cy="6.3" r="6.3" transform="translate(235.6 67.8)"/>
        <path id="Path_14848" d="M243.3,68l-3.2,12.1a6.231,6.231,0,1,0,3.7-11.9h-.5Z" fill="#fad02c"/>
        <path id="Path_14849" d="M207.6,149.6H179.4a5.848,5.848,0,0,1-5.9-5.9h0a5.848,5.848,0,0,1,5.9-5.9h28.2a13.593,13.593,0,0,0,13.1-10l12.9-46.3a5.929,5.929,0,0,1,7.3-4.1h0a5.929,5.929,0,0,1,4.1,7.3h0l-12.8,46.2a25.385,25.385,0,0,1-24.5,18.7h-.1Z" fill="#fad02c"/>
        <path id="Path_14850" d="M227.2,125.8,240,79.6a5.831,5.831,0,0,0,.2-2.3,5.854,5.854,0,0,0-6.6,4.2l-12.9,46.3a13.593,13.593,0,0,1-13.1,10H179.4a5.848,5.848,0,0,0-5.9,5.9h0v.7h29.1a25.563,25.563,0,0,0,24.5-18.7h.1Z"/>
      </g>
      <g id="stand">
        <path id="Path_14838" d="M189.3,148.4h24.2v1.7a4.012,4.012,0,0,1-4,4H193.4a4.012,4.012,0,0,1-4-4v-1.7h0Z" fill="#fad02c"/>
        <path id="Path_14839" d="M213.5,148.4H201.1l.3,1.2v4.5h9.3a2.8,2.8,0,0,0,2.8-2.8v-2.9h0Z" fill="#fad02c"/>
        <rect id="Rectangle_1540" width="8.9" height="12" transform="translate(196.9 154.2)" fill="#fad02c"/>
        <rect id="Rectangle_1541" width="4.5" height="33.2" transform="translate(199.1 166.1)" fill="#fad02c"/>
        <rect id="Rectangle_1542" width="2.3" height="33.2" transform="translate(201.4 166.1)"/>
        <rect id="Rectangle_1543" width="4.5" height="12" transform="translate(201.4 154.2)"/>
      </g>
      <g id="stand-2">
        <path id="Path_14851" d="M184.8,147.6a2.476,2.476,0,0,1-2.5-2.5c0-1.4,0-.5.1-.8l6-18.2a15.5,15.5,0,0,1,14.7-10.6h35.1a2.5,2.5,0,0,1,0,5H203.1a10.542,10.542,0,0,0-10,7.2l-6,18.2a2.463,2.463,0,0,1-2.3,1.7Z" fill="#fad02c"/>
        <path id="Path_14853" d="M238.1,115.6H203a15.5,15.5,0,0,0-14.7,10.6l-.3,1.1a14.853,14.853,0,0,1,5.2-6.2,17.353,17.353,0,0,1,10.1-3h37.3a2.476,2.476,0,0,0-2.5-2.5Z"/>
      </g>
      <g id="shadow" opacity="0.4">
        <path id="Path_14854" d="M235,120.5l-.5,1.8-12.5.9.8-2.7H235Z" fill="#011721"/>
      </g>
    </g>
    <g id="table">
      <rect id="wood" width="2.6" height="93.5" transform="translate(54.1 113.4)" fill="#fad02c"/>
      <rect id="wood-2" width="2.6" height="93.5" transform="translate(172.2 113.4)" fill="#fad02c"/>
      <rect id="wood-3" width="154.2" height="2.4" rx="0.8" transform="translate(36 112.2)" fill="#fad02c"/>
    </g>
    <g id="error">
      <path id="Path_14855" d="M140.5,66.6l-13.1-.2A1.367,1.367,0,0,1,126,65c0-.8,0-.5.2-.7l6.7-11.2,6.7-11.2a1.342,1.342,0,0,1,1.9-.5c.2,0,.4.3.5.5l6.4,11.4,6.4,11.4a1.429,1.429,0,0,1-.5,1.9c-.2,0-.4.2-.7.2l-13.1-.2h0Z" fill="#fad02c"/>
      <path id="Path_14856" d="M140.6,65.4l-12.4-.2a.472.472,0,0,1-.5-.5v-.2L134,53.9l6.3-10.6a.574.574,0,0,1,.7-.2s.1,0,.2.2l6,10.8,6,10.8a.481.481,0,0,1-.2.6h-.2l-12.4-.2h.2Z" fill="#fff"/>
      <path id="Path_16644" d="M140.6,65.4l-12.4-.2a.472.472,0,0,1-.5-.5v-.2L134,53.9l6.3-10.6a.574.574,0,0,1,.7-.2s.1,0,.2.2l6,10.8,6,10.8a.481.481,0,0,1-.2.6h-.2l-12.4-.2h.2Z" fill="#fad02c" opacity="0.1"/>
      <path id="Path_14857" d="M141.6,58.7h-1.9l-.4-8.2h3l-.7,8.2h0Z" fill="#fad02c"/>
      <circle id="Ellipse_245" cx="1.5" cy="1.5" r="1.5" transform="translate(139.1 59.3)" fill="#fad02c"/>
    </g>
    <g id="tree">
      <g id="tree-2">
        <path id="Path_14858" d="M34.3,187h66.8v6a14.255,14.255,0,0,1-14.2,14.2H48.5A14.255,14.255,0,0,1,34.3,193v-6h0Z" fill="#fad02c"/>
        <path id="Path_14859" d="M54.5,201.9H80.9A20.225,20.225,0,0,0,100.4,187H35a20.225,20.225,0,0,0,19.5,14.9Z"/>
        <path id="Path_16635" d="M54.5,201.9H80.9A20.225,20.225,0,0,0,100.4,187H35a20.225,20.225,0,0,0,19.5,14.9Z" fill="#fad02c" opacity="0.6"/>
        <path id="Path_14860" d="M61.6,181.7s-15.3-32.8,15-54.5c0,0,21.5,17-4.4,54.5H61.6Z"/>
        <path id="Path_16638" d="M61.6,181.7s-15.3-32.8,15-54.5c0,0,21.5,17-4.4,54.5H61.6Z" fill="#fad02c" opacity="0.6"/>
        <path id="Path_14861" d="M76.7,127.2s5.7,40.9-10.6,54.5h6.2c25.8-37.5,4.4-54.5,4.4-54.5Z" fill="#fad02c"/>
        <path id="Path_14862" d="M84.6,153.6s-17.5-.1-23,16.9L66,175l18.6-21.4Z" fill="#fad02c"/>
        <path id="Path_14863" d="M59.4,187s-.8-44.7,45.3-31.1c0,0-4.1,20.1-32,31.1H59.4Z"/>
        <path id="Path_16637" d="M59.4,187s-.8-44.7,45.3-31.1c0,0-4.1,20.1-32,31.1H59.4Z" fill="#fad02c" opacity="0.6"/>
        <path id="Path_14864" d="M104.7,155.9S80.3,157.8,65.6,187h7c27.9-10.9,32-31.1,32-31.1h0Z" fill="#fad02c"/>
        <path id="Path_14865" d="M58.3,169.3v-.5s16,2.7,15.9,17.6l-1,.3-5.9-1.8-9.4-12.8.5-2.8h0Z" fill="#fad02c"/>
        <path id="Path_14866" d="M73.1,187s3.2-20.4-32.2-19.5A24.451,24.451,0,0,0,52.5,187Z"/>
        <path id="Path_16636" d="M73.1,187s3.2-20.4-32.2-19.5A24.451,24.451,0,0,0,52.5,187Z" fill="#fad02c" opacity="0.6"/>
        <path id="Path_14867" d="M41,167.4a24.451,24.451,0,0,0,11.6,19.5h8.3C49.3,180.5,41,167.4,41,167.4Z" fill="#fad02c"/>
      </g>
      <path id="Path_14868" d="M71,178h0c0-.2,10-13.8,21.4-18.4h0v.1h0c-11.3,4.6-21.2,18.1-21.3,18.3h-.2Z" fill="#011721"/>
      <path id="Path_14869" d="M77,155.6h0a113.321,113.321,0,0,0,.6-15.4h0a131.315,131.315,0,0,1-.6,15.4Z" fill="#011721"/>
      <path id="Path_14870" d="M60.9,187h0a40.441,40.441,0,0,1-8.6-6.3h0v-.1a48.746,48.746,0,0,0,8.6,6.3h0Z" fill="#011721"/>
    </g>
    <g id="computer">
      <rect id="laptop" width="71.9" height="2.9" rx="1" transform="translate(78.7 109.3)" fill="#011721"/>
      <path id="Path_14871" d="M80.2,109.2h51.9L117.9,72l-52.1-.8,14.4,38h0Z" fill="#011721"/>
      <path id="Path_14872" d="M81.5,109.2h49.4L117,73.1l-49.6-.8,14,36.9h.1Z" fill="#fff"/>
      <path id="Path_16642" d="M81.5,109.2h49.4L117,73.1l-49.6-.8,14,36.9h.1Z" fill="#fad02c" opacity="0.2"/>
      <g id="_10101010" opacity="0.5">
        <path id="Path_14873" d="M45.3,82.7h.3L47,86.4h-.3l-1.3-3.3h0l-.5.2h0v-.2h0l.5-.3h0Z" fill="#011721"/>
        <path id="Path_14874" d="M46.8,82.7h.3l1.4,3.7h-.3l-1.3-3.3h0l-.5.2h0v-.2h0l.5-.3h-.1Z" fill="#011721"/>
        <path id="Path_14875" d="M49.6,86.3a1.794,1.794,0,0,1-.5-.7l-.8-2v-.7c0-.2.3-.3.6-.3a.829.829,0,0,1,.8.3,1.794,1.794,0,0,1,.5.7l.8,2v.7c0,.2-.3.3-.6.3a.829.829,0,0,1-.8-.3Zm1-.2v-.5l-.8-2c0-.2-.2-.3-.3-.5a1.23,1.23,0,0,0-.5-.2c-.2,0-.3,0-.3.2v.5l.8,2c0,.2.2.3.3.5a1.23,1.23,0,0,0,.5.2c.2,0,.3,0,.3-.2Z" fill="#011721"/>
        <path id="Path_14876" d="M52.3,86.3a1.794,1.794,0,0,1-.5-.7l-.8-2v-.7c0-.2.3-.3.6-.3a.829.829,0,0,1,.8.3,1.794,1.794,0,0,1,.5.7l.8,2v.7c0,.2-.3.3-.6.3a.829.829,0,0,1-.8-.3Zm1-.2v-.5l-.8-2c0-.2-.2-.3-.3-.5a1.23,1.23,0,0,0-.5-.2c-.2,0-.3,0-.3.2v.5l.8,2c0,.2.2.3.3.5a1.23,1.23,0,0,0,.5.2C53.2,86.3,53.3,86.3,53.3,86.1Z" fill="#011721"/>
        <path id="Path_14877" d="M54.9,86.3a1.794,1.794,0,0,1-.5-.7l-.8-2v-.7c0-.2.3-.3.6-.3a.829.829,0,0,1,.8.3,1.794,1.794,0,0,1,.5.7l.8,2v.7c0,.2-.4.3-.6.3A.829.829,0,0,1,54.9,86.3Zm1-.2v-.5l-.8-2c0-.2-.2-.3-.3-.5a1.23,1.23,0,0,0-.5-.2c-.2,0-.3,0-.3.2v.5l.8,2c0,.2.2.3.3.5a1.23,1.23,0,0,0,.5.2C55.8,86.3,55.9,86.3,55.9,86.1Z" fill="#011721"/>
        <path id="Path_14878" d="M56.4,82.7h.3l1.4,3.7h-.3l-1.3-3.3h0l-.5.2h0v-.2h0l.5-.3h-.1Z" fill="#011721"/>
        <path id="Path_14879" d="M59.2,86.3a1.794,1.794,0,0,1-.5-.7l-.8-2v-.7c0-.2.3-.3.6-.3a.829.829,0,0,1,.8.3,1.794,1.794,0,0,1,.5.7l.8,2v.7c0,.2-.3.3-.6.3a.829.829,0,0,1-.8-.3Zm1-.2v-.5l-.8-2c0-.2-.2-.3-.3-.5a1.23,1.23,0,0,0-.5-.2c-.2,0-.3,0-.3.2v.5l.8,2c0,.2.2.3.3.5a1.23,1.23,0,0,0,.5.2C60.1,86.3,60.2,86.3,60.2,86.1Z" fill="#011721"/>
        <path id="Path_14880" d="M60.7,82.7H61l1.4,3.7h-.3l-1.3-3.3h0l-.5.2h0v-.2h0l.5-.3h-.1Z" fill="#011721"/>
        <path id="Path_14881" d="M63.5,86.3a1.794,1.794,0,0,1-.5-.7l-.8-2v-.7c0-.2.3-.3.6-.3a.829.829,0,0,1,.8.3,1.794,1.794,0,0,1,.5.7l.8,2v.7c0,.2-.3.3-.6.3a.829.829,0,0,1-.8-.3Zm1-.2v-.5l-.8-2c0-.2-.2-.3-.3-.5a1.23,1.23,0,0,0-.5-.2c-.2,0-.3,0-.3.2v.5l.8,2c0,.2.2.3.3.5a1.23,1.23,0,0,0,.5.2C64.4,86.3,64.5,86.3,64.5,86.1Z" fill="#011721"/>
        <path id="Path_14882" d="M65,82.7h.3l1.4,3.7h-.3l-1.3-3.3h0l-.5.2h0v-.2h0l.5-.3h0Z" fill="#011721"/>
        <path id="Path_14883" d="M66.5,82.7h.3l1.4,3.7h-.3l-1.3-3.3h0l-.5.2h0v-.2h0l.5-.3h0Z" fill="#011721"/>
        <path id="Path_14884" d="M68,82.7h.3l1.4,3.7h-.3l-1.3-3.3h0l-.5.2h0v-.2h0l.5-.3h0Z" fill="#011721"/>
        <path id="Path_14885" d="M69.6,82.7h.3l1.4,3.7H71l-1.3-3.3h0l-.5.2h0v-.2h0l.5-.3h0Z" fill="#011721"/>
        <path id="Path_14886" d="M72.4,86.3a1.794,1.794,0,0,1-.5-.7l-.8-2v-.7c0-.2.3-.3.6-.3a.829.829,0,0,1,.8.3,1.794,1.794,0,0,1,.5.7l.8,2v.7c0,.2-.3.3-.6.3A.829.829,0,0,1,72.4,86.3Zm1-.2v-.5l-.8-2c0-.2-.2-.3-.3-.5a1.23,1.23,0,0,0-.5-.2c-.2,0-.3,0-.3.2v.5l.8,2c0,.2.2.3.3.5a1.23,1.23,0,0,0,.5.2C73.3,86.3,73.4,86.3,73.4,86.1Z" fill="#011721"/>
        <path id="Path_14887" d="M75.1,86.3a1.794,1.794,0,0,1-.5-.7l-.8-2v-.7c0-.2.3-.3.6-.3a.829.829,0,0,1,.8.3,1.794,1.794,0,0,1,.5.7l.8,2v.7c0,.2-.3.3-.6.3A.829.829,0,0,1,75.1,86.3Zm.9-.2v-.5l-.8-2c0-.2-.2-.3-.3-.5a1.23,1.23,0,0,0-.5-.2c-.2,0-.3,0-.3.2v.5l.8,2c0,.2.2.3.3.5a1.23,1.23,0,0,0,.5.2C75.9,86.3,76,86.3,76,86.1Z" fill="#011721"/>
        <path id="Path_14888" d="M77.7,86.3a1.794,1.794,0,0,1-.5-.7l-.8-2v-.7c0-.2.3-.3.6-.3a.829.829,0,0,1,.8.3,1.794,1.794,0,0,1,.5.7l.8,2v.7c0,.2-.4.3-.6.3A.829.829,0,0,1,77.7,86.3Zm1-.2v-.5l-.8-2c0-.2-.2-.3-.3-.5a1.23,1.23,0,0,0-.5-.2c-.2,0-.3,0-.3.2v.5l.8,2c0,.2.2.3.3.5a1.23,1.23,0,0,0,.5.2C78.6,86.3,78.7,86.3,78.7,86.1Z" fill="#011721"/>
        <path id="Path_14889" d="M80.4,86.3a1.794,1.794,0,0,1-.5-.7l-.8-2v-.7c0-.2.3-.3.6-.3a.829.829,0,0,1,.8.3,1.794,1.794,0,0,1,.5.7l.8,2v.7c0,.2-.3.3-.6.3A.829.829,0,0,1,80.4,86.3Zm1-.2v-.5l-.8-2c0-.2-.2-.3-.3-.5a1.23,1.23,0,0,0-.5-.2c-.2,0-.3,0-.3.2v.5l.8,2c0,.2.2.3.3.5a1.23,1.23,0,0,0,.5.2C81.3,86.3,81.4,86.3,81.4,86.1Z" fill="#011721"/>
        <path id="Path_14890" d="M83.1,86.3a1.794,1.794,0,0,1-.5-.7l-.8-2v-.7c0-.2.3-.3.6-.3a.829.829,0,0,1,.8.3,1.794,1.794,0,0,1,.5.7l.8,2v.7c0,.2-.3.3-.6.3A.829.829,0,0,1,83.1,86.3Zm1-.2v-.5l-.8-2c0-.2-.2-.3-.3-.5a1.23,1.23,0,0,0-.5-.2c-.2,0-.3,0-.3.2v.5l.8,2c0,.2.2.3.3.5a1.23,1.23,0,0,0,.5.2C84,86.3,84.1,86.3,84.1,86.1Z" fill="#011721"/>
        <path id="Path_14891" d="M84.5,82.7h.3l1.4,3.7h-.3l-1.3-3.3h0l-.5.2h0v-.2h0l.5-.3h0Z" fill="#011721"/>
        <path id="Path_14892" d="M47.8,89.3h.3L49.5,93h-.3l-1.3-3.3h0l-.5.2h0v-.2h0l.5-.3h0Z" fill="#011721"/>
        <path id="Path_14893" d="M49.3,89.3h.3L51,93h-.3l-1.3-3.3h0l-.5.2h0v-.2h0l.5-.3h0Z" fill="#011721"/>
        <path id="Path_14894" d="M50.8,89.3h.3L52.5,93h-.3l-1.3-3.3h0l-.5.2h0v-.2h0l.5-.3h0Z" fill="#011721"/>
        <path id="Path_14895" d="M53.6,92.9a1.794,1.794,0,0,1-.5-.7l-.8-2v-.7c0-.2.3-.3.6-.3a.829.829,0,0,1,.8.3,1.794,1.794,0,0,1,.5.7l.8,2v.7c0,.2-.4.3-.6.3A.829.829,0,0,1,53.6,92.9Zm1-.2v-.5l-.8-2c0-.2-.2-.3-.3-.5a1.23,1.23,0,0,0-.5-.2c-.2,0-.3,0-.3.2v.5l.8,2c0,.2.2.3.3.5a1.23,1.23,0,0,0,.5.2c.2,0,.3,0,.3-.2Z" fill="#011721"/>
        <path id="Path_14896" d="M55.1,89.3h.3L56.8,93h-.3l-1.3-3.3h0l-.5.2h0v-.2h0l.5-.3h0Z" fill="#011721"/>
        <path id="Path_14897" d="M57.9,92.9a1.794,1.794,0,0,1-.5-.7l-.8-2v-.7c0-.2.3-.3.6-.3a.829.829,0,0,1,.8.3,1.794,1.794,0,0,1,.5.7l.8,2v.7c0,.2-.4.3-.6.3a.829.829,0,0,1-.8-.3Zm1-.2v-.5l-.8-2c0-.2-.2-.3-.3-.5a1.23,1.23,0,0,0-.5-.2c-.2,0-.3,0-.3.2v.5l.8,2c0,.2.2.3.3.5a1.23,1.23,0,0,0,.5.2c.2,0,.3,0,.3-.2Z" fill="#011721"/>
        <path id="Path_14898" d="M59.4,89.3h.3L61.1,93h-.3l-1.3-3.3h0l-.5.2h0v-.2h0l.5-.3h0Z" fill="#011721"/>
        <path id="Path_14899" d="M62.2,92.9a1.794,1.794,0,0,1-.5-.7l-.8-2v-.7c0-.2.3-.3.6-.3a.829.829,0,0,1,.8.3,1.794,1.794,0,0,1,.5.7l.8,2v.7c0,.2-.4.3-.6.3A.829.829,0,0,1,62.2,92.9Zm1-.2v-.5l-.8-2c0-.2-.2-.3-.3-.5a1.23,1.23,0,0,0-.5-.2c-.2,0-.3,0-.3.2v.5l.8,2c0,.2.2.3.3.5a1.23,1.23,0,0,0,.5.2c.2,0,.3,0,.3-.2Z" fill="#011721"/>
        <path id="Path_14900" d="M63.7,89.3H64L65.4,93h-.3l-1.3-3.3h0l-.5.2h0v-.2h0l.5-.3h0Z" fill="#011721"/>
        <path id="Path_14901" d="M65.2,89.3h.3L66.9,93h-.3l-1.3-3.3h0l-.5.2h0v-.2h0l.5-.3h0Z" fill="#011721"/>
        <path id="Path_14902" d="M66.7,89.3H67L68.4,93h-.3l-1.3-3.3h0l-.5.2h0v-.2h0l.5-.3h0Z" fill="#011721"/>
        <path id="Path_14903" d="M69.6,92.9a1.794,1.794,0,0,1-.5-.7l-.8-2v-.7c0-.2.3-.3.6-.3a.829.829,0,0,1,.8.3,1.794,1.794,0,0,1,.5.7l.8,2v.7c0,.2-.4.3-.6.3A.829.829,0,0,1,69.6,92.9Zm1-.2v-.5l-.8-2c0-.2-.2-.3-.3-.5a1.23,1.23,0,0,0-.5-.2c-.2,0-.3,0-.3.2v.5l.8,2c0,.2.2.3.3.5a1.23,1.23,0,0,0,.5.2c.2,0,.3,0,.3-.2Z" fill="#011721"/>
        <path id="Path_14904" d="M72.2,92.9a1.794,1.794,0,0,1-.5-.7l-.8-2v-.7c0-.2.3-.3.6-.3a.829.829,0,0,1,.8.3,1.794,1.794,0,0,1,.5.7l.8,2v.7c0,.2-.4.3-.6.3A.829.829,0,0,1,72.2,92.9Zm1-.2v-.5l-.8-2c0-.2-.2-.3-.3-.5a1.23,1.23,0,0,0-.5-.2c-.2,0-.3,0-.3.2v.5l.8,2c0,.2.2.3.3.5a1.23,1.23,0,0,0,.5.2c.2,0,.3,0,.3-.2Z" fill="#011721"/>
        <path id="Path_14905" d="M74.9,92.9a1.794,1.794,0,0,1-.5-.7l-.8-2v-.7c0-.2.3-.3.6-.3a.829.829,0,0,1,.8.3,1.794,1.794,0,0,1,.5.7l.8,2v.7c0,.2-.4.3-.6.3A.829.829,0,0,1,74.9,92.9Zm1-.2v-.5l-.8-2c0-.2-.2-.3-.3-.5a1.23,1.23,0,0,0-.5-.2c-.2,0-.3,0-.3.2v.5l.8,2c0,.2.2.3.3.5a1.23,1.23,0,0,0,.5.2c.2,0,.3,0,.3-.2Z" fill="#011721"/>
        <path id="Path_14906" d="M76.4,89.3h.3L78.1,93h-.3l-1.3-3.3h0l-.5.2h0v-.2h0l.5-.3h0Z" fill="#011721"/>
        <path id="Path_14907" d="M77.9,89.3h.3L79.6,93h-.3L78,89.7h0l-.5.2h0v-.2h0l.5-.3h0Z" fill="#011721"/>
        <path id="Path_14908" d="M80.7,92.9a1.794,1.794,0,0,1-.5-.7l-.8-2v-.7c0-.2.3-.3.6-.3a.829.829,0,0,1,.8.3,1.794,1.794,0,0,1,.5.7l.8,2v.7c0,.2-.4.3-.6.3A.829.829,0,0,1,80.7,92.9Zm1-.2v-.5l-.8-2c0-.2-.2-.3-.3-.5a1.23,1.23,0,0,0-.5-.2c-.2,0-.3,0-.3.2v.5l.8,2c0,.2.2.3.3.5a1.23,1.23,0,0,0,.5.2c.2,0,.3,0,.3-.2Z" fill="#011721"/>
        <path id="Path_14909" d="M83.4,92.9a1.794,1.794,0,0,1-.5-.7l-.8-2v-.7c0-.2.3-.3.6-.3a.829.829,0,0,1,.8.3,1.794,1.794,0,0,1,.5.7l.8,2v.7c0,.2-.4.3-.6.3a.829.829,0,0,1-.8-.3Zm1-.2v-.5l-.8-2c0-.2-.2-.3-.3-.5a1.23,1.23,0,0,0-.5-.2c-.2,0-.3,0-.3.2v.5l.8,2c0,.2.2.3.3.5a1.23,1.23,0,0,0,.5.2c.2,0,.3,0,.3-.2Z" fill="#011721"/>
        <path id="Path_14910" d="M84.9,89.3h.3L86.6,93h-.3L85,89.7h0l-.5.2h0v-.2h0l.5-.3h0Z" fill="#011721"/>
        <path id="Path_14911" d="M51.5,99.6a1.794,1.794,0,0,1-.5-.7l-.8-2v-.7c0-.2.3-.3.6-.3a.829.829,0,0,1,.8.3,1.794,1.794,0,0,1,.5.7l.8,2v.7c0,.2-.4.3-.6.3A.829.829,0,0,1,51.5,99.6Zm1-.3v-.5l-.8-2c0-.2-.2-.3-.3-.5a1.23,1.23,0,0,0-.5-.2c-.2,0-.3,0-.3.2v.5l.8,2c0,.2.2.3.3.5a1.23,1.23,0,0,0,.5.2c.2,0,.3,0,.3-.2Z" fill="#011721"/>
        <path id="Path_14912" d="M54.2,99.6a1.794,1.794,0,0,1-.5-.7l-.8-2v-.7c0-.2.3-.3.6-.3a.829.829,0,0,1,.8.3,1.794,1.794,0,0,1,.5.7l.8,2v.7c0,.2-.4.3-.6.3A.829.829,0,0,1,54.2,99.6Zm1-.3v-.5l-.8-2c0-.2-.2-.3-.3-.5a1.23,1.23,0,0,0-.5-.2c-.2,0-.3,0-.3.2v.5l.8,2c0,.2.2.3.3.5a1.23,1.23,0,0,0,.5.2C55.1,99.5,55.2,99.5,55.2,99.3Z" fill="#011721"/>
        <path id="Path_14913" d="M55.6,95.9h.3l1.4,3.7H57l-1.3-3.3h0l-.5.2h0v-.2h0l.5-.3h0Z" fill="#011721"/>
        <path id="Path_14914" d="M57.2,95.9h.3l1.4,3.7h-.3l-1.3-3.3h0l-.5.2h0v-.2h0l.5-.3h-.1Z" fill="#011721"/>
        <path id="Path_14915" d="M58.7,95.9H59l1.4,3.7h-.3l-1.3-3.3h0l-.5.2h0v-.2h0l.5-.3h0Z" fill="#011721"/>
        <path id="Path_14916" d="M60.2,95.9h.3l1.4,3.7h-.3l-1.3-3.3h0l-.5.2h0v-.2h0l.5-.3h0Z" fill="#011721"/>
        <path id="Path_14917" d="M63,99.6a1.794,1.794,0,0,1-.5-.7l-.8-2v-.7c0-.2.3-.3.6-.3a.829.829,0,0,1,.8.3,1.794,1.794,0,0,1,.5.7l.8,2v.7c0,.2-.4.3-.6.3a.829.829,0,0,1-.8-.3Zm1-.3v-.5l-.8-2c0-.2-.2-.3-.3-.5a1.23,1.23,0,0,0-.5-.2c-.2,0-.3,0-.3.2v.5l.8,2c0,.2.2.3.3.5a1.23,1.23,0,0,0,.5.2C63.9,99.5,64,99.5,64,99.3Z" fill="#011721"/>
        <path id="Path_14918" d="M65.7,99.6a1.794,1.794,0,0,1-.5-.7l-.8-2v-.7c0-.2.3-.3.6-.3a.829.829,0,0,1,.8.3,1.794,1.794,0,0,1,.5.7l.8,2v.7c0,.2-.4.3-.6.3A.829.829,0,0,1,65.7,99.6Zm1-.3v-.5l-.8-2c0-.2-.2-.3-.3-.5a1.23,1.23,0,0,0-.5-.2c-.2,0-.3,0-.3.2v.5l.8,2c0,.2.2.3.3.5a1.23,1.23,0,0,0,.5.2C66.6,99.5,66.7,99.5,66.7,99.3Z" fill="#011721"/>
        <path id="Path_14919" d="M67.2,95.9h.3l1.4,3.7h-.3l-1.3-3.3h0l-.5.2h0v-.2h0l.5-.3h0Z" fill="#011721"/>
        <path id="Path_14920" d="M68.7,95.9H69l1.4,3.7h-.3l-1.3-3.3h0l-.5.2h0v-.2h0l.5-.3h0Z" fill="#011721"/>
        <path id="Path_14921" d="M71.5,99.6a1.794,1.794,0,0,1-.5-.7l-.8-2v-.7c0-.2.3-.3.6-.3a.829.829,0,0,1,.8.3,1.794,1.794,0,0,1,.5.7l.8,2v.7c0,.2-.4.3-.6.3A.829.829,0,0,1,71.5,99.6Zm1-.3v-.5l-.8-2c0-.2-.2-.3-.3-.5a1.23,1.23,0,0,0-.5-.2c-.2,0-.3,0-.3.2v.5l.8,2c0,.2.2.3.3.5a1.23,1.23,0,0,0,.5.2C72.4,99.5,72.5,99.5,72.5,99.3Z" fill="#011721"/>
        <path id="Path_14922" d="M54,106.2a1.794,1.794,0,0,1-.5-.7l-.8-2v-.7c0-.2.3-.3.6-.3a.829.829,0,0,1,.8.3,1.794,1.794,0,0,1,.5.7l.8,2v.7c0,.2-.4.3-.6.3A.829.829,0,0,1,54,106.2Zm1-.3v-.5l-.8-2c0-.2-.2-.3-.3-.5a1.23,1.23,0,0,0-.5-.2c-.2,0-.3,0-.3.2v.5l.8,2c0,.2.2.3.3.5a1.23,1.23,0,0,0,.5.2c.2,0,.3,0,.3-.2Z" fill="#011721"/>
        <path id="Path_14923" d="M56.7,106.2a1.794,1.794,0,0,1-.5-.7l-.8-2v-.7c0-.2.3-.3.6-.3a.829.829,0,0,1,.8.3,1.794,1.794,0,0,1,.5.7l.8,2v.7c0,.2-.4.3-.6.3A.829.829,0,0,1,56.7,106.2Zm1-.3v-.5l-.8-2c0-.2-.2-.3-.3-.5a1.23,1.23,0,0,0-.5-.2c-.2,0-.3,0-.3.2v.5l.8,2c0,.2.2.3.3.5a1.23,1.23,0,0,0,.5.2c.2,0,.3,0,.3-.2Z" fill="#011721"/>
        <path id="Path_14924" d="M59.4,106.2a1.794,1.794,0,0,1-.5-.7l-.8-2v-.7c0-.2.3-.3.6-.3a.829.829,0,0,1,.8.3,1.794,1.794,0,0,1,.5.7l.8,2v.7c0,.2-.4.3-.6.3A.829.829,0,0,1,59.4,106.2Zm.9-.3v-.5l-.8-2c0-.2-.2-.3-.3-.5a1.23,1.23,0,0,0-.5-.2c-.2,0-.3,0-.3.2v.5l.8,2c0,.2.2.3.3.5a1.23,1.23,0,0,0,.5.2c.2,0,.3,0,.3-.2Z" fill="#011721"/>
        <path id="Path_14925" d="M60.8,102.5h.3l1.4,3.7h-.3l-1.3-3.3h0l-.5.2h0v-.2h0l.5-.3h0Z" fill="#011721"/>
        <path id="Path_14926" d="M62.3,102.5h.3l1.4,3.7h-.3l-1.3-3.3h0l-.5.2h0v-.2h0l.5-.3h0Z" fill="#011721"/>
        <path id="Path_14927" d="M63.9,102.5h.3l1.4,3.7h-.3L64,102.9h0l-.5.2h0v-.2h0l.5-.3h0Z" fill="#011721"/>
        <path id="Path_14928" d="M65.4,102.5h.3l1.4,3.7h-.3l-1.3-3.3h0l-.5.2h0v-.2h0l.5-.3h0Z" fill="#011721"/>
        <path id="Path_14929" d="M66.9,102.5h.3l1.4,3.7h-.3L67,102.9h0l-.5.2h0v-.2h0l.5-.3h0Z" fill="#011721"/>
        <path id="Path_14930" d="M69.7,106.2a1.794,1.794,0,0,1-.5-.7l-.8-2v-.7c0-.2.3-.3.6-.3a.829.829,0,0,1,.8.3,1.794,1.794,0,0,1,.5.7l.8,2v.7c0,.2-.4.3-.6.3A.829.829,0,0,1,69.7,106.2Zm1-.3v-.5l-.8-2c0-.2-.2-.3-.3-.5a1.23,1.23,0,0,0-.5-.2c-.2,0-.3,0-.3.2v.5l.8,2c0,.2.2.3.3.5a1.23,1.23,0,0,0,.5.2c.2,0,.3,0,.3-.2Z" fill="#011721"/>
        <path id="Path_14931" d="M72.4,106.2a1.794,1.794,0,0,1-.5-.7l-.8-2v-.7c0-.2.3-.3.6-.3a.829.829,0,0,1,.8.3,1.794,1.794,0,0,1,.5.7l.8,2v.7c0,.2-.4.3-.6.3A.829.829,0,0,1,72.4,106.2Zm1-.3v-.5l-.8-2c0-.2-.2-.3-.3-.5a1.23,1.23,0,0,0-.5-.2c-.2,0-.3,0-.3.2v.5l.8,2c0,.2.2.3.3.5a1.23,1.23,0,0,0,.5.2C73.3,106.1,73.4,106.1,73.4,105.9Z" fill="#011721"/>
        <path id="Path_14932" d="M73.9,102.5h.3l1.4,3.7h-.3L74,102.9h0l-.5.2h0v-.2h0l.5-.3h0Z" fill="#011721"/>
        <path id="Path_14933" d="M76.7,106.2a1.794,1.794,0,0,1-.5-.7l-.8-2v-.7c0-.2.3-.3.6-.3a.829.829,0,0,1,.8.3,1.794,1.794,0,0,1,.5.7l.8,2v.7c0,.2-.4.3-.6.3A.829.829,0,0,1,76.7,106.2Zm1-.3v-.5l-.8-2c0-.2-.2-.3-.3-.5a1.23,1.23,0,0,0-.5-.2c-.2,0-.3,0-.3.2v.5l.8,2c0,.2.2.3.3.5a1.23,1.23,0,0,0,.5.2C77.6,106.1,77.7,106.1,77.7,105.9Z" fill="#011721"/>
        <path id="Path_14934" d="M78.2,102.5h.3l1.4,3.7h-.3l-1.3-3.3h0l-.5.2h0v-.2h0l.5-.3h0Z" fill="#011721"/>
        <path id="Path_14935" d="M81,106.2a1.794,1.794,0,0,1-.5-.7l-.8-2v-.7c0-.2.3-.3.6-.3a.829.829,0,0,1,.8.3,1.794,1.794,0,0,1,.5.7l.8,2v.7c0,.2-.4.3-.6.3A.829.829,0,0,1,81,106.2Zm1-.3v-.5l-.8-2c0-.2-.2-.3-.3-.5a1.23,1.23,0,0,0-.5-.2c-.2,0-.3,0-.3.2v.5l.8,2c0,.2.2.3.3.5a1.23,1.23,0,0,0,.5.2c.2,0,.3,0,.3-.2Z" fill="#011721"/>
        <path id="Path_14936" d="M82.5,102.5h.3l1.4,3.7h-.3l-1.3-3.3h0l-.5.2h0v-.2h0l.5-.3h0Z" fill="#011721"/>
        <path id="Path_14937" d="M85.3,106.2a1.794,1.794,0,0,1-.5-.7l-.8-2v-.7c0-.2.3-.3.6-.3a.829.829,0,0,1,.8.3,1.794,1.794,0,0,1,.5.7l.8,2v.7c0,.2-.4.3-.6.3A.829.829,0,0,1,85.3,106.2Zm1-.3v-.5l-.8-2c0-.2-.2-.3-.3-.5a1.23,1.23,0,0,0-.5-.2c-.2,0-.3,0-.3.2v.5l.8,2c0,.2.2.3.3.5a1.23,1.23,0,0,0,.5.2c.2,0,.3,0,.3-.2Z" fill="#011721"/>
        <path id="Path_14938" d="M88,106.2a1.794,1.794,0,0,1-.5-.7l-.8-2v-.7c0-.2.3-.3.6-.3a.829.829,0,0,1,.8.3,1.794,1.794,0,0,1,.5.7l.8,2v.7c0,.2-.4.3-.6.3A.829.829,0,0,1,88,106.2Zm.9-.3v-.5l-.8-2c0-.2-.2-.3-.3-.5a1.23,1.23,0,0,0-.5-.2c-.2,0-.3,0-.3.2v.5l.8,2c0,.2.2.3.3.5a1.23,1.23,0,0,0,.5.2C88.8,106.1,88.9,106.1,88.9,105.9Z" fill="#011721"/>
        <path id="Path_14939" d="M89.4,102.5h.3l1.4,3.7h-.3l-1.3-3.3h0l-.5.2h0v-.2h0l.5-.3h0Z" fill="#011721"/>
        <path id="Path_14940" d="M90.9,102.5h.3l1.4,3.7h-.3L91,102.9h0l-.5.2h0v-.2h0l.5-.3h0Z" fill="#011721"/>
        <path id="Path_14941" d="M93.8,106.2a1.794,1.794,0,0,1-.5-.7l-.8-2v-.7c0-.2.3-.3.6-.3a.829.829,0,0,1,.8.3,1.794,1.794,0,0,1,.5.7l.8,2v.7c0,.2-.4.3-.6.3A.829.829,0,0,1,93.8,106.2Zm1-.3v-.5l-.8-2c0-.2-.2-.3-.3-.5a1.23,1.23,0,0,0-.5-.2c-.2,0-.3,0-.3.2v.5l.8,2c0,.2.2.3.3.5a1.23,1.23,0,0,0,.5.2C94.7,106.1,94.8,106.1,94.8,105.9Z" fill="#011721"/>
        <path id="Path_14942" d="M96.4,106.2a1.794,1.794,0,0,1-.5-.7l-.8-2v-.7c0-.2.3-.3.6-.3a.829.829,0,0,1,.8.3,1.794,1.794,0,0,1,.5.7l.8,2v.7c0,.2-.4.3-.6.3A.829.829,0,0,1,96.4,106.2Zm1-.3v-.5l-.8-2c0-.2-.2-.3-.3-.5a1.23,1.23,0,0,0-.5-.2c-.2,0-.3,0-.3.2v.5l.8,2c0,.2.2.3.3.5a1.23,1.23,0,0,0,.5.2C97.3,106.1,97.4,106.1,97.4,105.9Z" fill="#011721"/>
        <path id="Path_14943" d="M97.9,102.5h.3l1.4,3.7h-.3L98,102.9h0l-.5.2h0v-.2h0l.5-.3h0Z" fill="#011721"/>
        <path id="Path_14944" d="M99.4,102.5h.3l1.4,3.7h-.3l-1.3-3.3h0l-.5.2h0v-.2h0l.5-.3h0Z" fill="#011721"/>
        <path id="Path_14945" d="M102.3,106.2a1.794,1.794,0,0,1-.5-.7l-.8-2v-.7c0-.2.3-.3.6-.3a.829.829,0,0,1,.8.3,1.794,1.794,0,0,1,.5.7l.8,2v.7c0,.2-.4.3-.6.3A.829.829,0,0,1,102.3,106.2Zm.9-.3v-.5l-.8-2c0-.2-.2-.3-.3-.5a1.23,1.23,0,0,0-.5-.2c-.2,0-.3,0-.3.2v.5l.8,2c0,.2.2.3.3.5a1.23,1.23,0,0,0,.5.2c.2,0,.3,0,.3-.2Z" fill="#011721"/>
        <path id="Path_14946" d="M104.9,106.2a1.794,1.794,0,0,1-.5-.7l-.8-2v-.7c0-.2.3-.3.6-.3a.829.829,0,0,1,.8.3,1.794,1.794,0,0,1,.5.7l.8,2v.7c0,.2-.4.3-.6.3A.829.829,0,0,1,104.9,106.2Zm1-.3v-.5l-.8-2c0-.2-.2-.3-.3-.5a1.23,1.23,0,0,0-.5-.2c-.2,0-.3,0-.3.2v.5l.8,2c0,.2.2.3.3.5a1.23,1.23,0,0,0,.5.2c.2,0,.3,0,.3-.2Z" fill="#011721"/>
      </g>
      <g id="popup">
        <path id="Path_14947" d="M117.4,105.3H89.8L82.6,86.4h27.6Z" fill="#fad02c"/>
        <path id="Path_14948" d="M119.1,102.4H91.5L84.3,83.5h27.6Z" fill="#fff"/>
        <path id="Path_16643" d="M119.1,102.4H91.5L84.3,83.5h27.6Z" fill="#fad02c" opacity="0.1"/>
        <path id="Path_14949" d="M111.9,83.4l-10.2,9.5L84.3,83.4Z" fill="#fad02c" opacity="0.9"/>
        <path id="Path_14950" d="M98.5,91.1l3.2,1.8,2.6-2.4,14.8,11.9H91.5l6.9-11.2h0Z" fill="#fad02c" opacity="0.5"/>
        <path id="Path_14951" d="M49.1,55.2H83.3A4.174,4.174,0,0,1,87,57.9L97,84.3c.6,1.5-.2,2.7-1.6,2.7H61.2a4.174,4.174,0,0,1-3.7-2.7l-10-26.4C46.9,56.4,47.7,55.2,49.1,55.2Z" fill="#fa6e53"/>
        <g id="dangerus">
          <path id="Path_14952" d="M74.5,63.2c-1.1-3-4.5-5.4-7.5-5.2-2.5,0-3.9,2.1-3.2,4.7a8.921,8.921,0,0,0,3.4,4.5,23.48,23.48,0,0,1,2.5,1.9,2.485,2.485,0,0,0,2,.7c.7,0,1.3,0,1.5-.7a7.572,7.572,0,0,1,.9-1.8,4.1,4.1,0,0,0,.4-4h0Z" fill="url(#linear-gradient)"/>
          <path id="Path_14953" d="M83.2,78.1s-.2.3-.6,0h-.3L65.9,70.8h-.3a1.02,1.02,0,0,1-.5-.8,2.913,2.913,0,0,0-2-2.8c-1.2-.5-2.4,0-2.5.9a2.64,2.64,0,0,0,.7,1.9,1.278,1.278,0,0,0-1.2,1.1,2.913,2.913,0,0,0,2,2.8c1.2.5,2.4,0,2.5-.9,0,0,.2-.3.6,0h.3l16.4,7.3h.3a1.02,1.02,0,0,1,.5.8,2.913,2.913,0,0,0,2,2.8c1.2.5,2.4,0,2.5-.9a2.64,2.64,0,0,0-.7-1.9A1.278,1.278,0,0,0,87.7,80a2.913,2.913,0,0,0-2-2.8C84.5,76.7,83.3,77.2,83.2,78.1Z" fill="url(#linear-gradient-2)"/>
          <path id="Path_14954" d="M66.5,78.1c.2.2.5.3.7,0h.2l11-7.3h.2c.3-.3,0-.7,0-.8-.9-1-1-2.3-.2-2.8s2.2,0,3.2.9.8,1.2.7,1.9a2.716,2.716,0,0,1,2,1.1c.9,1,1,2.3.2,2.8s-2.2,0-3.2-.9-.5-.3-.7,0h-.2l-11,7.3h-.2c-.3.3,0,.7,0,.8.9,1,1,2.3.2,2.8s-2.2,0-3.2-.9-.8-1.2-.7-1.9a2.716,2.716,0,0,1-2-1.1c-.9-1-1-2.3-.2-2.8S65.5,77.2,66.5,78.1Z" fill="url(#linear-gradient-3)"/>
        </g>
      </g>
      <g id="lines">
        <path id="Path_14955" d="M108.4,77.7h-3.3a.2.2,0,0,1-.2-.2v-.2h3.3a.2.2,0,0,1,.2.2v.2Z" fill="#011721"/>
        <path id="Path_14956" d="M111.2,77.7h-1.6a.2.2,0,0,1-.2-.2v-.2H111a.2.2,0,0,1,.2.2v.2Z" fill="#011721"/>
        <path id="Path_14957" d="M115.5,77.7h-3.6a.2.2,0,0,1-.2-.2v-.2h3.6a.2.2,0,0,1,.2.2Z" fill="#011721"/>
        <path id="Path_14958" d="M107.7,78.9h-2.1a.2.2,0,0,1-.2-.2v-.2h2.1a.2.2,0,0,1,.2.2v.2Z" fill="#011721"/>
        <path id="Path_14959" d="M108.9,78.9h-.4a.2.2,0,0,1-.2-.2v-.2h.4a.2.2,0,0,1,.2.2Z" fill="#011721"/>
        <path id="Path_14960" d="M112.1,78.9h-2.7a.2.2,0,0,1-.2-.2v-.2h2.7a.2.2,0,0,1,.2.2Z" fill="#011721"/>
        <path id="Path_14961" d="M114.7,78.9h-1.8a.2.2,0,0,1-.2-.2v-.2h1.8a.2.2,0,0,1,.2.2v.2Z" fill="#011721"/>
        <path id="Path_14962" d="M110.1,80.1H106a.2.2,0,0,1-.2-.2v-.2h4.1a.2.2,0,0,1,.2.2v.2Z" fill="#011721"/>
        <path id="Path_14963" d="M111.5,80.1h-.7a.2.2,0,0,1-.2-.2v-.2h.7a.2.2,0,0,1,.2.2v.2Z" fill="#011721"/>
        <path id="Path_14964" d="M112.8,80.1H112a.2.2,0,0,1-.2-.2v-.2h.8a.2.2,0,0,1,.2.2v.2Z" fill="#011721"/>
        <path id="Path_14965" d="M115.9,80.1h-2.3a.2.2,0,0,1-.2-.2v-.2h2.3a.2.2,0,0,1,.2.2v.2Z" fill="#011721"/>
      </g>
      <path id="Path_14966" d="M123.6,96.7l-.7-1.9a2.941,2.941,0,0,0-2.6-1.9,1.281,1.281,0,0,0-1.2,1.9l.7,1.9a.634.634,0,0,0-.6.5v.3l1.4,3.7a1.17,1.17,0,0,0,1.1.8h3.7a.547.547,0,0,0,.5-.8l-1.4-3.7a1.17,1.17,0,0,0-1.1-.8Zm-.6,3.5a1.149,1.149,0,0,1-.9-.6c0-.3,0-.6.4-.6a1.149,1.149,0,0,1,.9.6C123.4,99.9,123.4,100.2,123,100.2Zm-.4-3.5h-1.9l-.7-1.9a.6.6,0,0,1,.2-.8h.4a1.424,1.424,0,0,1,1.3.9l.7,1.9h0Z" fill="#fad02c"/>
    </g>
  </g>
</svg>
