<svg id="user_verification" xmlns="http://www.w3.org/2000/svg" width="339" height="200" viewBox="0 0 339 200">
  <rect id="back" width="339" height="200" fill="none"/>
  <g id="Group_5492">
    <path id="Path_25879" d="M209.5,133.9c-50.1-31.3-34-94.2-34-94.2,22.1-10.3,52.4-18.1,52.4-18.1s26.3,17,43.9,33.8c0,0-4.8,64.8-62.2,78.5" fill="#fff"/>
    <path id="Path_25880" d="M209.5,134.3h-.2a74.053,74.053,0,0,1-26.6-28.1,85.037,85.037,0,0,1-9.4-31.1,111.246,111.246,0,0,1,1.8-35.5.215.215,0,0,1,.2-.2c21.9-10.2,52.1-18,52.5-18.1h.3c.3.2,26.5,17.2,44,33.9a1.007,1.007,0,0,1,.1.3,109.7,109.7,0,0,1-9.6,34.2,86.517,86.517,0,0,1-18.8,26.5,74.335,74.335,0,0,1-34.1,18.1h0M175.8,40a111.787,111.787,0,0,0-1.7,35.1c2,17.8,9.9,42.4,35.5,58.5,29.4-7.1,44.6-27.9,52.2-44.1a107.93,107.93,0,0,0,9.5-33.8c-16.8-15.9-41.5-32.2-43.6-33.6-2.4.6-31,8.2-52,18"/>
    <path id="Path_25881" d="M211.4,122.2a59.181,59.181,0,0,1-19.3-21.1,68.825,68.825,0,0,1-7.7-25.3,97.477,97.477,0,0,1,.9-27.5c15.8-6.6,36.5-15.4,40.7-15.4,4,1.4,20.8,16.3,33.7,27.6a94.548,94.548,0,0,1-7.9,26.4,68.4,68.4,0,0,1-15.4,21.5,59.5,59.5,0,0,1-25,13.9" fill="#fa6e53"/>
    <path id="Path_25882" d="M214.5,103.7a34.533,34.533,0,0,1-11.3-12.4,41,41,0,0,1-4.5-14.8,57.848,57.848,0,0,1,.5-16.1c9.2-3.9,21.4-9,23.9-9,2.3.8,12.2,9.6,19.8,16.2a55.437,55.437,0,0,1-4.6,15.5,41.531,41.531,0,0,1-9,12.6,35.116,35.116,0,0,1-14.7,8.2" fill="#fff"/>
    <path id="Path_25883" d="M215.3,101.2a34.521,34.521,0,0,1-8.5-10.8,44.5,44.5,0,0,1-4.5-16,65.692,65.692,0,0,1,.1-14.7A70.719,70.719,0,0,1,222.3,56a71.857,71.857,0,0,1,17.9,9.6,69.574,69.574,0,0,1-4.3,14.1,47.283,47.283,0,0,1-9.1,13.8,34.287,34.287,0,0,1-11.4,7.7" fill="#fff"/>
    <path id="Path_25884" d="M214.1,83.1h0a1.991,1.991,0,0,1-1.2-.8L210,77.6a1.818,1.818,0,0,1,3.1-1.9h0l1.9,3.1,14-9.5a1.8,1.8,0,1,1,2,3L215.4,82.8a1.517,1.517,0,0,1-1.3.3" fill="#fa6e53"/>
    <path id="Path_25885" d="M282.8,35.2v8.6a5.591,5.591,0,0,1-5.6,5.6H231a5.591,5.591,0,0,1-5.6-5.6h0V35.2a5.591,5.591,0,0,1,5.6-5.6h46.1a5.591,5.591,0,0,1,5.6,5.6" fill="#fff"/>
    <path id="Path_25886" d="M277.2,49.7H231a6.018,6.018,0,0,1-6-6V35.1a6.018,6.018,0,0,1,6-6h46.1a6.018,6.018,0,0,1,6,6v8.6a6.018,6.018,0,0,1-6,6M231,29.9a5.228,5.228,0,0,0-5.2,5.2v8.6a5.228,5.228,0,0,0,5.2,5.2h46.2a5.228,5.228,0,0,0,5.2-5.2V35.1a5.335,5.335,0,0,0-5.3-5.3H231Z"/>
    <path id="Path_25887" d="M245.9,40.5c.2,0,.3.3.3.5a2.1,2.1,0,0,1-.4,1.1,2.178,2.178,0,0,1-.7.9.446.446,0,0,1-.5,0l-2.9-2.3.6,3.7c0,.2,0,.4-.2.5a4.479,4.479,0,0,1-2.3,0c-.2,0-.3-.3-.2-.5l.6-3.7L237.3,43a.454.454,0,0,1-.5,0,5.5,5.5,0,0,1-.7-.9,2.1,2.1,0,0,1-.4-1.1c0-.2,0-.4.3-.5l3.5-1.3L236,37.9c-.2,0-.3-.3-.3-.5a3.738,3.738,0,0,1,1.2-2,.446.446,0,0,1,.5,0l2.9,2.3-.6-3.7c0-.2,0-.4.2-.5a4.479,4.479,0,0,1,2.3,0c.2,0,.3.3.2.5l-.6,3.7,2.9-2.3a.454.454,0,0,1,.5,0,5.5,5.5,0,0,1,.7.9,2.1,2.1,0,0,1,.4,1.1c0,.2,0,.4-.3.5l-3.4,1.3,3.4,1.3Z" fill="#bb88fc"/>
    <path id="Path_25888" d="M261.4,40.5c.2,0,.3.3.3.5a2.1,2.1,0,0,1-.4,1.1,2.178,2.178,0,0,1-.7.9.446.446,0,0,1-.5,0l-2.9-2.3.6,3.7c0,.2,0,.4-.2.5a4.479,4.479,0,0,1-2.3,0c-.2,0-.3-.3-.2-.5l.6-3.7L252.8,43a.454.454,0,0,1-.5,0,5.5,5.5,0,0,1-.7-.9,2.1,2.1,0,0,1-.4-1.1c0-.2,0-.4.3-.5l3.5-1.3-3.5-1.3c-.2,0-.3-.3-.3-.5a3.738,3.738,0,0,1,1.2-2,.446.446,0,0,1,.5,0l2.9,2.3-.6-3.7c0-.2,0-.4.2-.5a4.479,4.479,0,0,1,2.3,0c.2,0,.3.3.2.5l-.6,3.7,2.9-2.3a.454.454,0,0,1,.5,0,5.5,5.5,0,0,1,.7.9,2.1,2.1,0,0,1,.4,1.1c0,.2,0,.4-.3.5l-3.4,1.3,3.4,1.3Z" fill="#bb88fc"/>
    <path id="Path_25889" d="M276.9,40.5c.2,0,.3.3.3.5a2.1,2.1,0,0,1-.4,1.1,2.178,2.178,0,0,1-.7.9.446.446,0,0,1-.5,0l-2.9-2.3.6,3.7c0,.2,0,.4-.2.5a4.479,4.479,0,0,1-2.3,0c-.2,0-.3-.3-.2-.5l.6-3.7L268.3,43a.454.454,0,0,1-.5,0,5.5,5.5,0,0,1-.7-.9,2.1,2.1,0,0,1-.4-1.1c0-.2,0-.4.3-.5l3.5-1.3L267,37.9c-.2,0-.3-.3-.3-.5a3.738,3.738,0,0,1,1.2-2,.446.446,0,0,1,.5,0l2.9,2.3-.6-3.7c0-.2,0-.4.2-.5a4.479,4.479,0,0,1,2.3,0c.2,0,.3.3.2.5l-.6,3.7,2.9-2.3a.454.454,0,0,1,.5,0,5.5,5.5,0,0,1,.7.9,2.1,2.1,0,0,1,.4,1.1c0,.2,0,.4-.3.5l-3.4,1.3,3.4,1.3Z" fill="#bb88fc"/>
    <path id="Path_25890" d="M133.9,97.2l16.8,10.1,2.4-26L166.7,85s7.2,38.1-7.8,43c-11.5,3.8-39.7-18.8-39.7-18.8" fill="#fff"/>
    <path id="Path_25891" d="M155.9,128.8c-12.7,0-35.9-18.5-37-19.3a.354.354,0,0,1,.5-.5c.3.2,28.2,22.4,39.3,18.7,13.9-4.6,8.1-39.2,7.6-42.3l-12.9-3.5L151,107.5c0,.2-.2.4-.4.3h-.2L133.6,97.7c-.2-.1-.2-.3-.1-.5s.3-.2.5-.1l16.3,9.8,2.4-25.4c0-.2.2-.4.4-.3h0l13.6,3.7q.15,0,.3.3a118.2,118.2,0,0,1,1.7,19.7c-.1,13.6-3.4,21.6-9.8,23.7a8.028,8.028,0,0,1-3.1.4"/>
    <path id="Path_25892" d="M139.6,70.4,60.9,86.7A5.729,5.729,0,1,0,62.8,98h.1l78.7-16.3a22.912,22.912,0,1,0-2-11.3m35.5-.4a12.947,12.947,0,1,1-15-10.5,12.912,12.912,0,0,1,15,10.5h0" fill="#f6eeff"/>
    <path id="Path_25893" d="M61.9,98.5a6.124,6.124,0,0,1-6.1-6.1,6.025,6.025,0,0,1,5.1-6l78.4-16.2a23.138,23.138,0,1,1,2.1,12L63,98.4a4.1,4.1,0,0,0-1.1.1M162.4,49.7a18.1,18.1,0,0,0-4,.4,22.522,22.522,0,0,0-18.5,20.4.265.265,0,0,1-.3.3L60.9,87.1a5.376,5.376,0,1,0,1.8,10.6l78.6-16.3c.2,0,.3,0,.4.2a22.462,22.462,0,1,0,20.4-31.9M139.6,70.4Zm22.7,15.1a13.3,13.3,0,1,1,2.3-.2,19.419,19.419,0,0,1-2.4.2m.2-25.8A12.6,12.6,0,1,0,175,72.3a8.2,8.2,0,0,0-.2-2.2,12.739,12.739,0,0,0-12.4-10.4"/>
    <path id="Path_25894" d="M74,70.2l7.1-1.3,2.4,13.7L63.9,86.1l-2-11.3,6.7-1.2,1,5.8,5.8-1-1.5-8.3Z" fill="#bb88fc"/>
    <path id="Path_25895" d="M63.6,86.6l-2.1-12,7.4-1.3,1,5.8,5.1-.9-1.5-8.3,7.8-1.4L83.9,83,63.6,86.6ZM62.3,75.2l1.9,10.5,18.9-3.4-2.3-13-6.3,1.1L76,78.7l-6.6,1.2-1-5.8-6,1.1Z"/>
    <path id="Path_25896" d="M119.1,199.6A318.522,318.522,0,0,1,107,169.9l-2.1-26.3,27.4,8.8s9.5,32.9,14.1,47.2H119.1Z" fill="#fff"/>
    <path id="Path_25897" d="M146.3,200c-.2,0-.3-.1-.4-.3-4.4-13.6-13.2-44.3-14-47l-26.6-8.6,2,25.7a302.021,302.021,0,0,0,12.1,29.6c0,.2,0,.4-.2.5-.2,0-.4,0-.5-.2h0c-6.6-13.8-12-29.6-12.1-29.8h0l-2.1-26.3c0-.2.1-.4.3-.4h.1l27.4,8.8a.215.215,0,0,1,.2.2c0,.3,9.5,33,14.1,47.2,0,.2,0,.4-.2.5h-.1"/>
    <path id="Path_25898" d="M111.1,199.6H82.3c2.1-17.4,5.4-43.4,5.9-45.8.8-3.6,32.2,3.9,32.2,3.9l-4,18.2-5.3,23.7Z" fill="#fff"/>
    <path id="Path_25899" d="M82.3,200h0c-.2,0-.3-.2-.3-.4,2.4-19.6,5.4-43.5,5.9-45.8a.935.935,0,0,1,.5-.7c3.8-2.4,31,4.1,32.1,4.3.2,0,.3.2.3.4s-.2.3-.4.3h0c-7.8-1.9-28.6-6.3-31.6-4.4-.2.1-.2.2-.2.3-.5,2.4-3.9,29.7-5.9,45.7,0,.2-.2.3-.4.3"/>
    <path id="Path_25900" d="M111.1,200h0c-.2,0-.3-.2-.3-.4l5.3-23.7c0-.2.2-.3.4-.3s.3.2.3.4h0l-5.3,23.7c0,.2-.2.3-.4.3"/>
    <path id="Path_25901" d="M131,146.2c2,1.3,3,5,4,8.1a2.083,2.083,0,0,1-.5,2c-3.2,3.1-13.8,6.5-26.9,5.1-11.7-1.2-21.7-5.6-22.4-7.3s1.8-8.4,1.8-8.4l44,.5Z" fill="#fad02c"/>
    <path id="Path_25902" d="M113.7,162.1c-2,0-4.1-.1-6.1-.3-11.2-1.2-21.9-5.5-22.7-7.6-.7-1.8,1.6-8,1.8-8.7,0-.1.2-.2.4-.2l44,.5h.2c2,1.3,3.1,4.9,4,8v.4a1.973,1.973,0,0,1-.5,2.4c-2.6,2.6-10.5,5.5-21.1,5.5m-26.5-16c-.7,2-2.2,6.6-1.7,7.9.6,1.5,10.5,5.9,22.1,7.1,13.4,1.4,23.6-2.1,26.6-5a1.731,1.731,0,0,0,.4-1.7V154c-1-2.9-2-6.2-3.7-7.5L87.3,146Z"/>
    <path id="Path_25903" d="M116.8,110.1l11,7.1,5.2,3.3c3.4,1.9,14.4-16.9,10.8-18.9,0,0-1.7-1.5-4.3-3.5-1.1-.8-2.4-1.7-3.8-2.6-4.2-2.7-7.4-4.9-9-5.4a8.331,8.331,0,0,0-1.5-.4L116.9,110Z" fill="#fad02c"/>
    <path id="Path_25904" d="M128.9,117.9l4,2.6c3.3,1.8,14.2-17.1,10.8-18.9,0,0-.2-.4-2.9-2.4,0,0-5,15.9-11.9,18.7" fill="#fad02c"/>
    <path id="Path_25905" d="M133.4,121a.844.844,0,0,1-.7-.2l-16.1-10.5c-.1,0-.2-.3-.1-.5l8.3-20.3c0-.2.3-.3.5-.2,0,0,.7.2,1.7.5,1.5.5,4.3,2.3,8.2,4.8l.7.5a61.289,61.289,0,0,1,8.1,6.1,1.841,1.841,0,0,1,.8,1.8c0,4.3-6,15-9.9,17.4a2.456,2.456,0,0,1-1.5.5m-16.2-11,15.9,10.3c.3.2.8,0,1.4-.3,3.7-2.2,9.6-12.7,9.5-16.8a1.364,1.364,0,0,0-.5-1.2h0a71.444,71.444,0,0,0-8.1-6.1l-.7-.5a53.018,53.018,0,0,0-8-4.7c-.6-.2-1.1-.3-1.4-.4l-8.1,19.7Z"/>
    <path id="Path_25906" d="M126.3,90.6c-9.9-4.5-36.4-5-41.1,6.4-2.3,5.4,3.3,28.9,3,31.8s-2.4,16-1.6,17.6c3.9,7.8,46,10.7,49.1,1.5.9-2.7-4.2-9.3-4.7-28.1-.2-5.4,1.6-11.5,1.9-16.7" fill="#fad02c"/>
    <path id="Path_25907" d="M115,154.5c-12.8,0-27.3-2.9-29.6-7.5-.6-1.2.1-6.9,1.1-13.7.2-1.8.4-3.3.5-4.1a76.791,76.791,0,0,0-1.1-8.2c-1.4-8.5-3.4-20.1-1.8-23.8,1.2-3,4.1-5.3,8.4-7.1,10.4-4.1,27.7-3.4,35,0,.2,0,.3.3.2.5,0,.2-.3.3-.5.2h0c-7.3-3.3-24.2-4-34.5,0-4.2,1.6-6.8,3.9-8,6.7-1.5,3.5.5,15.5,1.9,23.4a47.233,47.233,0,0,1,1.1,8.3c0,.8-.3,2.3-.5,4.1-.6,4.3-1.7,12.2-1.1,13.3,2.4,4.8,20.7,7.8,34,6.9,8.2-.6,13.5-2.5,14.4-5.3.3-.9-.2-2.4-.9-4.7a83.624,83.624,0,0,1-3.9-23.3,54.3,54.3,0,0,1,1-9.8q.6-3.45.9-6.9a.4.4,0,1,1,.8,0h0c-.2,2.4-.5,4.7-.9,7a62.535,62.535,0,0,0-1,9.6,79.238,79.238,0,0,0,3.8,23.1c.8,2.5,1.3,4.1.9,5.2-1.4,4.2-10,5.4-15.1,5.8-1.7.1-3.4.2-5.1.2"/>
    <path id="Path_25908" d="M131,158.9c-.2,0-.3-.1-.4-.3a30.473,30.473,0,0,0-2.4-5.6c-.1-.2,0-.4,0-.5.2-.1.4,0,.5,0h0a29.864,29.864,0,0,1,2.5,5.8c0,.2,0,.4-.2.5h-.1"/>
    <path id="Path_25909" d="M124.9,160.9h0c-.2,0-.4-.2-.3-.4.2-2.1-1.6-6.6-1.6-6.6,0-.2,0-.4.2-.5.2,0,.4,0,.5.2h0c0,.2,1.9,4.7,1.7,7,0,.2-.2.3-.4.3"/>
    <path id="Path_25910" d="M118.1,161.9a.43.43,0,0,1-.4-.4h0c.6-2.6-.6-7.3-.6-7.3,0-.2,0-.4.3-.4.2,0,.4,0,.4.3,0,.2,1.2,4.9.6,7.7,0,.2-.2.3-.4.3"/>
    <path id="Path_25911" d="M110.1,162a.43.43,0,0,1-.4-.4v-.2c1.3-2.7.3-7.3.3-7.4,0-.2,0-.4.3-.4.2,0,.4,0,.4.3,0,.2,1,4.9-.3,7.9,0,.1-.2.2-.3.2"/>
    <path id="Path_25912" d="M101.7,160.9a.43.43,0,0,1-.4-.4.367.367,0,0,1,.1-.3c1.3-1.1,2-5.2,2.1-6.7,0-.2.2-.3.4-.3s.3.2.3.4-.6,5.7-2.4,7.2h-.2"/>
    <path id="Path_25913" d="M94.3,159a.43.43,0,0,1-.4-.4v-.2c1.3-1.6,1.9-5.9,1.9-6,0-.2.2-.4.4-.3.2,0,.4.2.3.4h0c0,.2-.6,4.6-2,6.3a1.007,1.007,0,0,1-.3.1"/>
    <path id="Path_25914" d="M89.2,157.1a.43.43,0,0,1-.4-.4.367.367,0,0,1,.1-.3c.6-.6,1.4-3.5,1.8-5.3,0-.2.2-.3.4-.3s.3.2.3.4h0c-.1.5-1,4.8-2,5.7h-.2"/>
    <path id="Path_25915" d="M100.9,83.7a59.306,59.306,0,0,0-4.3,5.6s4.8,9.2,15.5,9.2a11.61,11.61,0,0,1,.6-7.8l-11.9-6.9Z" fill="#fad02c"/>
    <path id="Path_25916" d="M112.2,98.9c-10.8,0-15.8-9.3-15.9-9.4v-.4a48.738,48.738,0,0,1,4.3-5.6.33.33,0,0,1,.5,0L113,90.4c.2,0,.2.3.2.5a11.087,11.087,0,0,0-.6,7.6c0,.2,0,.4-.2.5h-.1M97.1,89.3c.7,1.3,5.4,8.5,14.6,8.8a12.179,12.179,0,0,1,.6-7.3L101,84.2a49.061,49.061,0,0,0-3.9,5.1"/>
    <path id="Path_25917" d="M112.8,90.7s3.1,1.6,4.3,6.6c0,0,2.6-3.3,1.9-6.6-.8-4.1-3-5.2-3-5.2l-3.2,5.3Z" fill="#fad02c"/>
    <path id="Path_25918" d="M117.1,97.6h0q-.15,0-.3-.3c-1.2-4.7-4.1-6.3-4.1-6.3-.2,0-.3-.3-.2-.5h0l3.2-5.3c0-.2.3-.2.5-.1,0,0,2.4,1.1,3.2,5.4.7,3.5-1.9,6.8-2,6.9a1.007,1.007,0,0,1-.3.1m-3.8-6.9a10.6,10.6,0,0,1,3.9,5.8,8.292,8.292,0,0,0,1.4-5.7c-.6-3-2-4.3-2.6-4.7l-2.8,4.6Z"/>
    <path id="Path_25919" d="M101.5,70.4l-.6,14c0,3.5,15,11.3,15.1,1.2V74Z" fill="#fff"/>
    <path id="Path_25920" d="M111.4,91h0c-4.4,0-10.9-3.9-10.9-6.5l.6-14a.43.43,0,0,1,.4-.4h0L116,73.7c.2,0,.3.2.3.4V85.7c0,3.5-1.8,5.4-5,5.4m-9.4-20.3-.6,13.6c0,1.8,5.7,5.8,10.1,5.8h0c2.8,0,4.2-1.6,4.2-4.6V74.3l-13.8-3.5Z"/>
    <path id="Path_25921" d="M101.6,70.4s-6.5-4.4-5-8.4,5.8.5,5.8.5-3.2-14.2,8.9-16.6a8.729,8.729,0,0,1,9.2,3.6c5.6,8.6,5.4,27-2.6,29.4A12.052,12.052,0,0,1,106,76.5" fill="#fff"/>
    <path id="Path_25922" d="M113.7,80.1a11.8,11.8,0,0,1-8-3.1c-.1-.1-.2-.4,0-.5.1-.1.4-.2.5,0a11.48,11.48,0,0,0,11.5,2.3c2.1-.6,3.8-2.5,4.8-5.4,2.5-6.8,1.4-17.5-2.5-23.4a8.237,8.237,0,0,0-8.8-3.5,10.226,10.226,0,0,0-6.9,4.3c-3.1,4.8-1.7,11.7-1.6,11.8,0,.2,0,.4-.3.4-.1,0-.3,0-.3-.1-.6-.7-2.6-2.3-3.9-2-.6.1-1,.6-1.3,1.4-1.4,3.6,4.8,7.9,4.9,8,.2.1.2.3.1.5s-.3.2-.5.1h0c-.3-.2-6.7-4.6-5.1-8.8a2.368,2.368,0,0,1,1.8-1.8c1.3-.3,2.9.7,3.8,1.5-.3-2.2-.7-7.3,1.9-11.3a11.187,11.187,0,0,1,7.4-4.7,8.9,8.9,0,0,1,9.6,3.8c3.9,6.1,5.1,17.1,2.5,24.1-1.2,3.2-3,5.2-5.3,5.9a20.476,20.476,0,0,1-4.2.7"/>
    <path id="Path_25923" d="M123.9,46c-3.7,9.5-19.2,4.3-18.2,6.5,1.6,3.1-1.4,11.6-2.2,11.7s-1.2-1.6-1.2-1.6-4.3-4.5-5.8-.5,5,8.4,5,8.4c-9.5.3-14.2-11.9-13.9-19s5-7.4,5-7.4c-.4-4,4-6.9,7.6-6.1s16.6,5.4,16.8-1.1c5.2-2.6,9.2,3.1,6.8,9.1"/>
    <path id="Path_25924" d="M101.2,70.8a10.913,10.913,0,0,1-8.1-3.6c-4.1-4.2-6-11.1-5.8-15.8.3-6.2,3.8-7.4,5-7.7a5.685,5.685,0,0,1,2.1-4.5,7.141,7.141,0,0,1,6-1.6c.5.1,1.1.3,1.9.5,3.8,1,10.8,3,13.4,1a2.8,2.8,0,0,0,1.1-2.2c0-.1,0-.3.2-.3a5.138,5.138,0,0,1,6,.6c2.1,2,2.7,5.6,1.4,8.9-2.7,6.8-11,6.4-15.4,6.2h-2.7c1.4,2.8-.6,9.2-1.7,11.3-.3.6-.5.8-.8.9-1,.1-1.4-1.3-1.5-1.8-.7-.7-2.5-2.2-3.8-1.9-.6.1-1,.6-1.3,1.4-1.4,3.6,4.8,7.9,4.9,8,.2.1.2.3,0,.5,0,0-.2.2-.3.2h-.4M99,38.2a6.2,6.2,0,0,0-4.1,1.6A4.855,4.855,0,0,0,93.1,44c0,.2-.1.4-.3.4h0c-.2,0-4.3.3-4.6,7-.2,4.5,1.6,11.2,5.6,15.3a10.489,10.489,0,0,0,6.8,3.3c-1.8-1.4-5.4-4.9-4.2-8.1a2.368,2.368,0,0,1,1.8-1.8c2-.4,4.5,2.1,4.6,2.2v.2c.1.6.5,1.3.7,1.3.7-.7,3.4-8.3,2-11.1a.854.854,0,0,1,0-.7c.3-.5,1.2-.5,3.4-.4,4.6.2,12.3.6,14.7-5.7,1.4-3.6.4-6.7-1.2-8.1a4.419,4.419,0,0,0-4.9-.6,3.143,3.143,0,0,1-1.4,2.6c-3,2.2-9.9.3-14.1-.9-.7-.2-1.4-.4-1.8-.5-.4,0-.8-.1-1.2-.1m4.5,25.5h0"/>
    <path id="Path_25925" d="M110,50.6v-.7a25.632,25.632,0,0,0,5.4-1,9.3,9.3,0,0,0,4.5-2.8,5.429,5.429,0,0,0,1.3-4.9l.7-.2a6.447,6.447,0,0,1-1.5,5.5,9.654,9.654,0,0,1-4.9,3,34.53,34.53,0,0,1-5.6,1" fill="#fff"/>
    <path id="Path_25926" d="M111.3,47.9a3.887,3.887,0,0,1-1.5-.2l.2-.7a5.989,5.989,0,0,0,6.5-2.8l.6.4a6.752,6.752,0,0,1-5.9,3.3" fill="#fff"/>
    <path id="Path_25927" d="M95.9,44.3a3.493,3.493,0,0,1,1.6-3.7,4.193,4.193,0,0,1,2.2-.5v.7a3.661,3.661,0,0,0-1.8.4,2.563,2.563,0,0,0-1.2,2.9l-.7.2Z" fill="#fff"/>
    <path id="Path_25928" d="M104.7,58.6l-.7-.3a4.355,4.355,0,0,0,0-3.7l.7-.3a5.361,5.361,0,0,1,0,4.3" fill="#fff"/>
    <path id="Path_25929" d="M110.5,61.3c.1.7.7,1.2,1.2,1.1a1.119,1.119,0,0,0,.7-1.4c-.1-.7-.7-1.2-1.2-1.1a1.119,1.119,0,0,0-.7,1.4"/>
    <path id="Path_25930" d="M119.4,59.7a1.03,1.03,0,1,0,.7-1.5,1.068,1.068,0,0,0-.6,1.5"/>
    <path id="Path_25931" d="M112.1,58.7c-1.5-.7-1.8.2-2.2.8" fill="#fff"/>
    <path id="Path_25932" d="M109.8,59.9a.43.43,0,0,1-.4-.4v-.2a.31.31,0,0,1,.1-.2,1.7,1.7,0,0,1,2.2-1,.758.758,0,0,1,.4.2c.2,0,.3.3.2.5,0,.2-.3.3-.5.2h0c-1-.5-1.2-.1-1.6.5a.31.31,0,0,1-.1.2c0,.1-.2.2-.3.2"/>
    <path id="Path_25933" d="M120.7,56.8a1.786,1.786,0,0,0-2.2.9" fill="#fff"/>
    <path id="Path_25934" d="M118.5,58.1a.43.43,0,0,1-.4-.4v-.2a2.249,2.249,0,0,1,2.7-1.1c.2,0,.3.3.2.5,0,.2-.3.3-.5.2h0a1.38,1.38,0,0,0-1.7.8c0,.1-.2.2-.3.2"/>
    <path id="Path_25935" d="M115.6,62.1c.6,1.9,1.5,3.6,2.1,5.5a1.3,1.3,0,0,1-.7,1.8,2.663,2.663,0,0,1-1.2.3" fill="#fff"/>
    <path id="Path_25936" d="M115.8,70.1a.43.43,0,0,1-.4-.4c0-.2.1-.3.3-.4a4.253,4.253,0,0,0,1.1-.2,1.167,1.167,0,0,0,.6-.6,2.2,2.2,0,0,0-.1-.8c-.3-.9-.7-1.8-1-2.7a13.315,13.315,0,0,1-1-2.8c0-.2,0-.4.3-.5.2,0,.4,0,.4.2.3.9.7,1.8,1,2.7a13.315,13.315,0,0,1,1,2.8,2.079,2.079,0,0,1,.1,1.1,1.722,1.722,0,0,1-1,1.2,3.079,3.079,0,0,1-1.3.3h0"/>
    <path id="Path_25937" d="M116.9,72.9a2.717,2.717,0,0,1-3.9-.1,1.756,1.756,0,0,1-.4-.5" fill="#fff"/>
    <path id="Path_25938" d="M115,74h-.3a3.839,3.839,0,0,1-2.4-1.5.354.354,0,0,1,.5-.5h0a2.47,2.47,0,0,0,1.9,1.2,3.057,3.057,0,0,0,2-.7c.2-.1.4,0,.5,0,.1.2,0,.4,0,.5a3.5,3.5,0,0,1-2.2.8"/>
    <path id="Path_25939" d="M120.3,63.5a5.02,5.02,0,0,1-4.6-4.5,4.876,4.876,0,0,1,.8-3.7,4.047,4.047,0,0,1,5.6-1.4,4.233,4.233,0,0,1,.7.5,5.631,5.631,0,0,1,1,7.1,3.907,3.907,0,0,1-2.9,1.9h-.5m-.4-9.3h-.4a3.387,3.387,0,0,0-2.4,1.6,5.2,5.2,0,0,0-.7,3.2c.3,2.4,2.3,4.1,4.3,3.8a3.387,3.387,0,0,0,2.4-1.6,5.018,5.018,0,0,0-.9-6.2A3.337,3.337,0,0,0,120,54" fill="#bb88fc"/>
    <path id="Path_25940" d="M110.6,65.8a4.3,4.3,0,0,1-2.8-1.1,5.631,5.631,0,0,1-1-7.1,3.907,3.907,0,0,1,2.9-1.9c2.4-.3,4.7,1.7,5.1,4.4a4.876,4.876,0,0,1-.8,3.7,3.907,3.907,0,0,1-2.9,1.9h-.6m-.2-9.4h-.4a3.387,3.387,0,0,0-2.4,1.6,5.018,5.018,0,0,0,.9,6.2,3.321,3.321,0,0,0,4.7-.1c.2-.2.3-.4.5-.6a5.2,5.2,0,0,0,.7-3.2h0a4.269,4.269,0,0,0-3.8-3.9" fill="#bb88fc"/>
    <path id="Path_25941" d="M114.4,60a.43.43,0,0,1-.4-.4v-.2a1.961,1.961,0,0,1,2-.9c.2,0,.3.2.3.4s-.2.3-.4.3h0a.967.967,0,0,0-1.2.5c0,.1-.2.2-.3.2" fill="#bb88fc"/>
    <path id="Path_25942" d="M106.5,62.1h-.1s-1.6-.6-5.9-.2a.366.366,0,0,1-.4-.4c0-.2.1-.4.3-.4,4.6-.4,6.2.2,6.2.3.2,0,.3.3.2.5,0,.1-.2.2-.3.2" fill="#bb88fc"/>
    <path id="Path_25943" d="M132.1,134.9s3.4-6.5.8-6.8-6.6,5.8-6.6,5.8" fill="#fff"/>
    <path id="Path_25944" d="M132.1,135.3a.43.43,0,0,1-.4-.4v-.2c.7-1.2,2.2-4.7,1.6-5.9a1,1,0,0,0-.5-.4c-2-.3-5.2,4-6.2,5.7-.1.2-.3.2-.5.1s-.2-.3-.1-.5h0c.4-.7,4.2-6.4,7-6a1.17,1.17,0,0,1,1.1.8c.9,1.8-1.3,6.1-1.6,6.6,0,.1-.2.2-.3.2"/>
    <path id="Path_25945" d="M135,147.8l9.6-.2a4.927,4.927,0,0,0,4.7-4.3l2.1-18.5a3.616,3.616,0,0,0-3.1-4.1h-.7l-9.6.2a4.927,4.927,0,0,0-4.7,4.3l-2.1,18.5a3.616,3.616,0,0,0,3.1,4.1h.7" fill="#bb88fc"/>
    <path id="Path_25946" d="M134.9,148.1a4,4,0,0,1-4-4.6L133,125a5.266,5.266,0,0,1,5.1-4.6l9.6-.2a4,4,0,0,1,4.1,4.6l-2.1,18.5a5.266,5.266,0,0,1-5.1,4.6l-9.6.2h0M147.7,121h0l-9.6.2a4.693,4.693,0,0,0-4.4,4l-2.1,18.5a3.3,3.3,0,0,0,3.4,3.8l9.6-.2a4.508,4.508,0,0,0,4.3-4l2.1-18.5a3.635,3.635,0,0,0-.8-2.7,3.408,3.408,0,0,0-2.5-1.1"/>
    <path id="Path_25947" d="M126.3,133.9l-28.1-4-5.1-19-15,4.6s3.3,22.7,9.6,26.9c8.5,5.6,39.2,2.2,39.2,2.2s14.4,1.2,17.7-1.5c2.1-1.7.3-2.6.3-2.6,2.3-2-.5-3.1-.5-3.1,1.1-.5,1.8-1.9.6-2.7-1.1-.7-5.8,1-6.3,1.1.5-.2,5.8-2,4.7-3.5-1.6-2.1-11.2,2.5-11.2,2.5" fill="#fff"/>
    <path id="Path_25948" d="M107.9,146.1c-8.1,0-16.6-.7-20.5-3.3-6.4-4.2-9.6-26.2-9.7-27.1,0-.2,0-.4.3-.4l15-4.6c.2,0,.4,0,.5.2h0l5,18.7,27.8,4c.2,0,.3.2.3.4s-.2.3-.4.3l-28.1-4a.319.319,0,0,1-.3-.3l-5-18.6-14.4,4.4c.4,2.7,3.7,22.5,9.3,26.3,8.3,5.5,38.7,2.2,39,2.2h0c.1,0,14.3,1.1,17.4-1.5a2.07,2.07,0,0,0,.9-1.4.634.634,0,0,0-.5-.6c-.2,0-.3-.3-.2-.5v-.1c.6-.5.8-.9.7-1.3-.1-.7-1.2-1.1-1.2-1.1-.2,0-.3-.3-.2-.5,0,0,.1-.2.2-.2a1.7,1.7,0,0,0,1-1.3,1.02,1.02,0,0,0-.5-.8c-.7-.4-3.6.3-5.9,1.2-.2,0-.4,0-.5-.2,0-.2,0-.4.2-.5h.2c3.5-1.3,4.3-2.1,4.4-2.5v-.3c-1-1.4-7.2.9-10.8,2.6-.2,0-.4,0-.5-.2,0-.2,0-.4.2-.5,1.7-.8,10-4.6,11.7-2.3a1.163,1.163,0,0,1,.2,1,1.818,1.818,0,0,1-1,1.1,3.33,3.33,0,0,1,2.2.1,1.763,1.763,0,0,1,.8,1.5,2.04,2.04,0,0,1-.8,1.5,2.068,2.068,0,0,1,1,1.4,2.193,2.193,0,0,1-.7,1.7,1.346,1.346,0,0,1,.5.9,2.724,2.724,0,0,1-1.1,2c-3.3,2.7-16.9,1.7-17.9,1.6-.9,0-9.7,1-18.9,1"/>
    <path id="Path_25949" d="M139.1,139.2a.43.43,0,0,1-.4-.4c0-.2.1-.3.3-.4l5.2-1.4c.2,0,.4,0,.4.3,0,.2,0,.4-.3.4l-5.2,1.4h0"/>
    <path id="Path_25950" d="M139.6,142.1a.43.43,0,0,1-.4-.4c0-.2.1-.3.3-.4l5.3-1.2c.2,0,.4,0,.5.3,0,.2,0,.4-.3.5h0l-5.3,1.2h0"/>
    <path id="Path_25951" d="M77.3,126.3c3.5-.6,15.8-2,19.5-9.4L93,104.7,89.2,92.1s-8.3,3.7-12.2,11c-3.5,6.7.2,23.2.2,23.2" fill="#fad02c"/>
    <path id="Path_25952" d="M76,119.8c.5,2.6,1.2,6.5,1.2,6.5,4.2-1,16.2-2,19.5-9.4L95,111.7c-3.9,5.4-14.3,7.1-19.1,8.1" fill="#fad02c"/>
    <path id="Path_25953" d="M77.3,126.7c-.2,0-.3-.1-.4-.3-.2-.7-3.7-16.7-.2-23.4C80.6,95.7,89,91.9,89.1,91.9c.2,0,.4,0,.5.2,0,.2,0,.4-.2.5,0,0-8.2,3.7-12,10.8-3.2,6-.3,20.2.2,22.6,4.3-.6,15.6-2.2,18.9-9l-3.7-12-1.2-4.2c0-.2,0-.4.3-.4.2,0,.4,0,.4.2l1.2,4.2L97.3,117v.3c-3.3,7.3-15.1,8.9-19.5,9.5h-.3"/>
    <path id="Path_25954" d="M167,79.2c1.4.5,1.9,2.7,1.2,4.9s-2.5,3.6-4,3.1-1.9-2.7-1.2-4.9,2.5-3.6,4-3.1" fill="#fff"/>
    <path id="Path_25955" d="M164.8,87.6a1.7,1.7,0,0,1-.7-.1,2.511,2.511,0,0,1-1.6-2.1,7.393,7.393,0,0,1,.2-3.3c.9-2.4,2.8-3.9,4.4-3.3a2.511,2.511,0,0,1,1.6,2.1,6.5,6.5,0,0,1-2.1,6,3.115,3.115,0,0,1-1.8.7m1.6-8.2c-1.1,0-2.4,1.2-3,2.9a5.663,5.663,0,0,0-.2,2.9,1.663,1.663,0,0,0,1.9,1.6,1.425,1.425,0,0,0,1.2-.6,5.441,5.441,0,0,0,1.8-5.2,1.593,1.593,0,0,0-1.2-1.5h-.5"/>
    <path id="Path_25956" d="M164,78.2c1.4.5,1.9,2.9,1,5.3s-2.7,4-4.1,3.5-1.9-2.9-1-5.3,2.7-4,4.1-3.5" fill="#fff"/>
    <path id="Path_25957" d="M161.4,87.5a1.7,1.7,0,0,1-.7-.1c-1.6-.6-2.2-3.1-1.2-5.8s3-4.3,4.6-3.8,2.2,3.1,1.2,5.8c-.8,2.3-2.4,3.9-3.9,3.9m2-9c-1.1,0-2.5,1.4-3.2,3.4-.8,2.2-.4,4.4.8,4.9s2.9-1.1,3.7-3.3.4-4.4-.8-4.9h-.4"/>
    <path id="Path_25958" d="M160.3,77.1c1.6.5,2.1,3.2,1.1,5.9s-3,4.5-4.6,3.9-2.1-3.2-1.1-5.9,3-4.5,4.6-3.9" fill="#fff"/>
    <path id="Path_25959" d="M157.5,87.4a1.7,1.7,0,0,1-.7-.1,2.869,2.869,0,0,1-1.7-2.4,8.388,8.388,0,0,1,2.6-7.3,2.8,2.8,0,0,1,2.9-.8c1.8.6,2.4,3.4,1.3,6.4-.9,2.5-2.7,4.3-4.3,4.3m2.1-10.1a2.837,2.837,0,0,0-1.7.7,7.67,7.67,0,0,0-2.3,6.6,2.157,2.157,0,0,0,1.3,1.9c1.3.5,3.2-1.2,4.1-3.7s.5-4.9-.9-5.4h-.5"/>
    <path id="Path_25960" d="M156.4,76.3c1.4.5,1.9,2.9,1,5.3s-2.7,4-4.1,3.5-1.9-2.9-1-5.3,2.7-4,4.1-3.5" fill="#fff"/>
    <path id="Path_25961" d="M153.8,85.7a1.7,1.7,0,0,1-.7-.1,2.654,2.654,0,0,1-1.6-2.2,7.67,7.67,0,0,1,2.3-6.6,2.391,2.391,0,0,1,3.4-.3,2.43,2.43,0,0,1,.9,1.8,7.67,7.67,0,0,1-2.3,6.6,2.792,2.792,0,0,1-2,.8m2-9.1a2.127,2.127,0,0,0-1.5.7,6.836,6.836,0,0,0-2.1,5.9,1.666,1.666,0,0,0,1.6,1.7,1.513,1.513,0,0,0,1.4-.7,6.836,6.836,0,0,0,2.1-5.9,2.173,2.173,0,0,0-1.1-1.7h-.4"/>
    <path id="Path_25962" d="M198.3,142.7l3.3,16.6a5.014,5.014,0,0,1-4,5.9L181,168.5a5.014,5.014,0,0,1-5.9-4l-3.3-16.6a5.014,5.014,0,0,1,4-5.9l16.6-3.3a5.014,5.014,0,0,1,5.9,4" fill="#04b5a4"/>
    <path id="Path_25963" d="M177.4,166.9a5.359,5.359,0,0,1-5.3-4.4l-3.3-16.6a5.449,5.449,0,0,1,4.2-6.4l16.6-3.3a5.449,5.449,0,0,1,6.4,4.2l3.3,16.6a5.449,5.449,0,0,1-4.2,6.4l-16.6,3.3c-.4,0-.7.1-1.1.1m13.3-29.9h-.9l-16.6,3.3a4.738,4.738,0,0,0-3.7,5.5l3.3,16.6a4.738,4.738,0,0,0,5.5,3.7l16.6-3.3a4.738,4.738,0,0,0,3.7-5.5l-3.3-16.6a4.708,4.708,0,0,0-4.6-3.8"/>
    <path id="Path_25964" d="M173.4,140.2c-.2,0-.3-.1-.4-.3l-1.1-5.5a8.463,8.463,0,0,1,16.6-3.3l1.1,5.5c0,.2,0,.4-.3.4h0l-15.9,3.2h0m6.9-15.1a7.7,7.7,0,0,0-7.7,7.7,3.887,3.887,0,0,0,.2,1.5l1,5.1,15.2-3-1-5.1a7.722,7.722,0,0,0-7.6-6.2"/>
    <path id="Path_25965" d="M185.3,153.1l2.3,3.8-4.6.9.6-4.4a2.574,2.574,0,1,1,2.9-2.2,2.763,2.763,0,0,1-1.2,1.9"/>
    <path id="Path_24526" d="M32.5,199.6H306.6a.457.457,0,0,0,.4-.5.43.43,0,0,0-.4-.4H32.5a.43.43,0,0,0-.4.4h0a.43.43,0,0,0,.4.4h0" fill-rule="evenodd"/>
  </g>
</svg>
