<svg xmlns="http://www.w3.org/2000/svg" xmlns:xlink="http://www.w3.org/1999/xlink" width="1000" zoomAndPan="magnify" viewBox="0 0 750 749.999995" height="1000" preserveAspectRatio="xMidYMid meet" version="1.0"><defs><g/></defs><g fill="#fad02c" fill-opacity="1"><g transform="translate(137.535596, 445.725184)"><g><path d="M 61.953125 0 L 38.21875 0 C 29.539062 0 22.820312 -2.0625 18.0625 -6.1875 C 13.300781 -10.320312 10.921875 -16.171875 10.921875 -23.734375 L 10.921875 -160.234375 L 46.203125 -160.234375 L 46.203125 -35.90625 C 46.203125 -32.6875 47.003906 -30.65625 48.609375 -29.8125 C 50.222656 -28.976562 51.734375 -28.5625 53.140625 -28.5625 L 61.953125 -28.5625 Z M 61.953125 0 "/></g></g></g><g fill="#fad02c" fill-opacity="1"><g transform="translate(204.315673, 445.725184)"><g><path d="M 35.703125 41.15625 L 14.484375 41.15625 L 14.484375 12.390625 L 28.765625 12.390625 C 31.710938 12.390625 34.410156 11.898438 36.859375 10.921875 C 39.304688 9.941406 41.234375 7.703125 42.640625 4.203125 L 43.6875 1.6875 L 1.46875 -119.078125 L 39.265625 -119.078125 L 61.75 -34.65625 L 81.0625 -119.078125 L 119.078125 -119.078125 L 76.859375 7.5625 C 72.941406 19.457031 67.972656 28.03125 61.953125 33.28125 C 55.929688 38.53125 47.179688 41.15625 35.703125 41.15625 Z M 35.703125 41.15625 "/></g></g></g><g fill="#fad02c" fill-opacity="1"><g transform="translate(325.275831, 445.725184)"><g><path d="M 46.828125 0 L 11.546875 0 L 11.546875 -119.078125 L 46.828125 -119.078125 L 46.828125 -106.265625 C 50.890625 -112.285156 55.40625 -116.34375 60.375 -118.4375 C 65.34375 -120.539062 70.976562 -121.59375 77.28125 -121.59375 C 85.125 -121.59375 91.597656 -120.644531 96.703125 -118.75 C 101.816406 -116.863281 105.878906 -114.347656 108.890625 -111.203125 C 111.898438 -108.054688 114.175781 -104.660156 115.71875 -101.015625 C 118.09375 -95.835938 119.457031 -90.65625 119.8125 -85.46875 C 120.164062 -80.289062 120.34375 -73.992188 120.34375 -66.578125 L 120.34375 0 L 85.0625 0 L 85.0625 -67 C 85.0625 -72.875 84.675781 -77.523438 83.90625 -80.953125 C 83.132812 -84.390625 81.835938 -87.019531 80.015625 -88.84375 C 77.210938 -91.78125 72.875 -93.25 67 -93.25 C 63.351562 -93.25 60.195312 -92.789062 57.53125 -91.875 C 54.875 -90.96875 52.78125 -89.394531 51.25 -87.15625 C 49.84375 -85.195312 48.753906 -82.640625 47.984375 -79.484375 C 47.210938 -76.335938 46.828125 -72.175781 46.828125 -67 Z M 46.828125 0 "/></g></g></g><g fill="#fad02c" fill-opacity="1"><g transform="translate(456.316035, 445.725184)"><g><path d="M 46.828125 0 L 11.546875 0 L 11.546875 -160.234375 L 46.828125 -160.234375 L 46.828125 -77.28125 L 84.640625 -119.078125 L 128.109375 -119.078125 L 79.171875 -67.828125 L 130.84375 0 L 88.84375 0 L 46.828125 -57.125 Z M 46.828125 0 "/></g></g></g></svg>