<svg xmlns="http://www.w3.org/2000/svg" xmlns:xlink="http://www.w3.org/1999/xlink" width="1000" zoomAndPan="magnify" viewBox="0 0 750 749.999995" height="1000" preserveAspectRatio="xMidYMid meet" version="1.0"><defs><g/><clipPath id="58bdc0a7b5"><path d="M 363.730469 259 L 612.464844 259 L 612.464844 507.734375 L 363.730469 507.734375 Z M 363.730469 259 " clip-rule="nonzero"/></clipPath><clipPath id="2acc61123b"><path d="M 488.097656 259 C 419.410156 259 363.730469 314.679688 363.730469 383.367188 C 363.730469 452.050781 419.410156 507.734375 488.097656 507.734375 C 556.785156 507.734375 612.464844 452.050781 612.464844 383.367188 C 612.464844 314.679688 556.785156 259 488.097656 259 Z M 488.097656 259 " clip-rule="nonzero"/></clipPath></defs><rect x="-75" width="900" fill="#ffffff" y="-74.999999" height="899.999994" fill-opacity="1"/><rect x="-75" width="900" fill="#fad02c" y="-74.999999" height="899.999994" fill-opacity="1"/><g clip-path="url(#58bdc0a7b5)"><g clip-path="url(#2acc61123b)"><path fill="#fbfbf9" d="M 363.730469 259 L 612.464844 259 L 612.464844 507.734375 L 363.730469 507.734375 Z M 363.730469 259 " fill-opacity="1" fill-rule="nonzero"/></g></g><g fill="#000000" fill-opacity="1"><g transform="translate(140.337065, 445.777587)"><g><path d="M 61.1875 0 L 37.75 0 C 29.175781 0 22.535156 -2.035156 17.828125 -6.109375 C 13.128906 -10.191406 10.78125 -15.96875 10.78125 -23.4375 L 10.78125 -158.234375 L 45.625 -158.234375 L 45.625 -35.46875 C 45.625 -32.28125 46.414062 -30.269531 48 -29.4375 C 49.59375 -28.613281 51.082031 -28.203125 52.46875 -28.203125 L 61.1875 -28.203125 Z M 61.1875 0 "/></g></g></g><g fill="#000000" fill-opacity="1"><g transform="translate(206.286949, 445.777587)"><g><path d="M 35.25 40.65625 L 14.3125 40.65625 L 14.3125 12.234375 L 28.40625 12.234375 C 31.3125 12.234375 33.972656 11.75 36.390625 10.78125 C 38.816406 9.8125 40.71875 7.597656 42.09375 4.140625 L 43.140625 1.65625 L 1.453125 -117.59375 L 38.78125 -117.59375 L 60.96875 -34.21875 L 80.046875 -117.59375 L 117.59375 -117.59375 L 75.90625 7.46875 C 72.03125 19.21875 67.117188 27.6875 61.171875 32.875 C 55.234375 38.0625 46.59375 40.65625 35.25 40.65625 Z M 35.25 40.65625 "/></g></g></g><g fill="#000000" fill-opacity="1"><g transform="translate(325.743371, 445.777587)"><g><path d="M 46.25 0 L 11.40625 0 L 11.40625 -117.59375 L 46.25 -117.59375 L 46.25 -104.9375 C 50.257812 -110.882812 54.71875 -114.894531 59.625 -116.96875 C 64.53125 -119.039062 70.09375 -120.078125 76.3125 -120.078125 C 84.0625 -120.078125 90.457031 -119.144531 95.5 -117.28125 C 100.550781 -115.414062 104.5625 -112.925781 107.53125 -109.8125 C 110.5 -106.695312 112.742188 -103.34375 114.265625 -99.75 C 116.617188 -94.632812 117.96875 -89.519531 118.3125 -84.40625 C 118.65625 -79.289062 118.828125 -73.070312 118.828125 -65.75 L 118.828125 0 L 84 0 L 84 -66.15625 C 84 -71.96875 83.617188 -76.566406 82.859375 -79.953125 C 82.097656 -83.335938 80.816406 -85.925781 79.015625 -87.71875 C 76.253906 -90.625 71.96875 -92.078125 66.15625 -92.078125 C 62.5625 -92.078125 59.453125 -91.628906 56.828125 -90.734375 C 54.203125 -89.835938 52.128906 -88.28125 50.609375 -86.0625 C 49.222656 -84.125 48.148438 -81.597656 47.390625 -78.484375 C 46.628906 -75.378906 46.25 -71.269531 46.25 -66.15625 Z M 46.25 0 "/></g></g></g><g fill="#000000" fill-opacity="1"><g transform="translate(455.154493, 445.777587)"><g><path d="M 46.25 0 L 11.40625 0 L 11.40625 -158.234375 L 46.25 -158.234375 L 46.25 -76.3125 L 83.578125 -117.59375 L 126.515625 -117.59375 L 78.1875 -66.984375 L 129.203125 0 L 87.71875 0 L 46.25 -56.40625 Z M 46.25 0 "/></g></g></g></svg>